<mxfile host="app.diagrams.net" modified="2023-09-07T18:50:26.035Z" agent="Mozilla/5.0 (Windows NT 10.0; Win64; x64) AppleWebKit/537.36 (KHTML, like Gecko) Chrome/116.0.0.0 Safari/537.36" etag="U6-DV-vxrZ-0H2q8SGHe" version="21.7.2" type="github" pages="3">
  <diagram name="Page-RelationalDiagram" id="xzXOlIJJJJgkkbdWyNcL">
    <mxGraphModel dx="819" dy="447" grid="1" gridSize="10" guides="1" tooltips="1" connect="1" arrows="1" fold="1" page="1" pageScale="1" pageWidth="827" pageHeight="1169" math="0" shadow="0">
      <root>
        <mxCell id="0" />
        <mxCell id="1" parent="0" />
        <mxCell id="M_aF5nF9O-DdfVQEBDeR-6" value="weekDetail" style="swimlane;fontStyle=0;childLayout=stackLayout;horizontal=1;startSize=30;horizontalStack=0;resizeParent=1;resizeParentMax=0;resizeLast=0;collapsible=1;marginBottom=0;whiteSpace=wrap;html=1;rounded=0;fontSize=16;" parent="1" vertex="1">
          <mxGeometry x="470" y="310" width="190" height="180" as="geometry" />
        </mxCell>
        <mxCell id="M_aF5nF9O-DdfVQEBDeR-9" value="id" style="text;strokeColor=none;fillColor=none;align=left;verticalAlign=middle;spacingLeft=4;spacingRight=4;overflow=hidden;points=[[0,0.5],[1,0.5]];portConstraint=eastwest;rotatable=0;whiteSpace=wrap;html=1;fontSize=16;rounded=0;" parent="M_aF5nF9O-DdfVQEBDeR-6" vertex="1">
          <mxGeometry y="30" width="190" height="30" as="geometry" />
        </mxCell>
        <mxCell id="M_aF5nF9O-DdfVQEBDeR-24" value="headerIncidenceId(FK)" style="text;strokeColor=none;fillColor=none;align=left;verticalAlign=middle;spacingLeft=4;spacingRight=4;overflow=hidden;points=[[0,0.5],[1,0.5]];portConstraint=eastwest;rotatable=0;whiteSpace=wrap;html=1;fontSize=16;rounded=0;" parent="M_aF5nF9O-DdfVQEBDeR-6" vertex="1">
          <mxGeometry y="60" width="190" height="30" as="geometry" />
        </mxCell>
        <mxCell id="FmqXsOVbyBLf8n7mqnHW-23" value="shift:varchar" style="text;strokeColor=none;fillColor=none;align=left;verticalAlign=middle;spacingLeft=4;spacingRight=4;overflow=hidden;points=[[0,0.5],[1,0.5]];portConstraint=eastwest;rotatable=0;whiteSpace=wrap;html=1;fontSize=16;rounded=0;" parent="M_aF5nF9O-DdfVQEBDeR-6" vertex="1">
          <mxGeometry y="90" width="190" height="30" as="geometry" />
        </mxCell>
        <mxCell id="FmqXsOVbyBLf8n7mqnHW-25" value="numberPayroll:int" style="text;strokeColor=none;fillColor=none;align=left;verticalAlign=middle;spacingLeft=4;spacingRight=4;overflow=hidden;points=[[0,0.5],[1,0.5]];portConstraint=eastwest;rotatable=0;whiteSpace=wrap;html=1;fontSize=16;rounded=0;" parent="M_aF5nF9O-DdfVQEBDeR-6" vertex="1">
          <mxGeometry y="120" width="190" height="30" as="geometry" />
        </mxCell>
        <mxCell id="Sk1X4M4M02ybs9BoksH8-2" value="status:varchar" style="text;strokeColor=none;fillColor=none;align=left;verticalAlign=middle;spacingLeft=4;spacingRight=4;overflow=hidden;points=[[0,0.5],[1,0.5]];portConstraint=eastwest;rotatable=0;whiteSpace=wrap;html=1;fontSize=16;rounded=0;" parent="M_aF5nF9O-DdfVQEBDeR-6" vertex="1">
          <mxGeometry y="150" width="190" height="30" as="geometry" />
        </mxCell>
        <mxCell id="M_aF5nF9O-DdfVQEBDeR-13" value="calendar" style="swimlane;fontStyle=0;childLayout=stackLayout;horizontal=1;startSize=30;horizontalStack=0;resizeParent=1;resizeParentMax=0;resizeLast=0;collapsible=1;marginBottom=0;whiteSpace=wrap;html=1;rounded=0;fontSize=16;" parent="1" vertex="1">
          <mxGeometry x="12" y="130" width="176" height="150" as="geometry" />
        </mxCell>
        <mxCell id="M_aF5nF9O-DdfVQEBDeR-14" value="id" style="text;strokeColor=none;fillColor=none;align=left;verticalAlign=middle;spacingLeft=4;spacingRight=4;overflow=hidden;points=[[0,0.5],[1,0.5]];portConstraint=eastwest;rotatable=0;whiteSpace=wrap;html=1;fontSize=16;rounded=0;" parent="M_aF5nF9O-DdfVQEBDeR-13" vertex="1">
          <mxGeometry y="30" width="176" height="30" as="geometry" />
        </mxCell>
        <mxCell id="M_aF5nF9O-DdfVQEBDeR-29" value="numberWeek:int&amp;nbsp;" style="text;strokeColor=none;fillColor=none;align=left;verticalAlign=middle;spacingLeft=4;spacingRight=4;overflow=hidden;points=[[0,0.5],[1,0.5]];portConstraint=eastwest;rotatable=0;whiteSpace=wrap;html=1;fontSize=16;rounded=0;" parent="M_aF5nF9O-DdfVQEBDeR-13" vertex="1">
          <mxGeometry y="60" width="176" height="30" as="geometry" />
        </mxCell>
        <mxCell id="M_aF5nF9O-DdfVQEBDeR-15" value="incidenceStart:Date" style="text;strokeColor=none;fillColor=none;align=left;verticalAlign=middle;spacingLeft=4;spacingRight=4;overflow=hidden;points=[[0,0.5],[1,0.5]];portConstraint=eastwest;rotatable=0;whiteSpace=wrap;html=1;fontSize=16;rounded=0;" parent="M_aF5nF9O-DdfVQEBDeR-13" vertex="1">
          <mxGeometry y="90" width="176" height="30" as="geometry" />
        </mxCell>
        <mxCell id="1ZrVSknhjrhviFa1q-uo-1" value="incidenceEnd:Date" style="text;strokeColor=none;fillColor=none;align=left;verticalAlign=middle;spacingLeft=4;spacingRight=4;overflow=hidden;points=[[0,0.5],[1,0.5]];portConstraint=eastwest;rotatable=0;whiteSpace=wrap;html=1;fontSize=16;rounded=0;" parent="M_aF5nF9O-DdfVQEBDeR-13" vertex="1">
          <mxGeometry y="120" width="176" height="30" as="geometry" />
        </mxCell>
        <mxCell id="M_aF5nF9O-DdfVQEBDeR-25" value="headIncidence" style="swimlane;fontStyle=0;childLayout=stackLayout;horizontal=1;startSize=26;horizontalStack=0;resizeParent=1;resizeParentMax=0;resizeLast=0;collapsible=1;marginBottom=0;align=center;fontSize=16;rounded=0;" parent="1" vertex="1">
          <mxGeometry x="250" y="170" width="186" height="296" as="geometry" />
        </mxCell>
        <mxCell id="M_aF5nF9O-DdfVQEBDeR-30" value="id" style="text;strokeColor=none;fillColor=none;spacingLeft=4;spacingRight=4;overflow=hidden;rotatable=0;points=[[0,0.5],[1,0.5]];portConstraint=eastwest;fontSize=16;rounded=0;" parent="M_aF5nF9O-DdfVQEBDeR-25" vertex="1">
          <mxGeometry y="26" width="186" height="30" as="geometry" />
        </mxCell>
        <mxCell id="M_aF5nF9O-DdfVQEBDeR-36" value="caledarId(FK)" style="text;strokeColor=none;fillColor=none;spacingLeft=4;spacingRight=4;overflow=hidden;rotatable=0;points=[[0,0.5],[1,0.5]];portConstraint=eastwest;fontSize=16;rounded=0;" parent="M_aF5nF9O-DdfVQEBDeR-25" vertex="1">
          <mxGeometry y="56" width="186" height="30" as="geometry" />
        </mxCell>
        <mxCell id="FmqXsOVbyBLf8n7mqnHW-7" value="payrollId(FK)" style="text;strokeColor=none;fillColor=none;spacingLeft=4;spacingRight=4;overflow=hidden;rotatable=0;points=[[0,0.5],[1,0.5]];portConstraint=eastwest;fontSize=16;rounded=0;" parent="M_aF5nF9O-DdfVQEBDeR-25" vertex="1">
          <mxGeometry y="86" width="186" height="30" as="geometry" />
        </mxCell>
        <mxCell id="FmqXsOVbyBLf8n7mqnHW-1" value="createdById(FK)" style="text;strokeColor=none;fillColor=none;spacingLeft=4;spacingRight=4;overflow=hidden;rotatable=0;points=[[0,0.5],[1,0.5]];portConstraint=eastwest;fontSize=16;rounded=0;" parent="M_aF5nF9O-DdfVQEBDeR-25" vertex="1">
          <mxGeometry y="116" width="186" height="30" as="geometry" />
        </mxCell>
        <mxCell id="M_aF5nF9O-DdfVQEBDeR-51" value="modifiedById(FK)" style="text;strokeColor=none;fillColor=none;spacingLeft=4;spacingRight=4;overflow=hidden;rotatable=0;points=[[0,0.5],[1,0.5]];portConstraint=eastwest;fontSize=16;rounded=0;" parent="M_aF5nF9O-DdfVQEBDeR-25" vertex="1">
          <mxGeometry y="146" width="186" height="30" as="geometry" />
        </mxCell>
        <mxCell id="M_aF5nF9O-DdfVQEBDeR-28" value="type:varchar" style="text;strokeColor=none;fillColor=none;spacingLeft=4;spacingRight=4;overflow=hidden;rotatable=0;points=[[0,0.5],[1,0.5]];portConstraint=eastwest;fontSize=16;rounded=0;" parent="M_aF5nF9O-DdfVQEBDeR-25" vertex="1">
          <mxGeometry y="176" width="186" height="30" as="geometry" />
        </mxCell>
        <mxCell id="feHwKzw-YmLR5Ry-FtMv-100" value="status: booleano " style="text;strokeColor=none;fillColor=none;spacingLeft=4;spacingRight=4;overflow=hidden;rotatable=0;points=[[0,0.5],[1,0.5]];portConstraint=eastwest;fontSize=16;rounded=0;" parent="M_aF5nF9O-DdfVQEBDeR-25" vertex="1">
          <mxGeometry y="206" width="186" height="30" as="geometry" />
        </mxCell>
        <mxCell id="M_aF5nF9O-DdfVQEBDeR-37" value="dateCreation:date" style="text;strokeColor=none;fillColor=none;spacingLeft=4;spacingRight=4;overflow=hidden;rotatable=0;points=[[0,0.5],[1,0.5]];portConstraint=eastwest;fontSize=16;rounded=0;" parent="M_aF5nF9O-DdfVQEBDeR-25" vertex="1">
          <mxGeometry y="236" width="186" height="30" as="geometry" />
        </mxCell>
        <mxCell id="M_aF5nF9O-DdfVQEBDeR-39" value="dateModified:date" style="text;strokeColor=none;fillColor=none;spacingLeft=4;spacingRight=4;overflow=hidden;rotatable=0;points=[[0,0.5],[1,0.5]];portConstraint=eastwest;fontSize=16;rounded=0;" parent="M_aF5nF9O-DdfVQEBDeR-25" vertex="1">
          <mxGeometry y="266" width="186" height="30" as="geometry" />
        </mxCell>
        <mxCell id="M_aF5nF9O-DdfVQEBDeR-59" value="" style="edgeStyle=orthogonalEdgeStyle;fontSize=16;html=1;endArrow=ERzeroToMany;startArrow=ERzeroToOne;rounded=0;" parent="1" source="M_aF5nF9O-DdfVQEBDeR-14" target="M_aF5nF9O-DdfVQEBDeR-36" edge="1">
          <mxGeometry width="100" height="100" relative="1" as="geometry">
            <mxPoint x="200" y="140" as="sourcePoint" />
            <mxPoint x="260" y="200" as="targetPoint" />
          </mxGeometry>
        </mxCell>
        <mxCell id="FmqXsOVbyBLf8n7mqnHW-2" value="admPayroll" style="swimlane;fontStyle=0;childLayout=stackLayout;horizontal=1;startSize=30;horizontalStack=0;resizeParent=1;resizeParentMax=0;resizeLast=0;collapsible=1;marginBottom=0;whiteSpace=wrap;html=1;fontSize=16;rounded=0;" parent="1" vertex="1">
          <mxGeometry x="660" y="130" width="150" height="120" as="geometry" />
        </mxCell>
        <mxCell id="FmqXsOVbyBLf8n7mqnHW-6" value="id" style="text;strokeColor=none;fillColor=none;align=left;verticalAlign=middle;spacingLeft=4;spacingRight=4;overflow=hidden;points=[[0,0.5],[1,0.5]];portConstraint=eastwest;rotatable=0;whiteSpace=wrap;html=1;fontSize=16;rounded=0;" parent="FmqXsOVbyBLf8n7mqnHW-2" vertex="1">
          <mxGeometry y="30" width="150" height="30" as="geometry" />
        </mxCell>
        <mxCell id="FmqXsOVbyBLf8n7mqnHW-3" value="costCenterId(FK)" style="text;strokeColor=none;fillColor=none;align=left;verticalAlign=middle;spacingLeft=4;spacingRight=4;overflow=hidden;points=[[0,0.5],[1,0.5]];portConstraint=eastwest;rotatable=0;whiteSpace=wrap;html=1;fontSize=16;rounded=0;" parent="FmqXsOVbyBLf8n7mqnHW-2" vertex="1">
          <mxGeometry y="60" width="150" height="30" as="geometry" />
        </mxCell>
        <mxCell id="FmqXsOVbyBLf8n7mqnHW-4" value="payroll:string" style="text;strokeColor=none;fillColor=none;align=left;verticalAlign=middle;spacingLeft=4;spacingRight=4;overflow=hidden;points=[[0,0.5],[1,0.5]];portConstraint=eastwest;rotatable=0;whiteSpace=wrap;html=1;fontSize=16;rounded=0;" parent="FmqXsOVbyBLf8n7mqnHW-2" vertex="1">
          <mxGeometry y="90" width="150" height="30" as="geometry" />
        </mxCell>
        <mxCell id="FmqXsOVbyBLf8n7mqnHW-13" value="" style="edgeStyle=orthogonalEdgeStyle;fontSize=12;html=1;endArrow=ERmandOne;startArrow=ERmandOne;rounded=0;entryX=-0.013;entryY=0.3;entryDx=0;entryDy=0;entryPerimeter=0;" parent="1" source="FmqXsOVbyBLf8n7mqnHW-7" target="FmqXsOVbyBLf8n7mqnHW-3" edge="1">
          <mxGeometry width="100" height="100" relative="1" as="geometry">
            <mxPoint x="270" y="231.0588235294117" as="sourcePoint" />
            <mxPoint x="580" y="80" as="targetPoint" />
            <Array as="points">
              <mxPoint x="500" y="271" />
              <mxPoint x="500" y="230" />
              <mxPoint x="528" y="230" />
            </Array>
          </mxGeometry>
        </mxCell>
        <mxCell id="FmqXsOVbyBLf8n7mqnHW-19" value="dayDetail" style="swimlane;fontStyle=0;childLayout=stackLayout;horizontal=1;startSize=26;horizontalStack=0;resizeParent=1;resizeParentMax=0;resizeLast=0;collapsible=1;marginBottom=0;align=center;fontSize=16;rounded=0;" parent="1" vertex="1">
          <mxGeometry x="680" y="439" width="160" height="146" as="geometry" />
        </mxCell>
        <mxCell id="FmqXsOVbyBLf8n7mqnHW-20" value="id" style="text;strokeColor=none;fillColor=none;spacingLeft=4;spacingRight=4;overflow=hidden;rotatable=0;points=[[0,0.5],[1,0.5]];portConstraint=eastwest;fontSize=16;rounded=0;" parent="FmqXsOVbyBLf8n7mqnHW-19" vertex="1">
          <mxGeometry y="26" width="160" height="30" as="geometry" />
        </mxCell>
        <mxCell id="FmqXsOVbyBLf8n7mqnHW-35" value="weekDetailId(FK)" style="text;strokeColor=none;fillColor=none;align=left;verticalAlign=middle;spacingLeft=4;spacingRight=4;overflow=hidden;points=[[0,0.5],[1,0.5]];portConstraint=eastwest;rotatable=0;whiteSpace=wrap;html=1;fontSize=16;rounded=0;" parent="FmqXsOVbyBLf8n7mqnHW-19" vertex="1">
          <mxGeometry y="56" width="160" height="30" as="geometry" />
        </mxCell>
        <mxCell id="FmqXsOVbyBLf8n7mqnHW-28" value="dateIncidence:date" style="text;strokeColor=none;fillColor=none;align=left;verticalAlign=middle;spacingLeft=4;spacingRight=4;overflow=hidden;points=[[0,0.5],[1,0.5]];portConstraint=eastwest;rotatable=0;whiteSpace=wrap;html=1;fontSize=16;rounded=0;" parent="FmqXsOVbyBLf8n7mqnHW-19" vertex="1">
          <mxGeometry y="86" width="160" height="30" as="geometry" />
        </mxCell>
        <mxCell id="FmqXsOVbyBLf8n7mqnHW-22" value="comments: varchar" style="text;strokeColor=none;fillColor=none;spacingLeft=4;spacingRight=4;overflow=hidden;rotatable=0;points=[[0,0.5],[1,0.5]];portConstraint=eastwest;fontSize=16;rounded=0;" parent="FmqXsOVbyBLf8n7mqnHW-19" vertex="1">
          <mxGeometry y="116" width="160" height="30" as="geometry" />
        </mxCell>
        <mxCell id="FmqXsOVbyBLf8n7mqnHW-24" value="" style="edgeStyle=orthogonalEdgeStyle;fontSize=12;html=1;endArrow=ERzeroToMany;startArrow=ERmandOne;rounded=0;entryX=-0.005;entryY=0.267;entryDx=0;entryDy=0;entryPerimeter=0;" parent="1" source="M_aF5nF9O-DdfVQEBDeR-30" target="M_aF5nF9O-DdfVQEBDeR-24" edge="1">
          <mxGeometry width="100" height="100" relative="1" as="geometry">
            <mxPoint x="620" y="420" as="sourcePoint" />
            <mxPoint x="720" y="320" as="targetPoint" />
          </mxGeometry>
        </mxCell>
        <mxCell id="FmqXsOVbyBLf8n7mqnHW-26" value="" style="edgeStyle=orthogonalEdgeStyle;fontSize=16;html=1;endArrow=ERzeroToMany;startArrow=ERzeroToOne;rounded=0;exitX=1;exitY=0.5;exitDx=0;exitDy=0;entryX=0.75;entryY=0;entryDx=0;entryDy=0;" parent="1" source="FmqXsOVbyBLf8n7mqnHW-25" target="FmqXsOVbyBLf8n7mqnHW-19" edge="1">
          <mxGeometry width="100" height="100" relative="1" as="geometry">
            <mxPoint x="740" y="468" as="sourcePoint" />
            <mxPoint x="840" y="368" as="targetPoint" />
            <Array as="points">
              <mxPoint x="660" y="410" />
              <mxPoint x="800" y="410" />
            </Array>
          </mxGeometry>
        </mxCell>
        <mxCell id="RLkpurQ1pF624WPWIBCw-4" value="incidence" style="swimlane;fontStyle=0;childLayout=stackLayout;horizontal=1;startSize=30;horizontalStack=0;resizeParent=1;resizeParentMax=0;resizeLast=0;collapsible=1;marginBottom=0;whiteSpace=wrap;html=1;fontSize=16;rounded=0;" parent="1" vertex="1">
          <mxGeometry x="890" y="530" width="190" height="210" as="geometry" />
        </mxCell>
        <mxCell id="RLkpurQ1pF624WPWIBCw-5" value="id" style="text;strokeColor=none;fillColor=none;align=left;verticalAlign=middle;spacingLeft=4;spacingRight=4;overflow=hidden;points=[[0,0.5],[1,0.5]];portConstraint=eastwest;rotatable=0;whiteSpace=wrap;html=1;fontSize=16;rounded=0;" parent="RLkpurQ1pF624WPWIBCw-4" vertex="1">
          <mxGeometry y="30" width="190" height="30" as="geometry" />
        </mxCell>
        <mxCell id="RLkpurQ1pF624WPWIBCw-6" value="dayDetailId(FK)" style="text;strokeColor=none;fillColor=none;align=left;verticalAlign=middle;spacingLeft=4;spacingRight=4;overflow=hidden;points=[[0,0.5],[1,0.5]];portConstraint=eastwest;rotatable=0;whiteSpace=wrap;html=1;fontSize=16;rounded=0;" parent="RLkpurQ1pF624WPWIBCw-4" vertex="1">
          <mxGeometry y="60" width="190" height="30" as="geometry" />
        </mxCell>
        <mxCell id="RLkpurQ1pF624WPWIBCw-7" value="incedenceType:varchar" style="text;strokeColor=none;fillColor=none;align=left;verticalAlign=middle;spacingLeft=4;spacingRight=4;overflow=hidden;points=[[0,0.5],[1,0.5]];portConstraint=eastwest;rotatable=0;whiteSpace=wrap;html=1;fontSize=16;rounded=0;" parent="RLkpurQ1pF624WPWIBCw-4" vertex="1">
          <mxGeometry y="90" width="190" height="30" as="geometry" />
        </mxCell>
        <mxCell id="RLkpurQ1pF624WPWIBCw-8" value="timeVariable:varchar" style="text;strokeColor=none;fillColor=none;align=left;verticalAlign=middle;spacingLeft=4;spacingRight=4;overflow=hidden;points=[[0,0.5],[1,0.5]];portConstraint=eastwest;rotatable=0;whiteSpace=wrap;html=1;fontSize=16;rounded=0;" parent="RLkpurQ1pF624WPWIBCw-4" vertex="1">
          <mxGeometry y="120" width="190" height="30" as="geometry" />
        </mxCell>
        <mxCell id="RLkpurQ1pF624WPWIBCw-9" value="value:int" style="text;strokeColor=none;fillColor=none;align=left;verticalAlign=middle;spacingLeft=4;spacingRight=4;overflow=hidden;points=[[0,0.5],[1,0.5]];portConstraint=eastwest;rotatable=0;whiteSpace=wrap;html=1;fontSize=16;rounded=0;" parent="RLkpurQ1pF624WPWIBCw-4" vertex="1">
          <mxGeometry y="150" width="190" height="30" as="geometry" />
        </mxCell>
        <mxCell id="Sk1X4M4M02ybs9BoksH8-1" value="status:booleano" style="text;strokeColor=none;fillColor=none;align=left;verticalAlign=middle;spacingLeft=4;spacingRight=4;overflow=hidden;points=[[0,0.5],[1,0.5]];portConstraint=eastwest;rotatable=0;whiteSpace=wrap;html=1;fontSize=16;rounded=0;" parent="RLkpurQ1pF624WPWIBCw-4" vertex="1">
          <mxGeometry y="180" width="190" height="30" as="geometry" />
        </mxCell>
        <mxCell id="RLkpurQ1pF624WPWIBCw-10" value="" style="edgeStyle=orthogonalEdgeStyle;fontSize=16;html=1;endArrow=ERzeroToMany;startArrow=ERmandOne;rounded=0;startSize=8;endSize=8;entryX=0;entryY=0.667;entryDx=0;entryDy=0;entryPerimeter=0;strokeColor=default;" parent="1" source="FmqXsOVbyBLf8n7mqnHW-28" target="RLkpurQ1pF624WPWIBCw-6" edge="1">
          <mxGeometry width="100" height="100" relative="1" as="geometry">
            <mxPoint x="1020" y="670" as="sourcePoint" />
            <mxPoint x="1120" y="570" as="targetPoint" />
          </mxGeometry>
        </mxCell>
        <mxCell id="E9J_55T0kSxQ2tCfmRDK-1" value="headerRequestsIncidence&amp;nbsp;&amp;nbsp;" style="swimlane;fontStyle=0;childLayout=stackLayout;horizontal=1;startSize=30;horizontalStack=0;resizeParent=1;resizeParentMax=0;resizeLast=0;collapsible=1;marginBottom=0;whiteSpace=wrap;html=1;fontSize=16;rounded=0;fillColor=#d5e8d4;strokeColor=#82b366;" parent="1" vertex="1">
          <mxGeometry x="1710" y="280" width="210" height="270" as="geometry" />
        </mxCell>
        <mxCell id="E9J_55T0kSxQ2tCfmRDK-6" value="id" style="text;strokeColor=none;fillColor=none;align=left;verticalAlign=middle;spacingLeft=4;spacingRight=4;overflow=hidden;points=[[0,0.5],[1,0.5]];portConstraint=eastwest;rotatable=0;whiteSpace=wrap;html=1;fontSize=16;rounded=0;" parent="E9J_55T0kSxQ2tCfmRDK-1" vertex="1">
          <mxGeometry y="30" width="210" height="30" as="geometry" />
        </mxCell>
        <mxCell id="feHwKzw-YmLR5Ry-FtMv-38" value="incidenceAdministrationId(FK)" style="text;align=left;verticalAlign=middle;spacingLeft=4;spacingRight=4;overflow=hidden;points=[[0,0.5],[1,0.5]];portConstraint=eastwest;rotatable=0;whiteSpace=wrap;html=1;fontSize=16;rounded=0;fillColor=#fff2cc;strokeColor=#d6b656;" parent="E9J_55T0kSxQ2tCfmRDK-1" vertex="1">
          <mxGeometry y="60" width="210" height="30" as="geometry" />
        </mxCell>
        <mxCell id="E9J_55T0kSxQ2tCfmRDK-4" value="createdById(FK)" style="text;strokeColor=none;fillColor=none;align=left;verticalAlign=middle;spacingLeft=4;spacingRight=4;overflow=hidden;points=[[0,0.5],[1,0.5]];portConstraint=eastwest;rotatable=0;whiteSpace=wrap;html=1;fontSize=16;rounded=0;" parent="E9J_55T0kSxQ2tCfmRDK-1" vertex="1">
          <mxGeometry y="90" width="210" height="30" as="geometry" />
        </mxCell>
        <mxCell id="feHwKzw-YmLR5Ry-FtMv-40" value="status: booleano" style="text;strokeColor=none;fillColor=none;align=left;verticalAlign=middle;spacingLeft=4;spacingRight=4;overflow=hidden;points=[[0,0.5],[1,0.5]];portConstraint=eastwest;rotatable=0;whiteSpace=wrap;html=1;fontSize=16;rounded=0;" parent="E9J_55T0kSxQ2tCfmRDK-1" vertex="1">
          <mxGeometry y="120" width="210" height="30" as="geometry" />
        </mxCell>
        <mxCell id="E9J_55T0kSxQ2tCfmRDK-3" value="modifiedById(FK)" style="text;strokeColor=none;fillColor=none;align=left;verticalAlign=middle;spacingLeft=4;spacingRight=4;overflow=hidden;points=[[0,0.5],[1,0.5]];portConstraint=eastwest;rotatable=0;whiteSpace=wrap;html=1;fontSize=16;rounded=0;" parent="E9J_55T0kSxQ2tCfmRDK-1" vertex="1">
          <mxGeometry y="150" width="210" height="30" as="geometry" />
        </mxCell>
        <mxCell id="E9J_55T0kSxQ2tCfmRDK-5" value="modifiedDate: date" style="text;strokeColor=none;fillColor=none;align=left;verticalAlign=middle;spacingLeft=4;spacingRight=4;overflow=hidden;points=[[0,0.5],[1,0.5]];portConstraint=eastwest;rotatable=0;whiteSpace=wrap;html=1;fontSize=16;rounded=0;" parent="E9J_55T0kSxQ2tCfmRDK-1" vertex="1">
          <mxGeometry y="180" width="210" height="30" as="geometry" />
        </mxCell>
        <mxCell id="feHwKzw-YmLR5Ry-FtMv-41" value="comments: varchar" style="text;strokeColor=none;fillColor=none;align=left;verticalAlign=middle;spacingLeft=4;spacingRight=4;overflow=hidden;points=[[0,0.5],[1,0.5]];portConstraint=eastwest;rotatable=0;whiteSpace=wrap;html=1;fontSize=16;rounded=0;" parent="E9J_55T0kSxQ2tCfmRDK-1" vertex="1">
          <mxGeometry y="210" width="210" height="30" as="geometry" />
        </mxCell>
        <mxCell id="T4ZBnCOhLlxqjMBVBiQt-2" value="createdDate:date" style="text;strokeColor=none;fillColor=none;align=left;verticalAlign=middle;spacingLeft=4;spacingRight=4;overflow=hidden;points=[[0,0.5],[1,0.5]];portConstraint=eastwest;rotatable=0;whiteSpace=wrap;html=1;fontSize=16;rounded=0;" parent="E9J_55T0kSxQ2tCfmRDK-1" vertex="1">
          <mxGeometry y="240" width="210" height="30" as="geometry" />
        </mxCell>
        <mxCell id="feHwKzw-YmLR5Ry-FtMv-1" value="incidenceAdministration" style="swimlane;fontStyle=0;childLayout=stackLayout;horizontal=1;startSize=30;horizontalStack=0;resizeParent=1;resizeParentMax=0;resizeLast=0;collapsible=1;marginBottom=0;whiteSpace=wrap;html=1;fontSize=16;rounded=0;fillColor=#d5e8d4;strokeColor=#82b366;" parent="1" vertex="1">
          <mxGeometry x="1190" y="90" width="230" height="360" as="geometry" />
        </mxCell>
        <mxCell id="feHwKzw-YmLR5Ry-FtMv-2" value="id" style="text;strokeColor=none;fillColor=none;align=left;verticalAlign=middle;spacingLeft=4;spacingRight=4;overflow=hidden;points=[[0,0.5],[1,0.5]];portConstraint=eastwest;rotatable=0;whiteSpace=wrap;html=1;fontSize=16;rounded=0;" parent="feHwKzw-YmLR5Ry-FtMv-1" vertex="1">
          <mxGeometry y="30" width="230" height="30" as="geometry" />
        </mxCell>
        <mxCell id="feHwKzw-YmLR5Ry-FtMv-6" value="costCenterId(FK)" style="text;strokeColor=none;fillColor=none;align=left;verticalAlign=middle;spacingLeft=4;spacingRight=4;overflow=hidden;points=[[0,0.5],[1,0.5]];portConstraint=eastwest;rotatable=0;whiteSpace=wrap;html=1;fontSize=16;rounded=0;" parent="feHwKzw-YmLR5Ry-FtMv-1" vertex="1">
          <mxGeometry y="60" width="230" height="30" as="geometry" />
        </mxCell>
        <mxCell id="feHwKzw-YmLR5Ry-FtMv-3" value="limitHoursMonth: int" style="text;strokeColor=#d6b656;fillColor=#fff2cc;align=left;verticalAlign=middle;spacingLeft=4;spacingRight=4;overflow=hidden;points=[[0,0.5],[1,0.5]];portConstraint=eastwest;rotatable=0;whiteSpace=wrap;html=1;fontSize=16;rounded=0;" parent="feHwKzw-YmLR5Ry-FtMv-1" vertex="1">
          <mxGeometry y="90" width="230" height="30" as="geometry" />
        </mxCell>
        <mxCell id="feHwKzw-YmLR5Ry-FtMv-4" value="limitHoursWeekEmployee:int" style="text;strokeColor=#d6b656;fillColor=#fff2cc;align=left;verticalAlign=middle;spacingLeft=4;spacingRight=4;overflow=hidden;points=[[0,0.5],[1,0.5]];portConstraint=eastwest;rotatable=0;whiteSpace=wrap;html=1;fontSize=16;rounded=0;" parent="feHwKzw-YmLR5Ry-FtMv-1" vertex="1">
          <mxGeometry y="120" width="230" height="30" as="geometry" />
        </mxCell>
        <mxCell id="feHwKzw-YmLR5Ry-FtMv-7" value="directorId(FK)" style="text;strokeColor=none;fillColor=none;align=left;verticalAlign=middle;spacingLeft=4;spacingRight=4;overflow=hidden;points=[[0,0.5],[1,0.5]];portConstraint=eastwest;rotatable=0;whiteSpace=wrap;html=1;fontSize=16;rounded=0;" parent="feHwKzw-YmLR5Ry-FtMv-1" vertex="1">
          <mxGeometry y="150" width="230" height="30" as="geometry" />
        </mxCell>
        <mxCell id="feHwKzw-YmLR5Ry-FtMv-8" value="managerId(FK)" style="text;strokeColor=none;fillColor=none;align=left;verticalAlign=middle;spacingLeft=4;spacingRight=4;overflow=hidden;points=[[0,0.5],[1,0.5]];portConstraint=eastwest;rotatable=0;whiteSpace=wrap;html=1;fontSize=16;rounded=0;" parent="feHwKzw-YmLR5Ry-FtMv-1" vertex="1">
          <mxGeometry y="180" width="230" height="30" as="geometry" />
        </mxCell>
        <mxCell id="feHwKzw-YmLR5Ry-FtMv-10" value="supervisorId(FK)" style="text;strokeColor=none;fillColor=none;align=left;verticalAlign=middle;spacingLeft=4;spacingRight=4;overflow=hidden;points=[[0,0.5],[1,0.5]];portConstraint=eastwest;rotatable=0;whiteSpace=wrap;html=1;fontSize=16;rounded=0;" parent="feHwKzw-YmLR5Ry-FtMv-1" vertex="1">
          <mxGeometry y="210" width="230" height="30" as="geometry" />
        </mxCell>
        <mxCell id="feHwKzw-YmLR5Ry-FtMv-11" value="modifiedById(FK)" style="text;strokeColor=none;fillColor=none;align=left;verticalAlign=middle;spacingLeft=4;spacingRight=4;overflow=hidden;points=[[0,0.5],[1,0.5]];portConstraint=eastwest;rotatable=0;whiteSpace=wrap;html=1;fontSize=16;rounded=0;" parent="feHwKzw-YmLR5Ry-FtMv-1" vertex="1">
          <mxGeometry y="240" width="230" height="30" as="geometry" />
        </mxCell>
        <mxCell id="feHwKzw-YmLR5Ry-FtMv-12" value="createdById(FK)&amp;nbsp;" style="text;strokeColor=none;fillColor=none;align=left;verticalAlign=middle;spacingLeft=4;spacingRight=4;overflow=hidden;points=[[0,0.5],[1,0.5]];portConstraint=eastwest;rotatable=0;whiteSpace=wrap;html=1;fontSize=16;rounded=0;" parent="feHwKzw-YmLR5Ry-FtMv-1" vertex="1">
          <mxGeometry y="270" width="230" height="30" as="geometry" />
        </mxCell>
        <mxCell id="feHwKzw-YmLR5Ry-FtMv-13" value="createdDate: date" style="text;strokeColor=none;fillColor=none;align=left;verticalAlign=middle;spacingLeft=4;spacingRight=4;overflow=hidden;points=[[0,0.5],[1,0.5]];portConstraint=eastwest;rotatable=0;whiteSpace=wrap;html=1;fontSize=16;rounded=0;" parent="feHwKzw-YmLR5Ry-FtMv-1" vertex="1">
          <mxGeometry y="300" width="230" height="30" as="geometry" />
        </mxCell>
        <mxCell id="7Zdxn6Y-QrJcz-LZSxDB-2" value="modifiedDate: date" style="text;strokeColor=none;fillColor=none;align=left;verticalAlign=middle;spacingLeft=4;spacingRight=4;overflow=hidden;points=[[0,0.5],[1,0.5]];portConstraint=eastwest;rotatable=0;whiteSpace=wrap;html=1;fontSize=16;rounded=0;" parent="feHwKzw-YmLR5Ry-FtMv-1" vertex="1">
          <mxGeometry y="330" width="230" height="30" as="geometry" />
        </mxCell>
        <mxCell id="feHwKzw-YmLR5Ry-FtMv-15" value="overtimeAdministration" style="swimlane;fontStyle=0;childLayout=stackLayout;horizontal=1;startSize=40;horizontalStack=0;resizeParent=1;resizeParentMax=0;resizeLast=0;collapsible=1;marginBottom=0;whiteSpace=wrap;html=1;fontSize=16;rounded=0;" parent="1" vertex="1">
          <mxGeometry x="1580" y="10" width="220" height="250" as="geometry" />
        </mxCell>
        <mxCell id="feHwKzw-YmLR5Ry-FtMv-16" value="id" style="text;strokeColor=none;fillColor=none;align=left;verticalAlign=middle;spacingLeft=4;spacingRight=4;overflow=hidden;points=[[0,0.5],[1,0.5]];portConstraint=eastwest;rotatable=0;whiteSpace=wrap;html=1;fontSize=16;rounded=0;" parent="feHwKzw-YmLR5Ry-FtMv-15" vertex="1">
          <mxGeometry y="40" width="220" height="30" as="geometry" />
        </mxCell>
        <mxCell id="feHwKzw-YmLR5Ry-FtMv-18" value="costCentertIncidenceId(FK)" style="text;strokeColor=none;fillColor=none;align=left;verticalAlign=middle;spacingLeft=4;spacingRight=4;overflow=hidden;points=[[0,0.5],[1,0.5]];portConstraint=eastwest;rotatable=0;whiteSpace=wrap;html=1;fontSize=16;rounded=0;" parent="feHwKzw-YmLR5Ry-FtMv-15" vertex="1">
          <mxGeometry y="70" width="220" height="30" as="geometry" />
        </mxCell>
        <mxCell id="feHwKzw-YmLR5Ry-FtMv-21" value="action:int" style="text;strokeColor=none;fillColor=none;align=left;verticalAlign=middle;spacingLeft=4;spacingRight=4;overflow=hidden;points=[[0,0.5],[1,0.5]];portConstraint=eastwest;rotatable=0;whiteSpace=wrap;html=1;fontSize=16;rounded=0;" parent="feHwKzw-YmLR5Ry-FtMv-15" vertex="1">
          <mxGeometry y="100" width="220" height="30" as="geometry" />
        </mxCell>
        <mxCell id="feHwKzw-YmLR5Ry-FtMv-22" value="quantity: int" style="text;strokeColor=none;fillColor=none;align=left;verticalAlign=middle;spacingLeft=4;spacingRight=4;overflow=hidden;points=[[0,0.5],[1,0.5]];portConstraint=eastwest;rotatable=0;whiteSpace=wrap;html=1;fontSize=16;rounded=0;" parent="feHwKzw-YmLR5Ry-FtMv-15" vertex="1">
          <mxGeometry y="130" width="220" height="30" as="geometry" />
        </mxCell>
        <mxCell id="feHwKzw-YmLR5Ry-FtMv-23" value="comments: varchar" style="text;strokeColor=none;fillColor=none;align=left;verticalAlign=middle;spacingLeft=4;spacingRight=4;overflow=hidden;points=[[0,0.5],[1,0.5]];portConstraint=eastwest;rotatable=0;whiteSpace=wrap;html=1;fontSize=16;rounded=0;" parent="feHwKzw-YmLR5Ry-FtMv-15" vertex="1">
          <mxGeometry y="160" width="220" height="30" as="geometry" />
        </mxCell>
        <mxCell id="feHwKzw-YmLR5Ry-FtMv-14" value="modifiedDate: date" style="text;strokeColor=none;fillColor=none;align=left;verticalAlign=middle;spacingLeft=4;spacingRight=4;overflow=hidden;points=[[0,0.5],[1,0.5]];portConstraint=eastwest;rotatable=0;whiteSpace=wrap;html=1;fontSize=16;rounded=0;" parent="feHwKzw-YmLR5Ry-FtMv-15" vertex="1">
          <mxGeometry y="190" width="220" height="30" as="geometry" />
        </mxCell>
        <mxCell id="feHwKzw-YmLR5Ry-FtMv-99" value="modifiedById(FK)" style="text;strokeColor=none;fillColor=none;align=left;verticalAlign=middle;spacingLeft=4;spacingRight=4;overflow=hidden;points=[[0,0.5],[1,0.5]];portConstraint=eastwest;rotatable=0;whiteSpace=wrap;html=1;fontSize=16;rounded=0;" parent="feHwKzw-YmLR5Ry-FtMv-15" vertex="1">
          <mxGeometry y="220" width="220" height="30" as="geometry" />
        </mxCell>
        <mxCell id="feHwKzw-YmLR5Ry-FtMv-42" value="" style="edgeStyle=orthogonalEdgeStyle;fontSize=12;html=1;endArrow=ERoneToMany;startArrow=ERone;rounded=0;strokeColor=default;startSize=8;endSize=8;startFill=0;entryX=-0.001;entryY=0.683;entryDx=0;entryDy=0;entryPerimeter=0;exitX=1.007;exitY=0.819;exitDx=0;exitDy=0;exitPerimeter=0;" parent="1" source="feHwKzw-YmLR5Ry-FtMv-2" target="feHwKzw-YmLR5Ry-FtMv-38" edge="1">
          <mxGeometry width="100" height="100" relative="1" as="geometry">
            <mxPoint x="1710" y="360" as="sourcePoint" />
            <mxPoint x="1900" y="330" as="targetPoint" />
            <Array as="points">
              <mxPoint x="1530" y="145" />
              <mxPoint x="1530" y="330" />
              <mxPoint x="1620" y="330" />
              <mxPoint x="1620" y="361" />
            </Array>
          </mxGeometry>
        </mxCell>
        <mxCell id="feHwKzw-YmLR5Ry-FtMv-43" value="detailsRequestsIncidence" style="swimlane;fontStyle=0;childLayout=stackLayout;horizontal=1;startSize=30;horizontalStack=0;resizeParent=1;resizeParentMax=0;resizeLast=0;collapsible=1;marginBottom=0;whiteSpace=wrap;html=1;fontSize=16;rounded=0;fillColor=#d5e8d4;strokeColor=#82b366;" parent="1" vertex="1">
          <mxGeometry x="2021" y="320" width="280" height="390" as="geometry" />
        </mxCell>
        <mxCell id="feHwKzw-YmLR5Ry-FtMv-44" value="id" style="text;strokeColor=none;fillColor=none;align=left;verticalAlign=middle;spacingLeft=4;spacingRight=4;overflow=hidden;points=[[0,0.5],[1,0.5]];portConstraint=eastwest;rotatable=0;whiteSpace=wrap;html=1;fontSize=16;rounded=0;" parent="feHwKzw-YmLR5Ry-FtMv-43" vertex="1">
          <mxGeometry y="30" width="280" height="30" as="geometry" />
        </mxCell>
        <mxCell id="feHwKzw-YmLR5Ry-FtMv-45" value="headerRequestsIncidenceId(FK)&amp;nbsp;&amp;nbsp;" style="text;strokeColor=none;fillColor=none;align=left;verticalAlign=middle;spacingLeft=4;spacingRight=4;overflow=hidden;points=[[0,0.5],[1,0.5]];portConstraint=eastwest;rotatable=0;whiteSpace=wrap;html=1;fontSize=16;rounded=0;" parent="feHwKzw-YmLR5Ry-FtMv-43" vertex="1">
          <mxGeometry y="60" width="280" height="30" as="geometry" />
        </mxCell>
        <mxCell id="feHwKzw-YmLR5Ry-FtMv-67" value="unionizedEmployeeId(FK)" style="text;strokeColor=none;fillColor=none;align=left;verticalAlign=middle;spacingLeft=4;spacingRight=4;overflow=hidden;points=[[0,0.5],[1,0.5]];portConstraint=eastwest;rotatable=0;whiteSpace=wrap;html=1;fontSize=16;rounded=0;" parent="feHwKzw-YmLR5Ry-FtMv-43" vertex="1">
          <mxGeometry y="90" width="280" height="30" as="geometry" />
        </mxCell>
        <mxCell id="feHwKzw-YmLR5Ry-FtMv-68" value="incidenceId(FK)" style="text;strokeColor=none;fillColor=none;align=left;verticalAlign=middle;spacingLeft=4;spacingRight=4;overflow=hidden;points=[[0,0.5],[1,0.5]];portConstraint=eastwest;rotatable=0;whiteSpace=wrap;html=1;fontSize=16;rounded=0;" parent="feHwKzw-YmLR5Ry-FtMv-43" vertex="1">
          <mxGeometry y="120" width="280" height="30" as="geometry" />
        </mxCell>
        <mxCell id="feHwKzw-YmLR5Ry-FtMv-76" value="status:booleano" style="text;strokeColor=none;fillColor=none;align=left;verticalAlign=middle;spacingLeft=4;spacingRight=4;overflow=hidden;points=[[0,0.5],[1,0.5]];portConstraint=eastwest;rotatable=0;whiteSpace=wrap;html=1;fontSize=16;rounded=0;" parent="feHwKzw-YmLR5Ry-FtMv-43" vertex="1">
          <mxGeometry y="150" width="280" height="30" as="geometry" />
        </mxCell>
        <mxCell id="feHwKzw-YmLR5Ry-FtMv-70" value="incidenceDate:date&amp;nbsp;" style="text;strokeColor=none;fillColor=none;align=left;verticalAlign=middle;spacingLeft=4;spacingRight=4;overflow=hidden;points=[[0,0.5],[1,0.5]];portConstraint=eastwest;rotatable=0;whiteSpace=wrap;html=1;fontSize=16;rounded=0;" parent="feHwKzw-YmLR5Ry-FtMv-43" vertex="1">
          <mxGeometry y="180" width="280" height="30" as="geometry" />
        </mxCell>
        <mxCell id="feHwKzw-YmLR5Ry-FtMv-69" value="time: decimal" style="text;strokeColor=none;fillColor=none;align=left;verticalAlign=middle;spacingLeft=4;spacingRight=4;overflow=hidden;points=[[0,0.5],[1,0.5]];portConstraint=eastwest;rotatable=0;whiteSpace=wrap;html=1;fontSize=16;rounded=0;" parent="feHwKzw-YmLR5Ry-FtMv-43" vertex="1">
          <mxGeometry y="210" width="280" height="30" as="geometry" />
        </mxCell>
        <mxCell id="feHwKzw-YmLR5Ry-FtMv-71" value="comments: varchar" style="text;strokeColor=none;fillColor=none;align=left;verticalAlign=middle;spacingLeft=4;spacingRight=4;overflow=hidden;points=[[0,0.5],[1,0.5]];portConstraint=eastwest;rotatable=0;whiteSpace=wrap;html=1;fontSize=16;rounded=0;" parent="feHwKzw-YmLR5Ry-FtMv-43" vertex="1">
          <mxGeometry y="240" width="280" height="30" as="geometry" />
        </mxCell>
        <mxCell id="feHwKzw-YmLR5Ry-FtMv-72" value="createdById(FK)" style="text;strokeColor=none;fillColor=none;align=left;verticalAlign=middle;spacingLeft=4;spacingRight=4;overflow=hidden;points=[[0,0.5],[1,0.5]];portConstraint=eastwest;rotatable=0;whiteSpace=wrap;html=1;fontSize=16;rounded=0;" parent="feHwKzw-YmLR5Ry-FtMv-43" vertex="1">
          <mxGeometry y="270" width="280" height="30" as="geometry" />
        </mxCell>
        <mxCell id="feHwKzw-YmLR5Ry-FtMv-73" value="createdDate:date" style="text;strokeColor=none;fillColor=none;align=left;verticalAlign=middle;spacingLeft=4;spacingRight=4;overflow=hidden;points=[[0,0.5],[1,0.5]];portConstraint=eastwest;rotatable=0;whiteSpace=wrap;html=1;fontSize=16;rounded=0;" parent="feHwKzw-YmLR5Ry-FtMv-43" vertex="1">
          <mxGeometry y="300" width="280" height="30" as="geometry" />
        </mxCell>
        <mxCell id="feHwKzw-YmLR5Ry-FtMv-74" value="modifiedById(FK)" style="text;strokeColor=none;fillColor=none;align=left;verticalAlign=middle;spacingLeft=4;spacingRight=4;overflow=hidden;points=[[0,0.5],[1,0.5]];portConstraint=eastwest;rotatable=0;whiteSpace=wrap;html=1;fontSize=16;rounded=0;" parent="feHwKzw-YmLR5Ry-FtMv-43" vertex="1">
          <mxGeometry y="330" width="280" height="30" as="geometry" />
        </mxCell>
        <mxCell id="feHwKzw-YmLR5Ry-FtMv-75" value="modifiedDate:date" style="text;strokeColor=none;fillColor=none;align=left;verticalAlign=middle;spacingLeft=4;spacingRight=4;overflow=hidden;points=[[0,0.5],[1,0.5]];portConstraint=eastwest;rotatable=0;whiteSpace=wrap;html=1;fontSize=16;rounded=0;" parent="feHwKzw-YmLR5Ry-FtMv-43" vertex="1">
          <mxGeometry y="360" width="280" height="30" as="geometry" />
        </mxCell>
        <mxCell id="feHwKzw-YmLR5Ry-FtMv-49" value="unionizedEmployee" style="swimlane;fontStyle=0;childLayout=stackLayout;horizontal=1;startSize=20;horizontalStack=0;resizeParent=1;resizeParentMax=0;resizeLast=0;collapsible=1;marginBottom=0;whiteSpace=wrap;html=1;rounded=0;arcSize=17;fontSize=16;fillColor=#d5e8d4;strokeColor=#82b366;" parent="1" vertex="1">
          <mxGeometry x="2380" y="90" width="251" height="350" as="geometry">
            <mxRectangle x="-210" y="260" width="90" height="30" as="alternateBounds" />
          </mxGeometry>
        </mxCell>
        <mxCell id="feHwKzw-YmLR5Ry-FtMv-50" value="id" style="text;strokeColor=none;fillColor=none;align=left;verticalAlign=middle;spacingLeft=4;spacingRight=4;overflow=hidden;points=[[0,0.5],[1,0.5]];portConstraint=eastwest;rotatable=0;whiteSpace=wrap;html=1;fontSize=16;rounded=0;" parent="feHwKzw-YmLR5Ry-FtMv-49" vertex="1">
          <mxGeometry y="20" width="251" height="30" as="geometry" />
        </mxCell>
        <mxCell id="feHwKzw-YmLR5Ry-FtMv-51" value="numberPayroll:int" style="text;strokeColor=none;fillColor=none;align=left;verticalAlign=middle;spacingLeft=4;spacingRight=4;overflow=hidden;points=[[0,0.5],[1,0.5]];portConstraint=eastwest;rotatable=0;whiteSpace=wrap;html=1;fontSize=16;rounded=0;" parent="feHwKzw-YmLR5Ry-FtMv-49" vertex="1">
          <mxGeometry y="50" width="251" height="30" as="geometry" />
        </mxCell>
        <mxCell id="feHwKzw-YmLR5Ry-FtMv-58" value="firstName:varchar" style="text;strokeColor=none;fillColor=none;align=left;verticalAlign=middle;spacingLeft=4;spacingRight=4;overflow=hidden;points=[[0,0.5],[1,0.5]];portConstraint=eastwest;rotatable=0;whiteSpace=wrap;html=1;fontSize=16;rounded=0;" parent="feHwKzw-YmLR5Ry-FtMv-49" vertex="1">
          <mxGeometry y="80" width="251" height="30" as="geometry" />
        </mxCell>
        <mxCell id="feHwKzw-YmLR5Ry-FtMv-60" value="middleName:varchar" style="text;strokeColor=none;fillColor=none;align=left;verticalAlign=middle;spacingLeft=4;spacingRight=4;overflow=hidden;points=[[0,0.5],[1,0.5]];portConstraint=eastwest;rotatable=0;whiteSpace=wrap;html=1;fontSize=16;rounded=0;" parent="feHwKzw-YmLR5Ry-FtMv-49" vertex="1">
          <mxGeometry y="110" width="251" height="30" as="geometry" />
        </mxCell>
        <mxCell id="feHwKzw-YmLR5Ry-FtMv-59" value="lastName:varchar" style="text;strokeColor=none;fillColor=none;align=left;verticalAlign=middle;spacingLeft=4;spacingRight=4;overflow=hidden;points=[[0,0.5],[1,0.5]];portConstraint=eastwest;rotatable=0;whiteSpace=wrap;html=1;fontSize=16;rounded=0;" parent="feHwKzw-YmLR5Ry-FtMv-49" vertex="1">
          <mxGeometry y="140" width="251" height="30" as="geometry" />
        </mxCell>
        <mxCell id="feHwKzw-YmLR5Ry-FtMv-61" value="costCenterName:varchar" style="text;strokeColor=none;fillColor=none;align=left;verticalAlign=middle;spacingLeft=4;spacingRight=4;overflow=hidden;points=[[0,0.5],[1,0.5]];portConstraint=eastwest;rotatable=0;whiteSpace=wrap;html=1;fontSize=16;rounded=0;" parent="feHwKzw-YmLR5Ry-FtMv-49" vertex="1">
          <mxGeometry y="170" width="251" height="30" as="geometry" />
        </mxCell>
        <mxCell id="feHwKzw-YmLR5Ry-FtMv-62" value="costCenter:varchar" style="text;strokeColor=none;fillColor=none;align=left;verticalAlign=middle;spacingLeft=4;spacingRight=4;overflow=hidden;points=[[0,0.5],[1,0.5]];portConstraint=eastwest;rotatable=0;whiteSpace=wrap;html=1;fontSize=16;rounded=0;" parent="feHwKzw-YmLR5Ry-FtMv-49" vertex="1">
          <mxGeometry y="200" width="251" height="30" as="geometry" />
        </mxCell>
        <mxCell id="7Zdxn6Y-QrJcz-LZSxDB-3" value="entryDate:date" style="text;strokeColor=none;fillColor=none;align=left;verticalAlign=middle;spacingLeft=4;spacingRight=4;overflow=hidden;points=[[0,0.5],[1,0.5]];portConstraint=eastwest;rotatable=0;whiteSpace=wrap;html=1;fontSize=16;rounded=0;" parent="feHwKzw-YmLR5Ry-FtMv-49" vertex="1">
          <mxGeometry y="230" width="251" height="30" as="geometry" />
        </mxCell>
        <mxCell id="7Zdxn6Y-QrJcz-LZSxDB-4" value="status:booleano" style="text;strokeColor=none;fillColor=none;align=left;verticalAlign=middle;spacingLeft=4;spacingRight=4;overflow=hidden;points=[[0,0.5],[1,0.5]];portConstraint=eastwest;rotatable=0;whiteSpace=wrap;html=1;fontSize=16;rounded=0;" parent="feHwKzw-YmLR5Ry-FtMv-49" vertex="1">
          <mxGeometry y="260" width="251" height="30" as="geometry" />
        </mxCell>
        <mxCell id="7Zdxn6Y-QrJcz-LZSxDB-5" value="updateById(FK)" style="text;strokeColor=none;fillColor=none;align=left;verticalAlign=middle;spacingLeft=4;spacingRight=4;overflow=hidden;points=[[0,0.5],[1,0.5]];portConstraint=eastwest;rotatable=0;whiteSpace=wrap;html=1;fontSize=16;rounded=0;" parent="feHwKzw-YmLR5Ry-FtMv-49" vertex="1">
          <mxGeometry y="290" width="251" height="30" as="geometry" />
        </mxCell>
        <mxCell id="7Zdxn6Y-QrJcz-LZSxDB-6" value="modifiedDate:date" style="text;strokeColor=none;fillColor=none;align=left;verticalAlign=middle;spacingLeft=4;spacingRight=4;overflow=hidden;points=[[0,0.5],[1,0.5]];portConstraint=eastwest;rotatable=0;whiteSpace=wrap;html=1;fontSize=16;rounded=0;" parent="feHwKzw-YmLR5Ry-FtMv-49" vertex="1">
          <mxGeometry y="320" width="251" height="30" as="geometry" />
        </mxCell>
        <mxCell id="feHwKzw-YmLR5Ry-FtMv-78" value="" style="edgeStyle=orthogonalEdgeStyle;fontSize=12;html=1;endArrow=ERoneToMany;startArrow=ERone;rounded=0;strokeColor=default;startSize=8;endSize=8;exitX=1;exitY=0.5;exitDx=0;exitDy=0;startFill=0;" parent="1" source="E9J_55T0kSxQ2tCfmRDK-6" target="feHwKzw-YmLR5Ry-FtMv-45" edge="1">
          <mxGeometry width="100" height="100" relative="1" as="geometry">
            <mxPoint x="2240" y="660" as="sourcePoint" />
            <mxPoint x="2340" y="560" as="targetPoint" />
          </mxGeometry>
        </mxCell>
        <mxCell id="feHwKzw-YmLR5Ry-FtMv-87" value="" style="edgeStyle=orthogonalEdgeStyle;fontSize=12;html=1;endArrow=ERoneToMany;startArrow=ERone;rounded=0;strokeColor=default;startSize=8;endSize=8;startFill=0;" parent="1" source="feHwKzw-YmLR5Ry-FtMv-50" target="feHwKzw-YmLR5Ry-FtMv-67" edge="1">
          <mxGeometry width="100" height="100" relative="1" as="geometry">
            <mxPoint x="2090" y="610" as="sourcePoint" />
            <mxPoint x="2190" y="510" as="targetPoint" />
          </mxGeometry>
        </mxCell>
        <mxCell id="feHwKzw-YmLR5Ry-FtMv-94" value="" style="edgeStyle=orthogonalEdgeStyle;fontSize=12;html=1;endArrow=ERmandOne;startArrow=ERmany;rounded=0;strokeColor=default;startSize=8;endSize=8;startFill=0;entryX=-0.005;entryY=0.1;entryDx=0;entryDy=0;entryPerimeter=0;" parent="1" source="feHwKzw-YmLR5Ry-FtMv-68" target="dtdD0uUaHfJ87B4ElsbL-15" edge="1">
          <mxGeometry width="100" height="100" relative="1" as="geometry">
            <mxPoint x="2460" y="810" as="sourcePoint" />
            <mxPoint x="2560" y="710" as="targetPoint" />
          </mxGeometry>
        </mxCell>
        <mxCell id="Sk1X4M4M02ybs9BoksH8-3" value="unionizedEmployee" style="swimlane;fontStyle=0;childLayout=stackLayout;horizontal=1;startSize=20;horizontalStack=0;resizeParent=1;resizeParentMax=0;resizeLast=0;collapsible=1;marginBottom=0;whiteSpace=wrap;html=1;rounded=0;arcSize=17;fontSize=16;" parent="1" vertex="1">
          <mxGeometry x="30" y="520" width="230" height="230" as="geometry">
            <mxRectangle x="-210" y="260" width="90" height="30" as="alternateBounds" />
          </mxGeometry>
        </mxCell>
        <mxCell id="Sk1X4M4M02ybs9BoksH8-4" value="id" style="text;strokeColor=none;fillColor=none;align=left;verticalAlign=middle;spacingLeft=4;spacingRight=4;overflow=hidden;points=[[0,0.5],[1,0.5]];portConstraint=eastwest;rotatable=0;whiteSpace=wrap;html=1;fontSize=16;rounded=0;" parent="Sk1X4M4M02ybs9BoksH8-3" vertex="1">
          <mxGeometry y="20" width="230" height="30" as="geometry" />
        </mxCell>
        <mxCell id="Sk1X4M4M02ybs9BoksH8-5" value="numberPayroll:int" style="text;strokeColor=none;fillColor=none;align=left;verticalAlign=middle;spacingLeft=4;spacingRight=4;overflow=hidden;points=[[0,0.5],[1,0.5]];portConstraint=eastwest;rotatable=0;whiteSpace=wrap;html=1;fontSize=16;rounded=0;" parent="Sk1X4M4M02ybs9BoksH8-3" vertex="1">
          <mxGeometry y="50" width="230" height="30" as="geometry" />
        </mxCell>
        <mxCell id="Sk1X4M4M02ybs9BoksH8-6" value="firstName:varchar" style="text;strokeColor=none;fillColor=none;align=left;verticalAlign=middle;spacingLeft=4;spacingRight=4;overflow=hidden;points=[[0,0.5],[1,0.5]];portConstraint=eastwest;rotatable=0;whiteSpace=wrap;html=1;fontSize=16;rounded=0;" parent="Sk1X4M4M02ybs9BoksH8-3" vertex="1">
          <mxGeometry y="80" width="230" height="30" as="geometry" />
        </mxCell>
        <mxCell id="Sk1X4M4M02ybs9BoksH8-7" value="middelName:varchar" style="text;strokeColor=none;fillColor=none;align=left;verticalAlign=middle;spacingLeft=4;spacingRight=4;overflow=hidden;points=[[0,0.5],[1,0.5]];portConstraint=eastwest;rotatable=0;whiteSpace=wrap;html=1;fontSize=16;rounded=0;" parent="Sk1X4M4M02ybs9BoksH8-3" vertex="1">
          <mxGeometry y="110" width="230" height="30" as="geometry" />
        </mxCell>
        <mxCell id="Sk1X4M4M02ybs9BoksH8-8" value="lastName:varchar" style="text;strokeColor=none;fillColor=none;align=left;verticalAlign=middle;spacingLeft=4;spacingRight=4;overflow=hidden;points=[[0,0.5],[1,0.5]];portConstraint=eastwest;rotatable=0;whiteSpace=wrap;html=1;fontSize=16;rounded=0;" parent="Sk1X4M4M02ybs9BoksH8-3" vertex="1">
          <mxGeometry y="140" width="230" height="30" as="geometry" />
        </mxCell>
        <mxCell id="Sk1X4M4M02ybs9BoksH8-9" value="constCenterName:varchar" style="text;strokeColor=none;fillColor=none;align=left;verticalAlign=middle;spacingLeft=4;spacingRight=4;overflow=hidden;points=[[0,0.5],[1,0.5]];portConstraint=eastwest;rotatable=0;whiteSpace=wrap;html=1;fontSize=16;rounded=0;" parent="Sk1X4M4M02ybs9BoksH8-3" vertex="1">
          <mxGeometry y="170" width="230" height="30" as="geometry" />
        </mxCell>
        <mxCell id="Sk1X4M4M02ybs9BoksH8-10" value="constCenter:int" style="text;strokeColor=none;fillColor=none;align=left;verticalAlign=middle;spacingLeft=4;spacingRight=4;overflow=hidden;points=[[0,0.5],[1,0.5]];portConstraint=eastwest;rotatable=0;whiteSpace=wrap;html=1;fontSize=16;rounded=0;" parent="Sk1X4M4M02ybs9BoksH8-3" vertex="1">
          <mxGeometry y="200" width="230" height="30" as="geometry" />
        </mxCell>
        <mxCell id="7Zdxn6Y-QrJcz-LZSxDB-1" style="edgeStyle=orthogonalEdgeStyle;rounded=0;orthogonalLoop=1;jettySize=auto;html=1;strokeColor=default;fontSize=16;startArrow=ERone;startFill=0;endArrow=ERmany;endFill=0;startSize=8;endSize=8;" parent="1" source="FmqXsOVbyBLf8n7mqnHW-25" target="Sk1X4M4M02ybs9BoksH8-4" edge="1">
          <mxGeometry relative="1" as="geometry">
            <Array as="points">
              <mxPoint x="450" y="445" />
              <mxPoint x="450" y="555" />
            </Array>
          </mxGeometry>
        </mxCell>
        <mxCell id="JIi5GgzoN4euooy1EAKl-1" value="administrationUnionizedEmployees" style="swimlane;fontStyle=0;childLayout=stackLayout;horizontal=1;startSize=30;horizontalStack=0;resizeParent=1;resizeParentMax=0;resizeLast=0;collapsible=1;marginBottom=0;whiteSpace=wrap;html=1;fontSize=16;rounded=0;fillColor=#d5e8d4;strokeColor=#82b366;" parent="1" vertex="1">
          <mxGeometry x="2790" y="190" width="270" height="150" as="geometry" />
        </mxCell>
        <mxCell id="JIi5GgzoN4euooy1EAKl-2" value="id" style="text;strokeColor=none;fillColor=none;align=left;verticalAlign=middle;spacingLeft=4;spacingRight=4;overflow=hidden;points=[[0,0.5],[1,0.5]];portConstraint=eastwest;rotatable=0;whiteSpace=wrap;html=1;fontSize=16;rounded=0;" parent="JIi5GgzoN4euooy1EAKl-1" vertex="1">
          <mxGeometry y="30" width="270" height="30" as="geometry" />
        </mxCell>
        <mxCell id="JIi5GgzoN4euooy1EAKl-3" value="path: string&amp;nbsp;" style="text;strokeColor=none;fillColor=none;align=left;verticalAlign=middle;spacingLeft=4;spacingRight=4;overflow=hidden;points=[[0,0.5],[1,0.5]];portConstraint=eastwest;rotatable=0;whiteSpace=wrap;html=1;fontSize=16;rounded=0;" parent="JIi5GgzoN4euooy1EAKl-1" vertex="1">
          <mxGeometry y="60" width="270" height="30" as="geometry" />
        </mxCell>
        <mxCell id="JIi5GgzoN4euooy1EAKl-5" value="updateById(FK)" style="text;strokeColor=none;fillColor=none;align=left;verticalAlign=middle;spacingLeft=4;spacingRight=4;overflow=hidden;points=[[0,0.5],[1,0.5]];portConstraint=eastwest;rotatable=0;whiteSpace=wrap;html=1;fontSize=16;rounded=0;" parent="JIi5GgzoN4euooy1EAKl-1" vertex="1">
          <mxGeometry y="90" width="270" height="30" as="geometry" />
        </mxCell>
        <mxCell id="JIi5GgzoN4euooy1EAKl-4" value="modificationDate: date&amp;nbsp;" style="text;align=left;verticalAlign=middle;spacingLeft=4;spacingRight=4;overflow=hidden;points=[[0,0.5],[1,0.5]];portConstraint=eastwest;rotatable=0;whiteSpace=wrap;html=1;fontSize=16;rounded=0;" parent="JIi5GgzoN4euooy1EAKl-1" vertex="1">
          <mxGeometry y="120" width="270" height="30" as="geometry" />
        </mxCell>
        <mxCell id="dtdD0uUaHfJ87B4ElsbL-3" value="detailsIncidence" style="swimlane;fontStyle=0;childLayout=stackLayout;horizontal=1;startSize=30;horizontalStack=0;resizeParent=1;resizeParentMax=0;resizeLast=0;collapsible=1;marginBottom=0;whiteSpace=wrap;html=1;fontSize=16;rounded=0;fillColor=#f8cecc;strokeColor=#b85450;" parent="1" vertex="1">
          <mxGeometry x="2840" y="520" width="190" height="150" as="geometry" />
        </mxCell>
        <mxCell id="dtdD0uUaHfJ87B4ElsbL-4" value="id" style="text;strokeColor=none;fillColor=none;align=left;verticalAlign=middle;spacingLeft=4;spacingRight=4;overflow=hidden;points=[[0,0.5],[1,0.5]];portConstraint=eastwest;rotatable=0;whiteSpace=wrap;html=1;fontSize=16;rounded=0;" parent="dtdD0uUaHfJ87B4ElsbL-3" vertex="1">
          <mxGeometry y="30" width="190" height="30" as="geometry" />
        </mxCell>
        <mxCell id="dtdD0uUaHfJ87B4ElsbL-11" value="incidenceId(FK)" style="text;strokeColor=none;fillColor=none;align=left;verticalAlign=middle;spacingLeft=4;spacingRight=4;overflow=hidden;points=[[0,0.5],[1,0.5]];portConstraint=eastwest;rotatable=0;whiteSpace=wrap;html=1;fontSize=16;rounded=0;" parent="dtdD0uUaHfJ87B4ElsbL-3" vertex="1">
          <mxGeometry y="60" width="190" height="30" as="geometry" />
        </mxCell>
        <mxCell id="dtdD0uUaHfJ87B4ElsbL-8" value="modifiedDate: date" style="text;strokeColor=none;fillColor=none;align=left;verticalAlign=middle;spacingLeft=4;spacingRight=4;overflow=hidden;points=[[0,0.5],[1,0.5]];portConstraint=eastwest;rotatable=0;whiteSpace=wrap;html=1;fontSize=16;rounded=0;" parent="dtdD0uUaHfJ87B4ElsbL-3" vertex="1">
          <mxGeometry y="90" width="190" height="30" as="geometry" />
        </mxCell>
        <mxCell id="dtdD0uUaHfJ87B4ElsbL-9" value="updatedById(FK)" style="text;strokeColor=none;fillColor=none;align=left;verticalAlign=middle;spacingLeft=4;spacingRight=4;overflow=hidden;points=[[0,0.5],[1,0.5]];portConstraint=eastwest;rotatable=0;whiteSpace=wrap;html=1;fontSize=16;rounded=0;" parent="dtdD0uUaHfJ87B4ElsbL-3" vertex="1">
          <mxGeometry y="120" width="190" height="30" as="geometry" />
        </mxCell>
        <mxCell id="dtdD0uUaHfJ87B4ElsbL-14" value="incidences" style="swimlane;fontStyle=0;childLayout=stackLayout;horizontal=1;startSize=30;horizontalStack=0;resizeParent=1;resizeParentMax=0;resizeLast=0;collapsible=1;marginBottom=0;whiteSpace=wrap;html=1;fontSize=16;rounded=0;fillColor=#f8cecc;strokeColor=#b85450;" parent="1" vertex="1">
          <mxGeometry x="2510" y="490" width="250" height="210" as="geometry" />
        </mxCell>
        <mxCell id="dtdD0uUaHfJ87B4ElsbL-15" value="id" style="text;strokeColor=none;fillColor=none;align=left;verticalAlign=middle;spacingLeft=4;spacingRight=4;overflow=hidden;points=[[0,0.5],[1,0.5]];portConstraint=eastwest;rotatable=0;whiteSpace=wrap;html=1;fontSize=16;rounded=0;" parent="dtdD0uUaHfJ87B4ElsbL-14" vertex="1">
          <mxGeometry y="30" width="250" height="30" as="geometry" />
        </mxCell>
        <mxCell id="dtdD0uUaHfJ87B4ElsbL-16" value="name: varchar(nombre)" style="text;strokeColor=none;fillColor=none;align=left;verticalAlign=middle;spacingLeft=4;spacingRight=4;overflow=hidden;points=[[0,0.5],[1,0.5]];portConstraint=eastwest;rotatable=0;whiteSpace=wrap;html=1;fontSize=16;rounded=0;" parent="dtdD0uUaHfJ87B4ElsbL-14" vertex="1">
          <mxGeometry y="60" width="250" height="30" as="geometry" />
        </mxCell>
        <mxCell id="dtdD0uUaHfJ87B4ElsbL-17" value="timeVariable: varchar(horas/días)" style="text;strokeColor=none;fillColor=none;align=left;verticalAlign=middle;spacingLeft=4;spacingRight=4;overflow=hidden;points=[[0,0.5],[1,0.5]];portConstraint=eastwest;rotatable=0;whiteSpace=wrap;html=1;fontSize=16;rounded=0;" parent="dtdD0uUaHfJ87B4ElsbL-14" vertex="1">
          <mxGeometry y="90" width="250" height="30" as="geometry" />
        </mxCell>
        <mxCell id="dtdD0uUaHfJ87B4ElsbL-18" value="type: varchar(abreviación)" style="text;strokeColor=none;fillColor=none;align=left;verticalAlign=middle;spacingLeft=4;spacingRight=4;overflow=hidden;points=[[0,0.5],[1,0.5]];portConstraint=eastwest;rotatable=0;whiteSpace=wrap;html=1;fontSize=16;rounded=0;" parent="dtdD0uUaHfJ87B4ElsbL-14" vertex="1">
          <mxGeometry y="120" width="250" height="30" as="geometry" />
        </mxCell>
        <mxCell id="dtdD0uUaHfJ87B4ElsbL-24" value="lowerLimit: int (timite inferior)" style="text;strokeColor=none;fillColor=none;align=left;verticalAlign=middle;spacingLeft=4;spacingRight=4;overflow=hidden;points=[[0,0.5],[1,0.5]];portConstraint=eastwest;rotatable=0;whiteSpace=wrap;html=1;fontSize=16;rounded=0;" parent="dtdD0uUaHfJ87B4ElsbL-14" vertex="1">
          <mxGeometry y="150" width="250" height="30" as="geometry" />
        </mxCell>
        <mxCell id="dtdD0uUaHfJ87B4ElsbL-25" value="upperLimit: int (limite superior)" style="text;strokeColor=none;fillColor=none;align=left;verticalAlign=middle;spacingLeft=4;spacingRight=4;overflow=hidden;points=[[0,0.5],[1,0.5]];portConstraint=eastwest;rotatable=0;whiteSpace=wrap;html=1;fontSize=16;rounded=0;" parent="dtdD0uUaHfJ87B4ElsbL-14" vertex="1">
          <mxGeometry y="180" width="250" height="30" as="geometry" />
        </mxCell>
        <mxCell id="dtdD0uUaHfJ87B4ElsbL-27" value="" style="edgeStyle=orthogonalEdgeStyle;fontSize=12;html=1;endArrow=ERmandOne;startArrow=ERmandOne;rounded=0;startSize=8;endSize=8;exitX=1;exitY=0.5;exitDx=0;exitDy=0;entryX=0;entryY=0.5;entryDx=0;entryDy=0;" parent="1" source="dtdD0uUaHfJ87B4ElsbL-15" target="dtdD0uUaHfJ87B4ElsbL-11" edge="1">
          <mxGeometry width="100" height="100" relative="1" as="geometry">
            <mxPoint x="2910" y="615" as="sourcePoint" />
            <mxPoint x="3010" y="515" as="targetPoint" />
          </mxGeometry>
        </mxCell>
        <mxCell id="nXSnLZ1eqNjnr_miAZ53-1" value="headerRequestsIncidence&amp;nbsp;&amp;nbsp;" style="swimlane;fontStyle=0;childLayout=stackLayout;horizontal=1;startSize=30;horizontalStack=0;resizeParent=1;resizeParentMax=0;resizeLast=0;collapsible=1;marginBottom=0;whiteSpace=wrap;html=1;fontSize=16;rounded=0;fillColor=#d5e8d4;strokeColor=#82b366;" parent="1" vertex="1">
          <mxGeometry x="1720" y="600" width="250" height="360" as="geometry" />
        </mxCell>
        <mxCell id="nXSnLZ1eqNjnr_miAZ53-2" value="id" style="text;strokeColor=none;fillColor=none;align=left;verticalAlign=middle;spacingLeft=4;spacingRight=4;overflow=hidden;points=[[0,0.5],[1,0.5]];portConstraint=eastwest;rotatable=0;whiteSpace=wrap;html=1;fontSize=16;rounded=0;" parent="nXSnLZ1eqNjnr_miAZ53-1" vertex="1">
          <mxGeometry y="30" width="250" height="30" as="geometry" />
        </mxCell>
        <mxCell id="nXSnLZ1eqNjnr_miAZ53-3" value="incidenceAdministrationId(FK)" style="text;align=left;verticalAlign=middle;spacingLeft=4;spacingRight=4;overflow=hidden;points=[[0,0.5],[1,0.5]];portConstraint=eastwest;rotatable=0;whiteSpace=wrap;html=1;fontSize=16;rounded=0;fillColor=#fff2cc;strokeColor=#d6b656;" parent="nXSnLZ1eqNjnr_miAZ53-1" vertex="1">
          <mxGeometry y="60" width="250" height="30" as="geometry" />
        </mxCell>
        <mxCell id="nXSnLZ1eqNjnr_miAZ53-10" value="costCenter: int&amp;nbsp;" style="text;align=left;verticalAlign=middle;spacingLeft=4;spacingRight=4;overflow=hidden;points=[[0,0.5],[1,0.5]];portConstraint=eastwest;rotatable=0;whiteSpace=wrap;html=1;fontSize=16;rounded=0;fillColor=#fff2cc;strokeColor=#d6b656;" parent="nXSnLZ1eqNjnr_miAZ53-1" vertex="1">
          <mxGeometry y="90" width="250" height="30" as="geometry" />
        </mxCell>
        <mxCell id="nXSnLZ1eqNjnr_miAZ53-4" value="createdById(FK)" style="text;strokeColor=none;fillColor=none;align=left;verticalAlign=middle;spacingLeft=4;spacingRight=4;overflow=hidden;points=[[0,0.5],[1,0.5]];portConstraint=eastwest;rotatable=0;whiteSpace=wrap;html=1;fontSize=16;rounded=0;" parent="nXSnLZ1eqNjnr_miAZ53-1" vertex="1">
          <mxGeometry y="120" width="250" height="30" as="geometry" />
        </mxCell>
        <mxCell id="nXSnLZ1eqNjnr_miAZ53-9" value="createdDate:date" style="text;strokeColor=none;fillColor=none;align=left;verticalAlign=middle;spacingLeft=4;spacingRight=4;overflow=hidden;points=[[0,0.5],[1,0.5]];portConstraint=eastwest;rotatable=0;whiteSpace=wrap;html=1;fontSize=16;rounded=0;" parent="nXSnLZ1eqNjnr_miAZ53-1" vertex="1">
          <mxGeometry y="150" width="250" height="30" as="geometry" />
        </mxCell>
        <mxCell id="nXSnLZ1eqNjnr_miAZ53-5" value="status: int" style="text;strokeColor=none;fillColor=none;align=left;verticalAlign=middle;spacingLeft=4;spacingRight=4;overflow=hidden;points=[[0,0.5],[1,0.5]];portConstraint=eastwest;rotatable=0;whiteSpace=wrap;html=1;fontSize=16;rounded=0;" parent="nXSnLZ1eqNjnr_miAZ53-1" vertex="1">
          <mxGeometry y="180" width="250" height="30" as="geometry" />
        </mxCell>
        <mxCell id="nXSnLZ1eqNjnr_miAZ53-6" value="modifiedById(FK)" style="text;strokeColor=none;fillColor=none;align=left;verticalAlign=middle;spacingLeft=4;spacingRight=4;overflow=hidden;points=[[0,0.5],[1,0.5]];portConstraint=eastwest;rotatable=0;whiteSpace=wrap;html=1;fontSize=16;rounded=0;" parent="nXSnLZ1eqNjnr_miAZ53-1" vertex="1">
          <mxGeometry y="210" width="250" height="30" as="geometry" />
        </mxCell>
        <mxCell id="nXSnLZ1eqNjnr_miAZ53-7" value="modifiedDate: date" style="text;strokeColor=none;fillColor=none;align=left;verticalAlign=middle;spacingLeft=4;spacingRight=4;overflow=hidden;points=[[0,0.5],[1,0.5]];portConstraint=eastwest;rotatable=0;whiteSpace=wrap;html=1;fontSize=16;rounded=0;" parent="nXSnLZ1eqNjnr_miAZ53-1" vertex="1">
          <mxGeometry y="240" width="250" height="30" as="geometry" />
        </mxCell>
        <mxCell id="nXSnLZ1eqNjnr_miAZ53-12" value="concept:string" style="text;strokeColor=none;fillColor=none;align=left;verticalAlign=middle;spacingLeft=4;spacingRight=4;overflow=hidden;points=[[0,0.5],[1,0.5]];portConstraint=eastwest;rotatable=0;whiteSpace=wrap;html=1;fontSize=16;rounded=0;" parent="nXSnLZ1eqNjnr_miAZ53-1" vertex="1">
          <mxGeometry y="270" width="250" height="30" as="geometry" />
        </mxCell>
        <mxCell id="nXSnLZ1eqNjnr_miAZ53-8" value="comments: varchar" style="text;strokeColor=none;fillColor=none;align=left;verticalAlign=middle;spacingLeft=4;spacingRight=4;overflow=hidden;points=[[0,0.5],[1,0.5]];portConstraint=eastwest;rotatable=0;whiteSpace=wrap;html=1;fontSize=16;rounded=0;" parent="nXSnLZ1eqNjnr_miAZ53-1" vertex="1">
          <mxGeometry y="300" width="250" height="30" as="geometry" />
        </mxCell>
        <mxCell id="nXSnLZ1eqNjnr_miAZ53-11" value="modifiedDate: date" style="text;strokeColor=none;fillColor=none;align=left;verticalAlign=middle;spacingLeft=4;spacingRight=4;overflow=hidden;points=[[0,0.5],[1,0.5]];portConstraint=eastwest;rotatable=0;whiteSpace=wrap;html=1;fontSize=16;rounded=0;" parent="nXSnLZ1eqNjnr_miAZ53-1" vertex="1">
          <mxGeometry y="330" width="250" height="30" as="geometry" />
        </mxCell>
        <mxCell id="Vvje7x5uUCrA9ETEUYJ6-2" value="holidaysManagement" style="swimlane;fontStyle=0;childLayout=stackLayout;horizontal=1;startSize=30;horizontalStack=0;resizeParent=1;resizeParentMax=0;resizeLast=0;collapsible=1;marginBottom=0;whiteSpace=wrap;html=1;" parent="1" vertex="1">
          <mxGeometry x="3140" y="60" width="140" height="240" as="geometry" />
        </mxCell>
        <mxCell id="Vvje7x5uUCrA9ETEUYJ6-3" value="id" style="text;strokeColor=none;fillColor=none;align=left;verticalAlign=middle;spacingLeft=4;spacingRight=4;overflow=hidden;points=[[0,0.5],[1,0.5]];portConstraint=eastwest;rotatable=0;whiteSpace=wrap;html=1;" parent="Vvje7x5uUCrA9ETEUYJ6-2" vertex="1">
          <mxGeometry y="30" width="140" height="30" as="geometry" />
        </mxCell>
        <mxCell id="Vvje7x5uUCrA9ETEUYJ6-4" value="day : date" style="text;strokeColor=none;fillColor=none;align=left;verticalAlign=middle;spacingLeft=4;spacingRight=4;overflow=hidden;points=[[0,0.5],[1,0.5]];portConstraint=eastwest;rotatable=0;whiteSpace=wrap;html=1;" parent="Vvje7x5uUCrA9ETEUYJ6-2" vertex="1">
          <mxGeometry y="60" width="140" height="30" as="geometry" />
        </mxCell>
        <mxCell id="Vvje7x5uUCrA9ETEUYJ6-9" value="description: string" style="text;strokeColor=none;fillColor=none;align=left;verticalAlign=middle;spacingLeft=4;spacingRight=4;overflow=hidden;points=[[0,0.5],[1,0.5]];portConstraint=eastwest;rotatable=0;whiteSpace=wrap;html=1;" parent="Vvje7x5uUCrA9ETEUYJ6-2" vertex="1">
          <mxGeometry y="90" width="140" height="30" as="geometry" />
        </mxCell>
        <mxCell id="Vvje7x5uUCrA9ETEUYJ6-5" value="createdById:&amp;nbsp; int" style="text;strokeColor=none;fillColor=none;align=left;verticalAlign=middle;spacingLeft=4;spacingRight=4;overflow=hidden;points=[[0,0.5],[1,0.5]];portConstraint=eastwest;rotatable=0;whiteSpace=wrap;html=1;" parent="Vvje7x5uUCrA9ETEUYJ6-2" vertex="1">
          <mxGeometry y="120" width="140" height="30" as="geometry" />
        </mxCell>
        <mxCell id="Vvje7x5uUCrA9ETEUYJ6-6" value="createdDate: date" style="text;strokeColor=none;fillColor=none;align=left;verticalAlign=middle;spacingLeft=4;spacingRight=4;overflow=hidden;points=[[0,0.5],[1,0.5]];portConstraint=eastwest;rotatable=0;whiteSpace=wrap;html=1;" parent="Vvje7x5uUCrA9ETEUYJ6-2" vertex="1">
          <mxGeometry y="150" width="140" height="30" as="geometry" />
        </mxCell>
        <mxCell id="Vvje7x5uUCrA9ETEUYJ6-7" value="modifiedById:int" style="text;strokeColor=none;fillColor=none;align=left;verticalAlign=middle;spacingLeft=4;spacingRight=4;overflow=hidden;points=[[0,0.5],[1,0.5]];portConstraint=eastwest;rotatable=0;whiteSpace=wrap;html=1;" parent="Vvje7x5uUCrA9ETEUYJ6-2" vertex="1">
          <mxGeometry y="180" width="140" height="30" as="geometry" />
        </mxCell>
        <mxCell id="Vvje7x5uUCrA9ETEUYJ6-8" value="modifiedDate: date" style="text;strokeColor=none;fillColor=none;align=left;verticalAlign=middle;spacingLeft=4;spacingRight=4;overflow=hidden;points=[[0,0.5],[1,0.5]];portConstraint=eastwest;rotatable=0;whiteSpace=wrap;html=1;" parent="Vvje7x5uUCrA9ETEUYJ6-2" vertex="1">
          <mxGeometry y="210" width="140" height="30" as="geometry" />
        </mxCell>
        <mxCell id="F_b2WeqjosA1hXz74UVs-1" value="holidaysManagement" style="swimlane;fontStyle=0;childLayout=stackLayout;horizontal=1;startSize=30;horizontalStack=0;resizeParent=1;resizeParentMax=0;resizeLast=0;collapsible=1;marginBottom=0;whiteSpace=wrap;html=1;" parent="1" vertex="1">
          <mxGeometry x="3140" y="380" width="140" height="240" as="geometry" />
        </mxCell>
        <mxCell id="F_b2WeqjosA1hXz74UVs-2" value="id" style="text;strokeColor=none;fillColor=none;align=left;verticalAlign=middle;spacingLeft=4;spacingRight=4;overflow=hidden;points=[[0,0.5],[1,0.5]];portConstraint=eastwest;rotatable=0;whiteSpace=wrap;html=1;" parent="F_b2WeqjosA1hXz74UVs-1" vertex="1">
          <mxGeometry y="30" width="140" height="30" as="geometry" />
        </mxCell>
        <mxCell id="F_b2WeqjosA1hXz74UVs-3" value="day : date" style="text;strokeColor=none;fillColor=none;align=left;verticalAlign=middle;spacingLeft=4;spacingRight=4;overflow=hidden;points=[[0,0.5],[1,0.5]];portConstraint=eastwest;rotatable=0;whiteSpace=wrap;html=1;" parent="F_b2WeqjosA1hXz74UVs-1" vertex="1">
          <mxGeometry y="60" width="140" height="30" as="geometry" />
        </mxCell>
        <mxCell id="F_b2WeqjosA1hXz74UVs-4" value="description: string" style="text;strokeColor=none;fillColor=none;align=left;verticalAlign=middle;spacingLeft=4;spacingRight=4;overflow=hidden;points=[[0,0.5],[1,0.5]];portConstraint=eastwest;rotatable=0;whiteSpace=wrap;html=1;" parent="F_b2WeqjosA1hXz74UVs-1" vertex="1">
          <mxGeometry y="90" width="140" height="30" as="geometry" />
        </mxCell>
        <mxCell id="F_b2WeqjosA1hXz74UVs-5" value="createdById:&amp;nbsp; int" style="text;strokeColor=none;fillColor=none;align=left;verticalAlign=middle;spacingLeft=4;spacingRight=4;overflow=hidden;points=[[0,0.5],[1,0.5]];portConstraint=eastwest;rotatable=0;whiteSpace=wrap;html=1;" parent="F_b2WeqjosA1hXz74UVs-1" vertex="1">
          <mxGeometry y="120" width="140" height="30" as="geometry" />
        </mxCell>
        <mxCell id="F_b2WeqjosA1hXz74UVs-6" value="createdDate: date" style="text;strokeColor=none;fillColor=none;align=left;verticalAlign=middle;spacingLeft=4;spacingRight=4;overflow=hidden;points=[[0,0.5],[1,0.5]];portConstraint=eastwest;rotatable=0;whiteSpace=wrap;html=1;" parent="F_b2WeqjosA1hXz74UVs-1" vertex="1">
          <mxGeometry y="150" width="140" height="30" as="geometry" />
        </mxCell>
        <mxCell id="F_b2WeqjosA1hXz74UVs-7" value="modifiedById:int" style="text;strokeColor=none;fillColor=none;align=left;verticalAlign=middle;spacingLeft=4;spacingRight=4;overflow=hidden;points=[[0,0.5],[1,0.5]];portConstraint=eastwest;rotatable=0;whiteSpace=wrap;html=1;" parent="F_b2WeqjosA1hXz74UVs-1" vertex="1">
          <mxGeometry y="180" width="140" height="30" as="geometry" />
        </mxCell>
        <mxCell id="F_b2WeqjosA1hXz74UVs-8" value="modifiedDate: date" style="text;strokeColor=none;fillColor=none;align=left;verticalAlign=middle;spacingLeft=4;spacingRight=4;overflow=hidden;points=[[0,0.5],[1,0.5]];portConstraint=eastwest;rotatable=0;whiteSpace=wrap;html=1;" parent="F_b2WeqjosA1hXz74UVs-1" vertex="1">
          <mxGeometry y="210" width="140" height="30" as="geometry" />
        </mxCell>
        <mxCell id="yje9XC73mo0_pYg31St0-1" value="ManagenementIncidencesReistred" style="swimlane;fontStyle=0;childLayout=stackLayout;horizontal=1;startSize=30;horizontalStack=0;resizeParent=1;resizeParentMax=0;resizeLast=0;collapsible=1;marginBottom=0;whiteSpace=wrap;html=1;" parent="1" vertex="1">
          <mxGeometry x="3091" y="650" width="260" height="150" as="geometry" />
        </mxCell>
        <mxCell id="yje9XC73mo0_pYg31St0-2" value="id" style="text;strokeColor=none;fillColor=none;align=left;verticalAlign=middle;spacingLeft=4;spacingRight=4;overflow=hidden;points=[[0,0.5],[1,0.5]];portConstraint=eastwest;rotatable=0;whiteSpace=wrap;html=1;" parent="yje9XC73mo0_pYg31St0-1" vertex="1">
          <mxGeometry y="30" width="260" height="30" as="geometry" />
        </mxCell>
        <mxCell id="yje9XC73mo0_pYg31St0-5" value="path: string(200)" style="text;strokeColor=none;fillColor=none;align=left;verticalAlign=middle;spacingLeft=4;spacingRight=4;overflow=hidden;points=[[0,0.5],[1,0.5]];portConstraint=eastwest;rotatable=0;whiteSpace=wrap;html=1;" parent="yje9XC73mo0_pYg31St0-1" vertex="1">
          <mxGeometry y="60" width="260" height="30" as="geometry" />
        </mxCell>
        <mxCell id="yje9XC73mo0_pYg31St0-7" value="updatedById:&amp;nbsp; int&amp;nbsp;" style="text;strokeColor=none;fillColor=none;align=left;verticalAlign=middle;spacingLeft=4;spacingRight=4;overflow=hidden;points=[[0,0.5],[1,0.5]];portConstraint=eastwest;rotatable=0;whiteSpace=wrap;html=1;" parent="yje9XC73mo0_pYg31St0-1" vertex="1">
          <mxGeometry y="90" width="260" height="30" as="geometry" />
        </mxCell>
        <mxCell id="yje9XC73mo0_pYg31St0-6" value="updatedDate: date" style="text;strokeColor=none;fillColor=none;align=left;verticalAlign=middle;spacingLeft=4;spacingRight=4;overflow=hidden;points=[[0,0.5],[1,0.5]];portConstraint=eastwest;rotatable=0;whiteSpace=wrap;html=1;" parent="yje9XC73mo0_pYg31St0-1" vertex="1">
          <mxGeometry y="120" width="260" height="30" as="geometry" />
        </mxCell>
        <mxCell id="SX2U6L_5Y3owYhkiTPoS-1" value="GembaHeaderListAssistance&lt;br&gt;&amp;nbsp;" style="swimlane;fontStyle=0;childLayout=stackLayout;horizontal=1;startSize=30;horizontalStack=0;resizeParent=1;resizeParentMax=0;resizeLast=0;collapsible=1;marginBottom=0;whiteSpace=wrap;html=1;" parent="1" vertex="1">
          <mxGeometry x="4200" y="60" width="220" height="420" as="geometry" />
        </mxCell>
        <mxCell id="SX2U6L_5Y3owYhkiTPoS-2" value="id: int" style="text;strokeColor=none;fillColor=none;align=left;verticalAlign=middle;spacingLeft=4;spacingRight=4;overflow=hidden;points=[[0,0.5],[1,0.5]];portConstraint=eastwest;rotatable=0;whiteSpace=wrap;html=1;" parent="SX2U6L_5Y3owYhkiTPoS-1" vertex="1">
          <mxGeometry y="30" width="220" height="30" as="geometry" />
        </mxCell>
        <mxCell id="SX2U6L_5Y3owYhkiTPoS-3" value="Name: varchar (250)" style="text;strokeColor=none;fillColor=none;align=left;verticalAlign=middle;spacingLeft=4;spacingRight=4;overflow=hidden;points=[[0,0.5],[1,0.5]];portConstraint=eastwest;rotatable=0;whiteSpace=wrap;html=1;" parent="SX2U6L_5Y3owYhkiTPoS-1" vertex="1">
          <mxGeometry y="60" width="220" height="30" as="geometry" />
        </mxCell>
        <mxCell id="SX2U6L_5Y3owYhkiTPoS-4" value="Place: int&lt;span style=&quot;white-space: pre;&quot;&gt;&#x9;&lt;/span&gt;" style="text;strokeColor=none;fillColor=none;align=left;verticalAlign=middle;spacingLeft=4;spacingRight=4;overflow=hidden;points=[[0,0.5],[1,0.5]];portConstraint=eastwest;rotatable=0;whiteSpace=wrap;html=1;" parent="SX2U6L_5Y3owYhkiTPoS-1" vertex="1">
          <mxGeometry y="90" width="220" height="30" as="geometry" />
        </mxCell>
        <mxCell id="SX2U6L_5Y3owYhkiTPoS-5" value="Instructor: int(FK)&lt;span style=&quot;white-space: pre;&quot;&gt;&#x9;&lt;/span&gt;" style="text;strokeColor=none;fillColor=none;align=left;verticalAlign=middle;spacingLeft=4;spacingRight=4;overflow=hidden;points=[[0,0.5],[1,0.5]];portConstraint=eastwest;rotatable=0;whiteSpace=wrap;html=1;" parent="SX2U6L_5Y3owYhkiTPoS-1" vertex="1">
          <mxGeometry y="120" width="220" height="30" as="geometry" />
        </mxCell>
        <mxCell id="SX2U6L_5Y3owYhkiTPoS-6" value="Material: varchar (250)" style="text;strokeColor=none;fillColor=none;align=left;verticalAlign=middle;spacingLeft=4;spacingRight=4;overflow=hidden;points=[[0,0.5],[1,0.5]];portConstraint=eastwest;rotatable=0;whiteSpace=wrap;html=1;" parent="SX2U6L_5Y3owYhkiTPoS-1" vertex="1">
          <mxGeometry y="150" width="220" height="30" as="geometry" />
        </mxCell>
        <mxCell id="SX2U6L_5Y3owYhkiTPoS-7" value="Date: date" style="text;strokeColor=none;fillColor=none;align=left;verticalAlign=middle;spacingLeft=4;spacingRight=4;overflow=hidden;points=[[0,0.5],[1,0.5]];portConstraint=eastwest;rotatable=0;whiteSpace=wrap;html=1;" parent="SX2U6L_5Y3owYhkiTPoS-1" vertex="1">
          <mxGeometry y="180" width="220" height="30" as="geometry" />
        </mxCell>
        <mxCell id="SX2U6L_5Y3owYhkiTPoS-8" value="Hour: time" style="text;strokeColor=none;fillColor=none;align=left;verticalAlign=middle;spacingLeft=4;spacingRight=4;overflow=hidden;points=[[0,0.5],[1,0.5]];portConstraint=eastwest;rotatable=0;whiteSpace=wrap;html=1;" parent="SX2U6L_5Y3owYhkiTPoS-1" vertex="1">
          <mxGeometry y="210" width="220" height="30" as="geometry" />
        </mxCell>
        <mxCell id="SX2U6L_5Y3owYhkiTPoS-9" value="Duration: int (10)" style="text;strokeColor=none;fillColor=none;align=left;verticalAlign=middle;spacingLeft=4;spacingRight=4;overflow=hidden;points=[[0,0.5],[1,0.5]];portConstraint=eastwest;rotatable=0;whiteSpace=wrap;html=1;" parent="SX2U6L_5Y3owYhkiTPoS-1" vertex="1">
          <mxGeometry y="240" width="220" height="30" as="geometry" />
        </mxCell>
        <mxCell id="SX2U6L_5Y3owYhkiTPoS-27" value="Status: int(10)" style="text;strokeColor=none;fillColor=none;align=left;verticalAlign=middle;spacingLeft=4;spacingRight=4;overflow=hidden;points=[[0,0.5],[1,0.5]];portConstraint=eastwest;rotatable=0;whiteSpace=wrap;html=1;" parent="SX2U6L_5Y3owYhkiTPoS-1" vertex="1">
          <mxGeometry y="270" width="220" height="30" as="geometry" />
        </mxCell>
        <mxCell id="SX2U6L_5Y3owYhkiTPoS-10" value="CreatedById: int(FK)" style="text;strokeColor=none;fillColor=none;align=left;verticalAlign=middle;spacingLeft=4;spacingRight=4;overflow=hidden;points=[[0,0.5],[1,0.5]];portConstraint=eastwest;rotatable=0;whiteSpace=wrap;html=1;" parent="SX2U6L_5Y3owYhkiTPoS-1" vertex="1">
          <mxGeometry y="300" width="220" height="30" as="geometry" />
        </mxCell>
        <mxCell id="SX2U6L_5Y3owYhkiTPoS-11" value="CreatedDate: date" style="text;strokeColor=none;fillColor=none;align=left;verticalAlign=middle;spacingLeft=4;spacingRight=4;overflow=hidden;points=[[0,0.5],[1,0.5]];portConstraint=eastwest;rotatable=0;whiteSpace=wrap;html=1;" parent="SX2U6L_5Y3owYhkiTPoS-1" vertex="1">
          <mxGeometry y="330" width="220" height="30" as="geometry" />
        </mxCell>
        <mxCell id="SX2U6L_5Y3owYhkiTPoS-12" value="ModifiedBy: int(FK)" style="text;strokeColor=none;fillColor=none;align=left;verticalAlign=middle;spacingLeft=4;spacingRight=4;overflow=hidden;points=[[0,0.5],[1,0.5]];portConstraint=eastwest;rotatable=0;whiteSpace=wrap;html=1;" parent="SX2U6L_5Y3owYhkiTPoS-1" vertex="1">
          <mxGeometry y="360" width="220" height="30" as="geometry" />
        </mxCell>
        <mxCell id="SX2U6L_5Y3owYhkiTPoS-13" value="ModifiedDate: date" style="text;strokeColor=none;fillColor=none;align=left;verticalAlign=middle;spacingLeft=4;spacingRight=4;overflow=hidden;points=[[0,0.5],[1,0.5]];portConstraint=eastwest;rotatable=0;whiteSpace=wrap;html=1;" parent="SX2U6L_5Y3owYhkiTPoS-1" vertex="1">
          <mxGeometry y="390" width="220" height="30" as="geometry" />
        </mxCell>
        <mxCell id="SX2U6L_5Y3owYhkiTPoS-14" value="GembaPeopleAssistance&lt;br&gt;&amp;nbsp;" style="swimlane;fontStyle=0;childLayout=stackLayout;horizontal=1;startSize=30;horizontalStack=0;resizeParent=1;resizeParentMax=0;resizeLast=0;collapsible=1;marginBottom=0;whiteSpace=wrap;html=1;" parent="1" vertex="1">
          <mxGeometry x="4460" y="60" width="190" height="330" as="geometry" />
        </mxCell>
        <mxCell id="SX2U6L_5Y3owYhkiTPoS-15" value="id: int" style="text;strokeColor=none;fillColor=none;align=left;verticalAlign=middle;spacingLeft=4;spacingRight=4;overflow=hidden;points=[[0,0.5],[1,0.5]];portConstraint=eastwest;rotatable=0;whiteSpace=wrap;html=1;" parent="SX2U6L_5Y3owYhkiTPoS-14" vertex="1">
          <mxGeometry y="30" width="190" height="30" as="geometry" />
        </mxCell>
        <mxCell id="SX2U6L_5Y3owYhkiTPoS-16" value="HeaderListAssistanceId: int (FK)" style="text;strokeColor=none;fillColor=none;align=left;verticalAlign=middle;spacingLeft=4;spacingRight=4;overflow=hidden;points=[[0,0.5],[1,0.5]];portConstraint=eastwest;rotatable=0;whiteSpace=wrap;html=1;" parent="SX2U6L_5Y3owYhkiTPoS-14" vertex="1">
          <mxGeometry y="60" width="190" height="30" as="geometry" />
        </mxCell>
        <mxCell id="G1E0ogIs2FRJQp7wSRrh-12" value="unionizedEmployeeId: int (FK) null" style="text;strokeColor=none;fillColor=none;align=left;verticalAlign=middle;spacingLeft=4;spacingRight=4;overflow=hidden;points=[[0,0.5],[1,0.5]];portConstraint=eastwest;rotatable=0;whiteSpace=wrap;html=1;" vertex="1" parent="SX2U6L_5Y3owYhkiTPoS-14">
          <mxGeometry y="90" width="190" height="30" as="geometry" />
        </mxCell>
        <mxCell id="G1E0ogIs2FRJQp7wSRrh-13" value="employeeId: int (FK) null" style="text;strokeColor=none;fillColor=none;align=left;verticalAlign=middle;spacingLeft=4;spacingRight=4;overflow=hidden;points=[[0,0.5],[1,0.5]];portConstraint=eastwest;rotatable=0;whiteSpace=wrap;html=1;" vertex="1" parent="SX2U6L_5Y3owYhkiTPoS-14">
          <mxGeometry y="120" width="190" height="30" as="geometry" />
        </mxCell>
        <mxCell id="G1E0ogIs2FRJQp7wSRrh-2" value="employeeType: int" style="text;strokeColor=none;fillColor=none;align=left;verticalAlign=middle;spacingLeft=4;spacingRight=4;overflow=hidden;points=[[0,0.5],[1,0.5]];portConstraint=eastwest;rotatable=0;whiteSpace=wrap;html=1;" vertex="1" parent="SX2U6L_5Y3owYhkiTPoS-14">
          <mxGeometry y="150" width="190" height="30" as="geometry" />
        </mxCell>
        <mxCell id="G1E0ogIs2FRJQp7wSRrh-17" value="employeeId: int" style="text;strokeColor=none;fillColor=none;align=left;verticalAlign=middle;spacingLeft=4;spacingRight=4;overflow=hidden;points=[[0,0.5],[1,0.5]];portConstraint=eastwest;rotatable=0;whiteSpace=wrap;html=1;" vertex="1" parent="SX2U6L_5Y3owYhkiTPoS-14">
          <mxGeometry y="180" width="190" height="30" as="geometry" />
        </mxCell>
        <mxCell id="SX2U6L_5Y3owYhkiTPoS-19" value="Asistence: boolean" style="text;strokeColor=none;fillColor=none;align=left;verticalAlign=middle;spacingLeft=4;spacingRight=4;overflow=hidden;points=[[0,0.5],[1,0.5]];portConstraint=eastwest;rotatable=0;whiteSpace=wrap;html=1;" parent="SX2U6L_5Y3owYhkiTPoS-14" vertex="1">
          <mxGeometry y="210" width="190" height="30" as="geometry" />
        </mxCell>
        <mxCell id="SX2U6L_5Y3owYhkiTPoS-20" value="Date: date" style="text;strokeColor=none;fillColor=none;align=left;verticalAlign=middle;spacingLeft=4;spacingRight=4;overflow=hidden;points=[[0,0.5],[1,0.5]];portConstraint=eastwest;rotatable=0;whiteSpace=wrap;html=1;" parent="SX2U6L_5Y3owYhkiTPoS-14" vertex="1">
          <mxGeometry y="240" width="190" height="30" as="geometry" />
        </mxCell>
        <mxCell id="Wlz_AOYc_FHfjN7iRtRu-1" value="CreatedById: int(FK)" style="text;strokeColor=none;fillColor=none;align=left;verticalAlign=middle;spacingLeft=4;spacingRight=4;overflow=hidden;points=[[0,0.5],[1,0.5]];portConstraint=eastwest;rotatable=0;whiteSpace=wrap;html=1;" parent="SX2U6L_5Y3owYhkiTPoS-14" vertex="1">
          <mxGeometry y="270" width="190" height="30" as="geometry" />
        </mxCell>
        <mxCell id="Wlz_AOYc_FHfjN7iRtRu-2" value="CreatedDate: date" style="text;strokeColor=none;fillColor=none;align=left;verticalAlign=middle;spacingLeft=4;spacingRight=4;overflow=hidden;points=[[0,0.5],[1,0.5]];portConstraint=eastwest;rotatable=0;whiteSpace=wrap;html=1;" parent="SX2U6L_5Y3owYhkiTPoS-14" vertex="1">
          <mxGeometry y="300" width="190" height="30" as="geometry" />
        </mxCell>
        <mxCell id="G1E0ogIs2FRJQp7wSRrh-15" style="edgeStyle=orthogonalEdgeStyle;rounded=0;orthogonalLoop=1;jettySize=auto;html=1;entryX=0;entryY=0.5;entryDx=0;entryDy=0;strokeColor=none;" edge="1" parent="1" source="SX2U6L_5Y3owYhkiTPoS-2" target="SX2U6L_5Y3owYhkiTPoS-16">
          <mxGeometry relative="1" as="geometry" />
        </mxCell>
      </root>
    </mxGraphModel>
  </diagram>
  <diagram id="XbfLtiue7vvspxcME4lK" name="Page-FlowDiagram">
    <mxGraphModel dx="3695" dy="1564" grid="1" gridSize="10" guides="1" tooltips="1" connect="1" arrows="1" fold="1" page="1" pageScale="1" pageWidth="827" pageHeight="1169" math="0" shadow="0">
      <root>
        <mxCell id="0" />
        <mxCell id="1" parent="0" />
        <mxCell id="5Z_7QFvsqZYLx5hiNaYu-51" value="" style="edgeStyle=orthogonalEdgeStyle;rounded=0;orthogonalLoop=1;jettySize=auto;html=1;fontSize=12;startSize=8;endSize=8;exitX=0;exitY=0.5;exitDx=0;exitDy=0;entryX=0.5;entryY=0;entryDx=0;entryDy=0;" parent="1" source="5Z_7QFvsqZYLx5hiNaYu-47" target="5Z_7QFvsqZYLx5hiNaYu-50" edge="1">
          <mxGeometry relative="1" as="geometry" />
        </mxCell>
        <mxCell id="5Z_7QFvsqZYLx5hiNaYu-109" style="edgeStyle=orthogonalEdgeStyle;rounded=0;orthogonalLoop=1;jettySize=auto;html=1;fontSize=12;startSize=8;endSize=8;exitX=1;exitY=0.5;exitDx=0;exitDy=0;" parent="1" source="5Z_7QFvsqZYLx5hiNaYu-47" target="t3x61w4r6xSnHAWXs-r3-3" edge="1">
          <mxGeometry relative="1" as="geometry">
            <mxPoint x="1340" y="681" as="targetPoint" />
            <Array as="points">
              <mxPoint x="1380" y="360" />
            </Array>
          </mxGeometry>
        </mxCell>
        <mxCell id="pmCrkatlPYBzh1t-tQkI-14" value="Si" style="edgeLabel;html=1;align=center;verticalAlign=middle;resizable=0;points=[];fontSize=12;" parent="5Z_7QFvsqZYLx5hiNaYu-109" vertex="1" connectable="0">
          <mxGeometry x="-0.4857" relative="1" as="geometry">
            <mxPoint x="21" y="17" as="offset" />
          </mxGeometry>
        </mxCell>
        <mxCell id="5Z_7QFvsqZYLx5hiNaYu-47" value="¿Esta correcto ?" style="rhombus;whiteSpace=wrap;html=1;rounded=0;arcSize=0;fontSize=12;" parent="1" vertex="1">
          <mxGeometry x="1230" y="315" width="99" height="90" as="geometry" />
        </mxCell>
        <mxCell id="mppb7pQ2llq3sMJZj9XO-2" style="edgeStyle=orthogonalEdgeStyle;rounded=0;orthogonalLoop=1;jettySize=auto;html=1;entryX=0.5;entryY=0;entryDx=0;entryDy=0;strokeColor=default;fontSize=12;startSize=8;endSize=8;" parent="1" source="5Z_7QFvsqZYLx5hiNaYu-50" target="mppb7pQ2llq3sMJZj9XO-1" edge="1">
          <mxGeometry relative="1" as="geometry" />
        </mxCell>
        <mxCell id="5Z_7QFvsqZYLx5hiNaYu-50" value="Rechazado." style="shape=parallelogram;perimeter=parallelogramPerimeter;whiteSpace=wrap;html=1;fixedSize=1;rounded=0;arcSize=0;fontSize=12;size=10;" parent="1" vertex="1">
          <mxGeometry x="1140" y="430" width="120" height="60" as="geometry" />
        </mxCell>
        <mxCell id="5Z_7QFvsqZYLx5hiNaYu-95" style="edgeStyle=none;rounded=0;orthogonalLoop=1;jettySize=auto;html=1;strokeColor=default;fontSize=12;startSize=8;endSize=8;entryX=0.5;entryY=0;entryDx=0;entryDy=0;" parent="1" source="5Z_7QFvsqZYLx5hiNaYu-96" target="5Z_7QFvsqZYLx5hiNaYu-97" edge="1">
          <mxGeometry relative="1" as="geometry">
            <mxPoint x="2223" y="320" as="targetPoint" />
          </mxGeometry>
        </mxCell>
        <mxCell id="5Z_7QFvsqZYLx5hiNaYu-96" value="Ingresa nóminas&amp;nbsp;" style="rounded=1;whiteSpace=wrap;html=1;fontSize=16;arcSize=20;glass=0;" parent="1" vertex="1">
          <mxGeometry x="2013" y="30" width="120" height="40" as="geometry" />
        </mxCell>
        <mxCell id="pmCrkatlPYBzh1t-tQkI-18" style="edgeStyle=orthogonalEdgeStyle;rounded=0;orthogonalLoop=1;jettySize=auto;html=1;entryX=0.5;entryY=0;entryDx=0;entryDy=0;strokeColor=default;fontSize=12;startSize=8;endSize=8;" parent="1" source="5Z_7QFvsqZYLx5hiNaYu-97" target="pmCrkatlPYBzh1t-tQkI-17" edge="1">
          <mxGeometry relative="1" as="geometry" />
        </mxCell>
        <mxCell id="5Z_7QFvsqZYLx5hiNaYu-97" value="Lista de reportes pendientes." style="rounded=0;whiteSpace=wrap;html=1;fontSize=12;" parent="1" vertex="1">
          <mxGeometry x="2013" y="120" width="120" height="60" as="geometry" />
        </mxCell>
        <mxCell id="pmCrkatlPYBzh1t-tQkI-22" style="edgeStyle=orthogonalEdgeStyle;rounded=0;orthogonalLoop=1;jettySize=auto;html=1;entryX=0.5;entryY=0;entryDx=0;entryDy=0;strokeColor=default;fontSize=12;startSize=8;endSize=8;" parent="1" source="5Z_7QFvsqZYLx5hiNaYu-98" target="t3x61w4r6xSnHAWXs-r3-2" edge="1">
          <mxGeometry relative="1" as="geometry" />
        </mxCell>
        <mxCell id="5Z_7QFvsqZYLx5hiNaYu-98" value="&lt;div style=&quot;&quot;&gt;&lt;span style=&quot;background-color: initial;&quot;&gt;Se descarga el reporte.&amp;nbsp;&lt;/span&gt;&lt;/div&gt;" style="whiteSpace=wrap;html=1;rounded=0;fontSize=12;align=center;" parent="1" vertex="1">
          <mxGeometry x="2013" y="390" width="120" height="60" as="geometry" />
        </mxCell>
        <mxCell id="5Z_7QFvsqZYLx5hiNaYu-82" style="edgeStyle=none;rounded=0;orthogonalLoop=1;jettySize=auto;html=1;entryX=0.5;entryY=0;entryDx=0;entryDy=0;strokeColor=default;fontSize=12;startSize=8;endSize=8;" parent="1" source="5Z_7QFvsqZYLx5hiNaYu-9" target="5Z_7QFvsqZYLx5hiNaYu-81" edge="1">
          <mxGeometry relative="1" as="geometry" />
        </mxCell>
        <mxCell id="5Z_7QFvsqZYLx5hiNaYu-9" value="Ingresar" style="rounded=1;whiteSpace=wrap;html=1;fontSize=16;arcSize=38;" parent="1" vertex="1">
          <mxGeometry x="364" y="40" width="120" height="40" as="geometry" />
        </mxCell>
        <mxCell id="5Z_7QFvsqZYLx5hiNaYu-12" style="edgeStyle=none;curved=1;rounded=0;orthogonalLoop=1;jettySize=auto;html=1;exitX=0.5;exitY=0;exitDx=0;exitDy=0;fontSize=12;startSize=8;endSize=8;" parent="1" source="5Z_7QFvsqZYLx5hiNaYu-9" target="5Z_7QFvsqZYLx5hiNaYu-9" edge="1">
          <mxGeometry relative="1" as="geometry" />
        </mxCell>
        <mxCell id="5Z_7QFvsqZYLx5hiNaYu-20" value="" style="edgeStyle=none;curved=1;rounded=0;orthogonalLoop=1;jettySize=auto;html=1;fontSize=10;startSize=8;endSize=8;" parent="1" source="5Z_7QFvsqZYLx5hiNaYu-16" target="5Z_7QFvsqZYLx5hiNaYu-19" edge="1">
          <mxGeometry relative="1" as="geometry" />
        </mxCell>
        <mxCell id="5Z_7QFvsqZYLx5hiNaYu-16" value="Crear nuevo reporte&amp;nbsp;de incidencia&amp;nbsp;&lt;br&gt;." style="shape=parallelogram;perimeter=parallelogramPerimeter;whiteSpace=wrap;html=1;fixedSize=1;fontSize=12;size=10;rounded=0;" parent="1" vertex="1">
          <mxGeometry x="284" y="240" width="120" height="60" as="geometry" />
        </mxCell>
        <mxCell id="pmCrkatlPYBzh1t-tQkI-1" value="" style="edgeStyle=orthogonalEdgeStyle;rounded=0;orthogonalLoop=1;jettySize=auto;html=1;strokeColor=default;fontSize=12;startSize=8;endSize=8;" parent="1" source="5Z_7QFvsqZYLx5hiNaYu-19" target="5Z_7QFvsqZYLx5hiNaYu-85" edge="1">
          <mxGeometry relative="1" as="geometry" />
        </mxCell>
        <mxCell id="5Z_7QFvsqZYLx5hiNaYu-19" value="Seleccionar la fecha del reporte.&amp;nbsp;" style="shape=parallelogram;perimeter=parallelogramPerimeter;whiteSpace=wrap;html=1;fixedSize=1;fontSize=12;size=-20;rounded=0;" parent="1" vertex="1">
          <mxGeometry x="284" y="340" width="120" height="60" as="geometry" />
        </mxCell>
        <mxCell id="5Z_7QFvsqZYLx5hiNaYu-34" value="" style="edgeStyle=none;curved=1;rounded=0;orthogonalLoop=1;jettySize=auto;html=1;fontSize=12;startSize=8;endSize=8;" parent="1" source="5Z_7QFvsqZYLx5hiNaYu-27" target="5Z_7QFvsqZYLx5hiNaYu-33" edge="1">
          <mxGeometry relative="1" as="geometry" />
        </mxCell>
        <mxCell id="5Z_7QFvsqZYLx5hiNaYu-27" value="Se crea el registro de las incidencias." style="whiteSpace=wrap;html=1;fontSize=12;rounded=0;" parent="1" vertex="1">
          <mxGeometry x="284" y="545" width="120" height="60" as="geometry" />
        </mxCell>
        <mxCell id="5Z_7QFvsqZYLx5hiNaYu-68" style="edgeStyle=none;rounded=0;orthogonalLoop=1;jettySize=auto;html=1;entryX=0.5;entryY=0;entryDx=0;entryDy=0;strokeColor=default;fontSize=12;startSize=8;endSize=8;" parent="1" source="5Z_7QFvsqZYLx5hiNaYu-33" target="5Z_7QFvsqZYLx5hiNaYu-37" edge="1">
          <mxGeometry relative="1" as="geometry">
            <mxPoint x="484" y="890" as="targetPoint" />
          </mxGeometry>
        </mxCell>
        <mxCell id="5Z_7QFvsqZYLx5hiNaYu-33" value="&lt;font style=&quot;font-size: 12px;&quot;&gt;Se calculan las horas extras existentes en esa semana.&lt;/font&gt;" style="whiteSpace=wrap;html=1;fontSize=16;rounded=0;" parent="1" vertex="1">
          <mxGeometry x="284" y="680" width="120" height="60" as="geometry" />
        </mxCell>
        <mxCell id="pmCrkatlPYBzh1t-tQkI-4" style="edgeStyle=orthogonalEdgeStyle;rounded=0;orthogonalLoop=1;jettySize=auto;html=1;strokeColor=default;fontSize=12;startSize=8;endSize=8;" parent="1" source="5Z_7QFvsqZYLx5hiNaYu-37" target="XzZkjASxkMZa60ipMFVW-2" edge="1">
          <mxGeometry relative="1" as="geometry" />
        </mxCell>
        <mxCell id="5Z_7QFvsqZYLx5hiNaYu-37" value="Se envía el reporte para su aprobación." style="whiteSpace=wrap;html=1;fontSize=12;rounded=1;arcSize=25;" parent="1" vertex="1">
          <mxGeometry x="284" y="800" width="120" height="60" as="geometry" />
        </mxCell>
        <mxCell id="5Z_7QFvsqZYLx5hiNaYu-83" style="edgeStyle=none;rounded=0;orthogonalLoop=1;jettySize=auto;html=1;exitX=0;exitY=0.5;exitDx=0;exitDy=0;entryX=0.5;entryY=0;entryDx=0;entryDy=0;strokeColor=default;fontSize=12;startSize=8;endSize=8;" parent="1" source="5Z_7QFvsqZYLx5hiNaYu-81" target="5Z_7QFvsqZYLx5hiNaYu-16" edge="1">
          <mxGeometry relative="1" as="geometry">
            <Array as="points">
              <mxPoint x="344" y="160" />
            </Array>
          </mxGeometry>
        </mxCell>
        <mxCell id="5Z_7QFvsqZYLx5hiNaYu-84" value="No" style="edgeLabel;html=1;align=center;verticalAlign=middle;resizable=0;points=[];fontSize=12;rounded=0;" parent="5Z_7QFvsqZYLx5hiNaYu-83" vertex="1" connectable="0">
          <mxGeometry x="-0.2006" y="1" relative="1" as="geometry">
            <mxPoint x="-1" y="3" as="offset" />
          </mxGeometry>
        </mxCell>
        <mxCell id="5Z_7QFvsqZYLx5hiNaYu-91" style="edgeStyle=none;rounded=0;orthogonalLoop=1;jettySize=auto;html=1;strokeColor=default;fontSize=12;fontColor=#030303;startSize=8;endSize=8;entryX=0.5;entryY=0;entryDx=0;entryDy=0;" parent="1" source="5Z_7QFvsqZYLx5hiNaYu-81" target="pmCrkatlPYBzh1t-tQkI-26" edge="1">
          <mxGeometry relative="1" as="geometry">
            <Array as="points">
              <mxPoint x="504" y="160" />
              <mxPoint x="504" y="200" />
            </Array>
            <mxPoint x="504" y="240" as="targetPoint" />
          </mxGeometry>
        </mxCell>
        <mxCell id="5Z_7QFvsqZYLx5hiNaYu-92" value="Si" style="edgeLabel;html=1;align=center;verticalAlign=middle;resizable=0;points=[];fontSize=12;fontColor=#030303;rounded=0;" parent="5Z_7QFvsqZYLx5hiNaYu-91" vertex="1" connectable="0">
          <mxGeometry x="-0.5643" y="2" relative="1" as="geometry">
            <mxPoint x="14" y="13" as="offset" />
          </mxGeometry>
        </mxCell>
        <mxCell id="5Z_7QFvsqZYLx5hiNaYu-81" value="Modificar reporte de incidencia." style="rhombus;whiteSpace=wrap;html=1;fontSize=12;rounded=0;" parent="1" vertex="1">
          <mxGeometry x="384" y="120" width="80" height="80" as="geometry" />
        </mxCell>
        <mxCell id="pmCrkatlPYBzh1t-tQkI-2" value="" style="edgeStyle=orthogonalEdgeStyle;rounded=0;orthogonalLoop=1;jettySize=auto;html=1;strokeColor=default;fontSize=12;startSize=8;endSize=8;" parent="1" source="5Z_7QFvsqZYLx5hiNaYu-85" target="5Z_7QFvsqZYLx5hiNaYu-27" edge="1">
          <mxGeometry relative="1" as="geometry" />
        </mxCell>
        <mxCell id="5Z_7QFvsqZYLx5hiNaYu-85" value="&lt;font color=&quot;#030303&quot;&gt;Ingresar las&lt;br style=&quot;border-color: var(--border-color);&quot;&gt;incidencias&amp;nbsp; por&lt;br style=&quot;border-color: var(--border-color);&quot;&gt;día de cada empleado.&lt;/font&gt;" style="shape=parallelogram;perimeter=parallelogramPerimeter;whiteSpace=wrap;html=1;fixedSize=1;labelBackgroundColor=#FFFFFF;fontSize=12;fontColor=#FFFFFF;rounded=0;" parent="1" vertex="1">
          <mxGeometry x="264" y="444" width="160" height="50" as="geometry" />
        </mxCell>
        <mxCell id="pmCrkatlPYBzh1t-tQkI-3" style="edgeStyle=orthogonalEdgeStyle;rounded=0;orthogonalLoop=1;jettySize=auto;html=1;entryX=1;entryY=0.5;entryDx=0;entryDy=0;strokeColor=default;fontSize=12;startSize=8;endSize=8;" parent="1" target="5Z_7QFvsqZYLx5hiNaYu-85" edge="1">
          <mxGeometry relative="1" as="geometry">
            <mxPoint x="504.0434782608695" y="300" as="sourcePoint" />
            <Array as="points">
              <mxPoint x="504" y="469" />
            </Array>
          </mxGeometry>
        </mxCell>
        <mxCell id="pmCrkatlPYBzh1t-tQkI-13" style="edgeStyle=orthogonalEdgeStyle;rounded=0;orthogonalLoop=1;jettySize=auto;html=1;entryX=0.5;entryY=0;entryDx=0;entryDy=0;strokeColor=default;fontSize=12;startSize=8;endSize=8;" parent="1" source="t3x61w4r6xSnHAWXs-r3-1" target="5Z_7QFvsqZYLx5hiNaYu-47" edge="1">
          <mxGeometry relative="1" as="geometry" />
        </mxCell>
        <mxCell id="t3x61w4r6xSnHAWXs-r3-1" value="&lt;font style=&quot;font-size: 12px;&quot;&gt;Se realiza el comparativo con las horas obtenidas en el reporte y las horas registradas en epicor.&lt;/font&gt;" style="rounded=0;whiteSpace=wrap;html=1;shadow=0;glass=0;sketch=0;fontSize=16;" parent="1" vertex="1">
          <mxGeometry x="1220" y="145" width="120" height="120" as="geometry" />
        </mxCell>
        <mxCell id="t3x61w4r6xSnHAWXs-r3-2" value="Fin" style="rounded=1;whiteSpace=wrap;html=1;shadow=0;glass=0;sketch=0;fontSize=16;" parent="1" vertex="1">
          <mxGeometry x="2013" y="510" width="120" height="30" as="geometry" />
        </mxCell>
        <mxCell id="XzZkjASxkMZa60ipMFVW-6" value="" style="edgeStyle=none;curved=1;rounded=0;orthogonalLoop=1;jettySize=auto;html=1;fontSize=12;startSize=8;endSize=8;entryX=0.5;entryY=0;entryDx=0;entryDy=0;exitX=0.5;exitY=1;exitDx=0;exitDy=0;" parent="1" source="t3x61w4r6xSnHAWXs-r3-3" target="pmCrkatlPYBzh1t-tQkI-5" edge="1">
          <mxGeometry relative="1" as="geometry">
            <mxPoint x="1430.000000000016" y="706" as="targetPoint" />
          </mxGeometry>
        </mxCell>
        <mxCell id="t3x61w4r6xSnHAWXs-r3-3" value="&lt;font style=&quot;font-size: 12px;&quot;&gt;Aprobado.&lt;/font&gt;" style="shape=parallelogram;perimeter=parallelogramPerimeter;whiteSpace=wrap;html=1;fixedSize=1;rounded=0;shadow=0;glass=0;fontSize=16;size=11;" parent="1" vertex="1">
          <mxGeometry x="1320" y="425" width="120" height="60" as="geometry" />
        </mxCell>
        <mxCell id="XzZkjASxkMZa60ipMFVW-2" value="1" style="ellipse;whiteSpace=wrap;html=1;aspect=fixed;rounded=0;shadow=0;glass=0;sketch=0;fontSize=12;" parent="1" vertex="1">
          <mxGeometry x="454" y="810" width="40" height="40" as="geometry" />
        </mxCell>
        <mxCell id="pmCrkatlPYBzh1t-tQkI-5" value="2" style="ellipse;whiteSpace=wrap;html=1;aspect=fixed;rounded=0;shadow=0;glass=0;sketch=0;fontSize=12;" parent="1" vertex="1">
          <mxGeometry x="1360" y="525" width="40" height="40" as="geometry" />
        </mxCell>
        <mxCell id="pmCrkatlPYBzh1t-tQkI-9" style="edgeStyle=orthogonalEdgeStyle;rounded=0;orthogonalLoop=1;jettySize=auto;html=1;strokeColor=default;fontSize=12;startSize=8;endSize=8;" parent="1" source="pmCrkatlPYBzh1t-tQkI-6" target="5Z_7QFvsqZYLx5hiNaYu-39" edge="1">
          <mxGeometry relative="1" as="geometry" />
        </mxCell>
        <mxCell id="pmCrkatlPYBzh1t-tQkI-6" value="1" style="ellipse;whiteSpace=wrap;html=1;aspect=fixed;rounded=0;shadow=0;glass=0;sketch=0;fontSize=12;" parent="1" vertex="1">
          <mxGeometry x="1140" y="30" width="40" height="40" as="geometry" />
        </mxCell>
        <mxCell id="pmCrkatlPYBzh1t-tQkI-23" style="edgeStyle=orthogonalEdgeStyle;rounded=0;orthogonalLoop=1;jettySize=auto;html=1;entryX=0;entryY=0.5;entryDx=0;entryDy=0;strokeColor=default;fontSize=12;startSize=8;endSize=8;" parent="1" source="pmCrkatlPYBzh1t-tQkI-7" target="5Z_7QFvsqZYLx5hiNaYu-96" edge="1">
          <mxGeometry relative="1" as="geometry" />
        </mxCell>
        <mxCell id="pmCrkatlPYBzh1t-tQkI-7" value="2" style="ellipse;whiteSpace=wrap;html=1;aspect=fixed;rounded=0;shadow=0;glass=0;sketch=0;fontSize=12;" parent="1" vertex="1">
          <mxGeometry x="1920" y="30" width="40" height="40" as="geometry" />
        </mxCell>
        <mxCell id="5Z_7QFvsqZYLx5hiNaYu-39" value="Ingresar gerente" style="rounded=1;whiteSpace=wrap;html=1;fontSize=16;arcSize=32;" parent="1" vertex="1">
          <mxGeometry x="1220" y="30" width="120" height="40" as="geometry" />
        </mxCell>
        <mxCell id="pmCrkatlPYBzh1t-tQkI-19" style="edgeStyle=orthogonalEdgeStyle;rounded=0;orthogonalLoop=1;jettySize=auto;html=1;strokeColor=default;fontSize=12;startSize=8;endSize=8;" parent="1" source="pmCrkatlPYBzh1t-tQkI-17" target="5Z_7QFvsqZYLx5hiNaYu-98" edge="1">
          <mxGeometry relative="1" as="geometry" />
        </mxCell>
        <mxCell id="pmCrkatlPYBzh1t-tQkI-17" value="&lt;font style=&quot;font-size: 12px;&quot;&gt;Se realiza el comparativo con las horas obtenidas en el reporte y las horas registradas en epicor.&lt;/font&gt;" style="rounded=0;whiteSpace=wrap;html=1;shadow=0;glass=0;sketch=0;fontSize=16;" parent="1" vertex="1">
          <mxGeometry x="2013" y="230" width="120" height="120" as="geometry" />
        </mxCell>
        <mxCell id="pmCrkatlPYBzh1t-tQkI-26" value="Seleccionar reporte." style="shape=parallelogram;perimeter=parallelogramPerimeter;whiteSpace=wrap;html=1;fixedSize=1;fontSize=12;size=10;rounded=0;" parent="1" vertex="1">
          <mxGeometry x="444" y="240" width="120" height="60" as="geometry" />
        </mxCell>
        <mxCell id="mppb7pQ2llq3sMJZj9XO-1" value="Se envía a supervisor para modificación del reporte." style="whiteSpace=wrap;html=1;rounded=0;arcSize=0;fontSize=12;" parent="1" vertex="1">
          <mxGeometry x="1140" y="525" width="120" height="60" as="geometry" />
        </mxCell>
        <mxCell id="mppb7pQ2llq3sMJZj9XO-8" value="" style="edgeStyle=orthogonalEdgeStyle;rounded=0;orthogonalLoop=1;jettySize=auto;html=1;fontSize=12;startSize=8;endSize=8;exitX=0;exitY=0.5;exitDx=0;exitDy=0;entryX=0.5;entryY=0;entryDx=0;entryDy=0;" parent="1" source="mppb7pQ2llq3sMJZj9XO-10" target="mppb7pQ2llq3sMJZj9XO-12" edge="1">
          <mxGeometry relative="1" as="geometry" />
        </mxCell>
        <mxCell id="mppb7pQ2llq3sMJZj9XO-57" value="No" style="edgeLabel;html=1;align=center;verticalAlign=middle;resizable=0;points=[];fontSize=12;" parent="mppb7pQ2llq3sMJZj9XO-8" vertex="1" connectable="0">
          <mxGeometry x="-0.2485" y="-2" relative="1" as="geometry">
            <mxPoint x="2" y="8" as="offset" />
          </mxGeometry>
        </mxCell>
        <mxCell id="mppb7pQ2llq3sMJZj9XO-10" value="¿Esta correcto ?" style="rhombus;whiteSpace=wrap;html=1;rounded=0;arcSize=0;fontSize=12;" parent="1" vertex="1">
          <mxGeometry x="1230" y="315" width="99" height="90" as="geometry" />
        </mxCell>
        <mxCell id="mppb7pQ2llq3sMJZj9XO-11" style="edgeStyle=orthogonalEdgeStyle;rounded=0;orthogonalLoop=1;jettySize=auto;html=1;entryX=0.5;entryY=0;entryDx=0;entryDy=0;strokeColor=default;fontSize=12;startSize=8;endSize=8;" parent="1" source="mppb7pQ2llq3sMJZj9XO-12" target="mppb7pQ2llq3sMJZj9XO-18" edge="1">
          <mxGeometry relative="1" as="geometry" />
        </mxCell>
        <mxCell id="mppb7pQ2llq3sMJZj9XO-12" value="Rechazado." style="shape=parallelogram;perimeter=parallelogramPerimeter;whiteSpace=wrap;html=1;fixedSize=1;rounded=0;arcSize=0;fontSize=12;size=10;" parent="1" vertex="1">
          <mxGeometry x="1140" y="430" width="120" height="60" as="geometry" />
        </mxCell>
        <mxCell id="mppb7pQ2llq3sMJZj9XO-13" style="edgeStyle=orthogonalEdgeStyle;rounded=0;orthogonalLoop=1;jettySize=auto;html=1;entryX=0.5;entryY=0;entryDx=0;entryDy=0;strokeColor=default;fontSize=12;startSize=8;endSize=8;" parent="1" source="mppb7pQ2llq3sMJZj9XO-14" target="mppb7pQ2llq3sMJZj9XO-10" edge="1">
          <mxGeometry relative="1" as="geometry" />
        </mxCell>
        <mxCell id="mppb7pQ2llq3sMJZj9XO-14" value="&lt;font style=&quot;font-size: 12px;&quot;&gt;Se realiza el comparativo con las horas obtenidas en el reporte y las horas registradas en epicor.&lt;/font&gt;" style="rounded=0;whiteSpace=wrap;html=1;shadow=0;glass=0;sketch=0;fontSize=16;" parent="1" vertex="1">
          <mxGeometry x="1220" y="145" width="120" height="120" as="geometry" />
        </mxCell>
        <mxCell id="mppb7pQ2llq3sMJZj9XO-15" style="edgeStyle=orthogonalEdgeStyle;rounded=0;orthogonalLoop=1;jettySize=auto;html=1;strokeColor=default;fontSize=12;startSize=8;endSize=8;" parent="1" source="mppb7pQ2llq3sMJZj9XO-16" target="mppb7pQ2llq3sMJZj9XO-17" edge="1">
          <mxGeometry relative="1" as="geometry" />
        </mxCell>
        <mxCell id="mppb7pQ2llq3sMJZj9XO-16" value="1" style="ellipse;whiteSpace=wrap;html=1;aspect=fixed;rounded=0;shadow=0;glass=0;sketch=0;fontSize=12;" parent="1" vertex="1">
          <mxGeometry x="1140" y="30" width="40" height="40" as="geometry" />
        </mxCell>
        <mxCell id="Uv0QJ-UrVZCGWiw-fc7z-1" style="edgeStyle=none;curved=1;rounded=0;orthogonalLoop=1;jettySize=auto;html=1;entryX=0.5;entryY=0;entryDx=0;entryDy=0;fontSize=12;startSize=8;endSize=8;" parent="1" source="mppb7pQ2llq3sMJZj9XO-17" target="mppb7pQ2llq3sMJZj9XO-14" edge="1">
          <mxGeometry relative="1" as="geometry" />
        </mxCell>
        <mxCell id="mppb7pQ2llq3sMJZj9XO-17" value="Recibe reporte." style="rounded=1;whiteSpace=wrap;html=1;fontSize=16;arcSize=32;" parent="1" vertex="1">
          <mxGeometry x="1220" y="30" width="120" height="40" as="geometry" />
        </mxCell>
        <mxCell id="mppb7pQ2llq3sMJZj9XO-18" value="Se devuelve al supervisor para modificación.&amp;nbsp;" style="whiteSpace=wrap;html=1;rounded=0;arcSize=0;fontSize=12;" parent="1" vertex="1">
          <mxGeometry x="1140" y="525" width="120" height="60" as="geometry" />
        </mxCell>
        <mxCell id="mppb7pQ2llq3sMJZj9XO-19" value="&lt;font style=&quot;font-size: 12px;&quot;&gt;Aprobado.&lt;/font&gt;" style="shape=parallelogram;perimeter=parallelogramPerimeter;whiteSpace=wrap;html=1;fixedSize=1;rounded=0;shadow=0;glass=0;fontSize=16;size=11;" parent="1" vertex="1">
          <mxGeometry x="1320" y="425" width="120" height="60" as="geometry" />
        </mxCell>
        <mxCell id="Stmk5xcoeeXSJGBWW0_Z-1" style="edgeStyle=orthogonalEdgeStyle;rounded=0;orthogonalLoop=1;jettySize=auto;html=1;entryX=0.5;entryY=0;entryDx=0;entryDy=0;fontSize=9;startSize=8;endSize=8;" parent="1" source="d-JYZsfsP2iwG3mxjxAK-1" target="d-JYZsfsP2iwG3mxjxAK-22" edge="1">
          <mxGeometry relative="1" as="geometry" />
        </mxCell>
        <mxCell id="d-JYZsfsP2iwG3mxjxAK-1" value="Ingresa supervisor&amp;nbsp;" style="rounded=1;whiteSpace=wrap;html=1;fontSize=9;" parent="1" vertex="1">
          <mxGeometry x="-133.5" y="1230" width="85" height="25" as="geometry" />
        </mxCell>
        <mxCell id="d-JYZsfsP2iwG3mxjxAK-24" style="edgeStyle=orthogonalEdgeStyle;rounded=0;orthogonalLoop=1;jettySize=auto;html=1;entryX=0.5;entryY=0;entryDx=0;entryDy=0;fontSize=9;startSize=8;endSize=8;exitX=0;exitY=0.5;exitDx=0;exitDy=0;" parent="1" source="d-JYZsfsP2iwG3mxjxAK-22" target="d-JYZsfsP2iwG3mxjxAK-28" edge="1">
          <mxGeometry relative="1" as="geometry">
            <mxPoint x="-346.97" y="1398.88" as="targetPoint" />
          </mxGeometry>
        </mxCell>
        <mxCell id="d-JYZsfsP2iwG3mxjxAK-70" value="Si" style="edgeLabel;html=1;align=center;verticalAlign=middle;resizable=0;points=[];fontSize=9;" parent="d-JYZsfsP2iwG3mxjxAK-24" vertex="1" connectable="0">
          <mxGeometry x="0.0355" y="-1" relative="1" as="geometry">
            <mxPoint x="-2" y="1" as="offset" />
          </mxGeometry>
        </mxCell>
        <mxCell id="Stmk5xcoeeXSJGBWW0_Z-46" style="edgeStyle=orthogonalEdgeStyle;rounded=0;orthogonalLoop=1;jettySize=auto;html=1;fontSize=11;startSize=8;endSize=8;entryX=0.5;entryY=0;entryDx=0;entryDy=0;" parent="1" source="d-JYZsfsP2iwG3mxjxAK-22" target="Stmk5xcoeeXSJGBWW0_Z-35" edge="1">
          <mxGeometry relative="1" as="geometry">
            <Array as="points">
              <mxPoint x="40" y="1330" />
              <mxPoint x="40" y="1330" />
            </Array>
          </mxGeometry>
        </mxCell>
        <mxCell id="Stmk5xcoeeXSJGBWW0_Z-47" value="No" style="edgeLabel;html=1;align=center;verticalAlign=middle;resizable=0;points=[];fontSize=9;" parent="Stmk5xcoeeXSJGBWW0_Z-46" vertex="1" connectable="0">
          <mxGeometry x="-0.5596" y="1" relative="1" as="geometry">
            <mxPoint as="offset" />
          </mxGeometry>
        </mxCell>
        <mxCell id="d-JYZsfsP2iwG3mxjxAK-22" value="&lt;font style=&quot;font-size: 9px;&quot;&gt;¿Registrar tiempo extra?&lt;/font&gt;" style="rhombus;whiteSpace=wrap;html=1;fontSize=11;" parent="1" vertex="1">
          <mxGeometry x="-136" y="1290" width="90" height="80" as="geometry" />
        </mxCell>
        <mxCell id="Stmk5xcoeeXSJGBWW0_Z-116" style="edgeStyle=orthogonalEdgeStyle;rounded=0;orthogonalLoop=1;jettySize=auto;html=1;entryX=0.5;entryY=0;entryDx=0;entryDy=0;fontSize=9;startSize=8;endSize=8;" parent="1" source="d-JYZsfsP2iwG3mxjxAK-28" target="Stmk5xcoeeXSJGBWW0_Z-115" edge="1">
          <mxGeometry relative="1" as="geometry" />
        </mxCell>
        <mxCell id="d-JYZsfsP2iwG3mxjxAK-28" value="Seleccionar el empleado." style="rounded=0;whiteSpace=wrap;html=1;fontSize=9;" parent="1" vertex="1">
          <mxGeometry x="-395" y="1370" width="110" height="50" as="geometry" />
        </mxCell>
        <mxCell id="MjHyP-wAd7tn_aHZbA73-4" style="edgeStyle=orthogonalEdgeStyle;rounded=0;orthogonalLoop=1;jettySize=auto;html=1;entryX=0.5;entryY=0;entryDx=0;entryDy=0;fontSize=9;startSize=8;endSize=8;" parent="1" source="d-JYZsfsP2iwG3mxjxAK-31" target="MjHyP-wAd7tn_aHZbA73-16" edge="1">
          <mxGeometry relative="1" as="geometry" />
        </mxCell>
        <mxCell id="d-JYZsfsP2iwG3mxjxAK-31" value="Obtener registro&amp;nbsp; semanal del empleado en BioTime. (Reloj checador)&amp;nbsp;" style="rounded=0;whiteSpace=wrap;html=1;fontSize=9;" parent="1" vertex="1">
          <mxGeometry x="-405" y="1505" width="120" height="60" as="geometry" />
        </mxCell>
        <mxCell id="Stmk5xcoeeXSJGBWW0_Z-118" style="edgeStyle=orthogonalEdgeStyle;rounded=0;orthogonalLoop=1;jettySize=auto;html=1;fontSize=9;startSize=8;endSize=8;exitX=1;exitY=0.5;exitDx=0;exitDy=0;" parent="1" source="d-JYZsfsP2iwG3mxjxAK-42" target="MjHyP-wAd7tn_aHZbA73-5" edge="1">
          <mxGeometry relative="1" as="geometry">
            <mxPoint x="-304" y="1880" as="targetPoint" />
            <Array as="points">
              <mxPoint x="-120" y="1815" />
            </Array>
          </mxGeometry>
        </mxCell>
        <mxCell id="Stmk5xcoeeXSJGBWW0_Z-119" value="Si" style="edgeLabel;html=1;align=center;verticalAlign=middle;resizable=0;points=[];fontSize=9;" parent="Stmk5xcoeeXSJGBWW0_Z-118" vertex="1" connectable="0">
          <mxGeometry x="-0.4431" y="-1" relative="1" as="geometry">
            <mxPoint as="offset" />
          </mxGeometry>
        </mxCell>
        <mxCell id="Stmk5xcoeeXSJGBWW0_Z-78" style="edgeStyle=orthogonalEdgeStyle;rounded=0;orthogonalLoop=1;jettySize=auto;html=1;fontSize=9;startSize=8;endSize=8;" parent="1" source="Stmk5xcoeeXSJGBWW0_Z-2" target="Stmk5xcoeeXSJGBWW0_Z-71" edge="1">
          <mxGeometry relative="1" as="geometry" />
        </mxCell>
        <mxCell id="Stmk5xcoeeXSJGBWW0_Z-2" value="Recibe solicitud gerente&amp;nbsp;" style="rounded=1;whiteSpace=wrap;html=1;shadow=0;glass=0;sketch=0;fontSize=11;" parent="1" vertex="1">
          <mxGeometry x="4470" y="1551" width="120" height="30" as="geometry" />
        </mxCell>
        <mxCell id="Stmk5xcoeeXSJGBWW0_Z-11" style="edgeStyle=orthogonalEdgeStyle;rounded=0;orthogonalLoop=1;jettySize=auto;html=1;entryX=0.5;entryY=0;entryDx=0;entryDy=0;fontSize=9;startSize=8;endSize=8;" parent="1" source="Stmk5xcoeeXSJGBWW0_Z-3" target="Stmk5xcoeeXSJGBWW0_Z-5" edge="1">
          <mxGeometry relative="1" as="geometry" />
        </mxCell>
        <mxCell id="Stmk5xcoeeXSJGBWW0_Z-3" value="Seleccionar&amp;nbsp; solicitud&amp;nbsp;" style="rounded=0;whiteSpace=wrap;html=1;shadow=0;glass=0;sketch=0;fontSize=11;" parent="1" vertex="1">
          <mxGeometry x="4660" y="1841" width="120" height="40" as="geometry" />
        </mxCell>
        <mxCell id="Stmk5xcoeeXSJGBWW0_Z-6" style="edgeStyle=orthogonalEdgeStyle;rounded=0;orthogonalLoop=1;jettySize=auto;html=1;fontSize=9;startSize=8;endSize=8;" parent="1" source="Stmk5xcoeeXSJGBWW0_Z-5" edge="1">
          <mxGeometry relative="1" as="geometry">
            <mxPoint x="4600" y="2061" as="targetPoint" />
          </mxGeometry>
        </mxCell>
        <mxCell id="Stmk5xcoeeXSJGBWW0_Z-49" value="No" style="edgeLabel;html=1;align=center;verticalAlign=middle;resizable=0;points=[];fontSize=9;" parent="Stmk5xcoeeXSJGBWW0_Z-6" vertex="1" connectable="0">
          <mxGeometry x="-0.3985" y="2" relative="1" as="geometry">
            <mxPoint as="offset" />
          </mxGeometry>
        </mxCell>
        <mxCell id="Stmk5xcoeeXSJGBWW0_Z-10" style="edgeStyle=orthogonalEdgeStyle;rounded=0;orthogonalLoop=1;jettySize=auto;html=1;entryX=0.5;entryY=0;entryDx=0;entryDy=0;fontSize=9;startSize=8;endSize=8;exitX=1;exitY=0.5;exitDx=0;exitDy=0;" parent="1" source="Stmk5xcoeeXSJGBWW0_Z-5" edge="1">
          <mxGeometry relative="1" as="geometry">
            <mxPoint x="4820" y="2061" as="targetPoint" />
          </mxGeometry>
        </mxCell>
        <mxCell id="Stmk5xcoeeXSJGBWW0_Z-50" value="Si" style="edgeLabel;html=1;align=center;verticalAlign=middle;resizable=0;points=[];fontSize=9;" parent="Stmk5xcoeeXSJGBWW0_Z-10" vertex="1" connectable="0">
          <mxGeometry x="-0.5744" relative="1" as="geometry">
            <mxPoint as="offset" />
          </mxGeometry>
        </mxCell>
        <mxCell id="Stmk5xcoeeXSJGBWW0_Z-5" value="&lt;font style=&quot;font-size: 9px;&quot;&gt;¿Cumple con las horas extras permitidas en el área ?&lt;/font&gt;" style="rhombus;whiteSpace=wrap;html=1;shadow=0;glass=0;sketch=0;fontSize=11;" parent="1" vertex="1">
          <mxGeometry x="4650" y="1921" width="140" height="120" as="geometry" />
        </mxCell>
        <mxCell id="Stmk5xcoeeXSJGBWW0_Z-8" value="Se aprueba la solicitud" style="shape=parallelogram;perimeter=parallelogramPerimeter;whiteSpace=wrap;html=1;fixedSize=1;shadow=0;glass=0;sketch=0;fontSize=9;" parent="1" vertex="1">
          <mxGeometry x="4760" y="2061" width="120" height="60" as="geometry" />
        </mxCell>
        <mxCell id="Stmk5xcoeeXSJGBWW0_Z-15" style="edgeStyle=orthogonalEdgeStyle;rounded=0;orthogonalLoop=1;jettySize=auto;html=1;entryX=0.5;entryY=0;entryDx=0;entryDy=0;fontSize=11;startSize=8;endSize=8;" parent="1" target="Stmk5xcoeeXSJGBWW0_Z-13" edge="1">
          <mxGeometry relative="1" as="geometry">
            <mxPoint x="4520" y="1201" as="sourcePoint" />
          </mxGeometry>
        </mxCell>
        <mxCell id="YKszYrYKdScUd-_070sJ-169" style="edgeStyle=orthogonalEdgeStyle;rounded=0;orthogonalLoop=1;jettySize=auto;html=1;exitX=0.75;exitY=1;exitDx=0;exitDy=0;entryX=0.75;entryY=0;entryDx=0;entryDy=0;fontSize=9;startSize=8;endSize=8;" parent="1" source="Stmk5xcoeeXSJGBWW0_Z-12" target="Stmk5xcoeeXSJGBWW0_Z-13" edge="1">
          <mxGeometry relative="1" as="geometry" />
        </mxCell>
        <mxCell id="Stmk5xcoeeXSJGBWW0_Z-12" value="Ingresa director&amp;nbsp;" style="rounded=1;whiteSpace=wrap;html=1;shadow=0;glass=0;sketch=0;fontSize=11;" parent="1" vertex="1">
          <mxGeometry x="4455" y="1180" width="120" height="30" as="geometry" />
        </mxCell>
        <mxCell id="Stmk5xcoeeXSJGBWW0_Z-14" style="edgeStyle=orthogonalEdgeStyle;rounded=0;orthogonalLoop=1;jettySize=auto;html=1;fontSize=11;startSize=8;endSize=8;" parent="1" source="Stmk5xcoeeXSJGBWW0_Z-13" edge="1">
          <mxGeometry relative="1" as="geometry">
            <mxPoint x="4520" y="1331" as="targetPoint" />
          </mxGeometry>
        </mxCell>
        <mxCell id="Stmk5xcoeeXSJGBWW0_Z-13" value="Selecciona la solicitud de tiempo extra" style="rounded=0;whiteSpace=wrap;html=1;shadow=0;glass=0;sketch=0;fontSize=11;" parent="1" vertex="1">
          <mxGeometry x="4460" y="1241" width="120" height="40" as="geometry" />
        </mxCell>
        <mxCell id="Stmk5xcoeeXSJGBWW0_Z-18" style="edgeStyle=orthogonalEdgeStyle;rounded=0;orthogonalLoop=1;jettySize=auto;html=1;fontSize=11;startSize=8;endSize=8;" parent="1" source="Stmk5xcoeeXSJGBWW0_Z-17" target="Stmk5xcoeeXSJGBWW0_Z-19" edge="1">
          <mxGeometry relative="1" as="geometry">
            <mxPoint x="4400" y="1451" as="targetPoint" />
          </mxGeometry>
        </mxCell>
        <mxCell id="Stmk5xcoeeXSJGBWW0_Z-21" style="edgeStyle=orthogonalEdgeStyle;rounded=0;orthogonalLoop=1;jettySize=auto;html=1;fontSize=11;startSize=8;endSize=8;" parent="1" source="Stmk5xcoeeXSJGBWW0_Z-17" target="Stmk5xcoeeXSJGBWW0_Z-20" edge="1">
          <mxGeometry relative="1" as="geometry" />
        </mxCell>
        <mxCell id="Stmk5xcoeeXSJGBWW0_Z-17" value="¿Es&amp;nbsp; correcta la información ?" style="rhombus;whiteSpace=wrap;html=1;shadow=0;glass=0;sketch=0;fontSize=11;" parent="1" vertex="1">
          <mxGeometry x="4455" y="1331" width="130" height="100" as="geometry" />
        </mxCell>
        <mxCell id="Stmk5xcoeeXSJGBWW0_Z-19" value="Aprobar la solicitud&amp;nbsp;" style="shape=parallelogram;perimeter=parallelogramPerimeter;whiteSpace=wrap;html=1;fixedSize=1;shadow=0;glass=0;sketch=0;fontSize=11;" parent="1" vertex="1">
          <mxGeometry x="4330" y="1451" width="120" height="60" as="geometry" />
        </mxCell>
        <mxCell id="Stmk5xcoeeXSJGBWW0_Z-20" value="Rechazar la&lt;br&gt;&amp;nbsp;solicitud" style="shape=parallelogram;perimeter=parallelogramPerimeter;whiteSpace=wrap;html=1;fixedSize=1;shadow=0;glass=0;sketch=0;fontSize=11;" parent="1" vertex="1">
          <mxGeometry x="4600" y="1451" width="120" height="60" as="geometry" />
        </mxCell>
        <mxCell id="Stmk5xcoeeXSJGBWW0_Z-137" style="edgeStyle=orthogonalEdgeStyle;rounded=0;orthogonalLoop=1;jettySize=auto;html=1;entryX=0.5;entryY=0;entryDx=0;entryDy=0;fontSize=9;startSize=8;endSize=8;" parent="1" source="Stmk5xcoeeXSJGBWW0_Z-24" target="Stmk5xcoeeXSJGBWW0_Z-37" edge="1">
          <mxGeometry relative="1" as="geometry" />
        </mxCell>
        <mxCell id="Stmk5xcoeeXSJGBWW0_Z-24" value="Crear nuevo reporte&amp;nbsp;de incidencias." style="shape=parallelogram;perimeter=parallelogramPerimeter;whiteSpace=wrap;html=1;fixedSize=1;fontSize=9;size=10;rounded=0;" parent="1" vertex="1">
          <mxGeometry x="-26" y="1480" width="120" height="60" as="geometry" />
        </mxCell>
        <mxCell id="Stmk5xcoeeXSJGBWW0_Z-112" style="edgeStyle=orthogonalEdgeStyle;rounded=0;orthogonalLoop=1;jettySize=auto;html=1;fontSize=9;startSize=8;endSize=8;" parent="1" source="Stmk5xcoeeXSJGBWW0_Z-30" target="Stmk5xcoeeXSJGBWW0_Z-113" edge="1">
          <mxGeometry relative="1" as="geometry">
            <mxPoint x="34" y="2100" as="targetPoint" />
          </mxGeometry>
        </mxCell>
        <mxCell id="Stmk5xcoeeXSJGBWW0_Z-30" value="&lt;font style=&quot;font-size: 9px;&quot;&gt;Se calculan las horas extras existentes en esa semana.&lt;/font&gt;" style="whiteSpace=wrap;html=1;fontSize=9;rounded=0;" parent="1" vertex="1">
          <mxGeometry x="-26" y="1660" width="120" height="60" as="geometry" />
        </mxCell>
        <mxCell id="Stmk5xcoeeXSJGBWW0_Z-42" style="edgeStyle=orthogonalEdgeStyle;rounded=0;orthogonalLoop=1;jettySize=auto;html=1;entryX=0.5;entryY=0;entryDx=0;entryDy=0;fontSize=11;startSize=8;endSize=8;exitX=0;exitY=0.5;exitDx=0;exitDy=0;" parent="1" source="Stmk5xcoeeXSJGBWW0_Z-35" target="Stmk5xcoeeXSJGBWW0_Z-24" edge="1">
          <mxGeometry relative="1" as="geometry">
            <Array as="points">
              <mxPoint x="34" y="1390" />
            </Array>
          </mxGeometry>
        </mxCell>
        <mxCell id="Stmk5xcoeeXSJGBWW0_Z-44" value="No" style="edgeLabel;html=1;align=center;verticalAlign=middle;resizable=0;points=[];fontSize=9;" parent="Stmk5xcoeeXSJGBWW0_Z-42" vertex="1" connectable="0">
          <mxGeometry x="-0.1056" y="3" relative="1" as="geometry">
            <mxPoint x="-3" y="-32" as="offset" />
          </mxGeometry>
        </mxCell>
        <mxCell id="Stmk5xcoeeXSJGBWW0_Z-43" style="edgeStyle=orthogonalEdgeStyle;rounded=0;orthogonalLoop=1;jettySize=auto;html=1;fontSize=11;startSize=8;endSize=8;exitX=1;exitY=0.5;exitDx=0;exitDy=0;" parent="1" source="Stmk5xcoeeXSJGBWW0_Z-35" target="Stmk5xcoeeXSJGBWW0_Z-40" edge="1">
          <mxGeometry relative="1" as="geometry">
            <Array as="points">
              <mxPoint x="180" y="1390" />
            </Array>
          </mxGeometry>
        </mxCell>
        <mxCell id="Stmk5xcoeeXSJGBWW0_Z-45" value="Si" style="edgeLabel;html=1;align=center;verticalAlign=middle;resizable=0;points=[];fontSize=9;" parent="Stmk5xcoeeXSJGBWW0_Z-43" vertex="1" connectable="0">
          <mxGeometry x="0.1722" y="-1" relative="1" as="geometry">
            <mxPoint x="-1" y="-50" as="offset" />
          </mxGeometry>
        </mxCell>
        <mxCell id="Stmk5xcoeeXSJGBWW0_Z-35" value="&lt;font style=&quot;font-size: 9px;&quot;&gt;¿Modificar reporte de incidencias?.&lt;/font&gt;" style="rhombus;whiteSpace=wrap;html=1;fontSize=9;rounded=0;" parent="1" vertex="1">
          <mxGeometry x="65" y="1350" width="80" height="80" as="geometry" />
        </mxCell>
        <mxCell id="Stmk5xcoeeXSJGBWW0_Z-36" value="" style="edgeStyle=orthogonalEdgeStyle;rounded=0;orthogonalLoop=1;jettySize=auto;html=1;strokeColor=default;fontSize=9;startSize=8;endSize=8;" parent="1" source="Stmk5xcoeeXSJGBWW0_Z-37" edge="1">
          <mxGeometry relative="1" as="geometry">
            <mxPoint x="34" y="1660" as="targetPoint" />
          </mxGeometry>
        </mxCell>
        <mxCell id="Stmk5xcoeeXSJGBWW0_Z-37" value="&lt;font color=&quot;#030303&quot; style=&quot;font-size: 9px;&quot;&gt;Ingresar las&lt;br style=&quot;border-color: var(--border-color); font-size: 9px;&quot;&gt;incidencias&amp;nbsp; por&lt;br style=&quot;border-color: var(--border-color); font-size: 9px;&quot;&gt;día de cada empleado.&lt;/font&gt;" style="shape=parallelogram;perimeter=parallelogramPerimeter;whiteSpace=wrap;html=1;fixedSize=1;labelBackgroundColor=#FFFFFF;fontSize=9;fontColor=#FFFFFF;rounded=0;" parent="1" vertex="1">
          <mxGeometry x="-34" y="1575" width="136" height="50" as="geometry" />
        </mxCell>
        <mxCell id="Stmk5xcoeeXSJGBWW0_Z-38" style="edgeStyle=orthogonalEdgeStyle;rounded=0;orthogonalLoop=1;jettySize=auto;html=1;strokeColor=default;fontSize=9;startSize=8;endSize=8;entryX=1;entryY=0.5;entryDx=0;entryDy=0;exitX=0.5;exitY=1;exitDx=0;exitDy=0;" parent="1" source="Stmk5xcoeeXSJGBWW0_Z-40" target="Stmk5xcoeeXSJGBWW0_Z-30" edge="1">
          <mxGeometry relative="1" as="geometry">
            <mxPoint x="194.0434782608695" y="1580" as="sourcePoint" />
            <Array as="points">
              <mxPoint x="174" y="1690" />
            </Array>
          </mxGeometry>
        </mxCell>
        <mxCell id="Stmk5xcoeeXSJGBWW0_Z-40" value="Modifica el reporte de incidencias." style="shape=parallelogram;perimeter=parallelogramPerimeter;whiteSpace=wrap;html=1;fixedSize=1;fontSize=9;size=-14;rounded=0;" parent="1" vertex="1">
          <mxGeometry x="114" y="1480" width="120" height="60" as="geometry" />
        </mxCell>
        <mxCell id="Stmk5xcoeeXSJGBWW0_Z-51" value="" style="edgeStyle=orthogonalEdgeStyle;rounded=0;orthogonalLoop=1;jettySize=auto;html=1;fontSize=12;startSize=8;endSize=8;exitX=0;exitY=0.5;exitDx=0;exitDy=0;entryX=0.5;entryY=0;entryDx=0;entryDy=0;" parent="1" source="Stmk5xcoeeXSJGBWW0_Z-54" target="Stmk5xcoeeXSJGBWW0_Z-56" edge="1">
          <mxGeometry relative="1" as="geometry" />
        </mxCell>
        <mxCell id="Stmk5xcoeeXSJGBWW0_Z-52" style="edgeStyle=orthogonalEdgeStyle;rounded=0;orthogonalLoop=1;jettySize=auto;html=1;fontSize=12;startSize=8;endSize=8;exitX=1;exitY=0.5;exitDx=0;exitDy=0;" parent="1" source="Stmk5xcoeeXSJGBWW0_Z-54" target="Stmk5xcoeeXSJGBWW0_Z-59" edge="1">
          <mxGeometry relative="1" as="geometry">
            <mxPoint x="4360" y="2397" as="targetPoint" />
            <Array as="points">
              <mxPoint x="4400" y="2076" />
            </Array>
          </mxGeometry>
        </mxCell>
        <mxCell id="Stmk5xcoeeXSJGBWW0_Z-53" value="Si" style="edgeLabel;html=1;align=center;verticalAlign=middle;resizable=0;points=[];fontSize=12;" parent="Stmk5xcoeeXSJGBWW0_Z-52" vertex="1" connectable="0">
          <mxGeometry x="-0.4857" relative="1" as="geometry">
            <mxPoint x="21" y="17" as="offset" />
          </mxGeometry>
        </mxCell>
        <mxCell id="Stmk5xcoeeXSJGBWW0_Z-54" value="¿Esta correcto ?" style="rhombus;whiteSpace=wrap;html=1;rounded=0;arcSize=0;fontSize=12;" parent="1" vertex="1">
          <mxGeometry x="4250" y="2031" width="99" height="90" as="geometry" />
        </mxCell>
        <mxCell id="Stmk5xcoeeXSJGBWW0_Z-55" style="edgeStyle=orthogonalEdgeStyle;rounded=0;orthogonalLoop=1;jettySize=auto;html=1;entryX=0.5;entryY=0;entryDx=0;entryDy=0;strokeColor=default;fontSize=12;startSize=8;endSize=8;" parent="1" source="Stmk5xcoeeXSJGBWW0_Z-56" target="Stmk5xcoeeXSJGBWW0_Z-61" edge="1">
          <mxGeometry relative="1" as="geometry" />
        </mxCell>
        <mxCell id="Stmk5xcoeeXSJGBWW0_Z-56" value="Rechazado." style="shape=parallelogram;perimeter=parallelogramPerimeter;whiteSpace=wrap;html=1;fixedSize=1;rounded=0;arcSize=0;fontSize=12;size=10;" parent="1" vertex="1">
          <mxGeometry x="4160" y="2146" width="120" height="60" as="geometry" />
        </mxCell>
        <mxCell id="Stmk5xcoeeXSJGBWW0_Z-57" style="edgeStyle=orthogonalEdgeStyle;rounded=0;orthogonalLoop=1;jettySize=auto;html=1;entryX=0.5;entryY=0;entryDx=0;entryDy=0;strokeColor=default;fontSize=12;startSize=8;endSize=8;" parent="1" target="Stmk5xcoeeXSJGBWW0_Z-54" edge="1">
          <mxGeometry relative="1" as="geometry">
            <mxPoint x="4300" y="1981" as="sourcePoint" />
          </mxGeometry>
        </mxCell>
        <mxCell id="Stmk5xcoeeXSJGBWW0_Z-58" value="" style="edgeStyle=none;curved=1;rounded=0;orthogonalLoop=1;jettySize=auto;html=1;fontSize=12;startSize=8;endSize=8;entryX=0.5;entryY=0;entryDx=0;entryDy=0;exitX=0.5;exitY=1;exitDx=0;exitDy=0;" parent="1" source="Stmk5xcoeeXSJGBWW0_Z-59" edge="1">
          <mxGeometry relative="1" as="geometry">
            <mxPoint x="4400" y="2241" as="targetPoint" />
          </mxGeometry>
        </mxCell>
        <mxCell id="Stmk5xcoeeXSJGBWW0_Z-59" value="&lt;font style=&quot;font-size: 12px;&quot;&gt;Aprobado.&lt;/font&gt;" style="shape=parallelogram;perimeter=parallelogramPerimeter;whiteSpace=wrap;html=1;fixedSize=1;rounded=0;shadow=0;glass=0;fontSize=16;size=11;" parent="1" vertex="1">
          <mxGeometry x="4340" y="2141" width="120" height="60" as="geometry" />
        </mxCell>
        <mxCell id="Stmk5xcoeeXSJGBWW0_Z-61" value="Se envía a supervisor para modificación del reporte." style="whiteSpace=wrap;html=1;rounded=0;arcSize=0;fontSize=12;" parent="1" vertex="1">
          <mxGeometry x="4160" y="2241" width="120" height="60" as="geometry" />
        </mxCell>
        <mxCell id="Stmk5xcoeeXSJGBWW0_Z-62" value="" style="edgeStyle=orthogonalEdgeStyle;rounded=0;orthogonalLoop=1;jettySize=auto;html=1;fontSize=12;startSize=8;endSize=8;exitX=0;exitY=0.5;exitDx=0;exitDy=0;entryX=0.5;entryY=0;entryDx=0;entryDy=0;" parent="1" source="Stmk5xcoeeXSJGBWW0_Z-64" target="Stmk5xcoeeXSJGBWW0_Z-66" edge="1">
          <mxGeometry relative="1" as="geometry" />
        </mxCell>
        <mxCell id="Stmk5xcoeeXSJGBWW0_Z-63" value="No" style="edgeLabel;html=1;align=center;verticalAlign=middle;resizable=0;points=[];fontSize=12;" parent="Stmk5xcoeeXSJGBWW0_Z-62" vertex="1" connectable="0">
          <mxGeometry x="-0.2485" y="-2" relative="1" as="geometry">
            <mxPoint x="2" y="8" as="offset" />
          </mxGeometry>
        </mxCell>
        <mxCell id="Stmk5xcoeeXSJGBWW0_Z-64" value="¿Esta correcto ?" style="rhombus;whiteSpace=wrap;html=1;rounded=0;arcSize=0;fontSize=12;" parent="1" vertex="1">
          <mxGeometry x="4250" y="2031" width="99" height="90" as="geometry" />
        </mxCell>
        <mxCell id="Stmk5xcoeeXSJGBWW0_Z-65" style="edgeStyle=orthogonalEdgeStyle;rounded=0;orthogonalLoop=1;jettySize=auto;html=1;entryX=0.5;entryY=0;entryDx=0;entryDy=0;strokeColor=default;fontSize=12;startSize=8;endSize=8;" parent="1" source="Stmk5xcoeeXSJGBWW0_Z-66" target="Stmk5xcoeeXSJGBWW0_Z-69" edge="1">
          <mxGeometry relative="1" as="geometry" />
        </mxCell>
        <mxCell id="Stmk5xcoeeXSJGBWW0_Z-66" value="Rechazado." style="shape=parallelogram;perimeter=parallelogramPerimeter;whiteSpace=wrap;html=1;fixedSize=1;rounded=0;arcSize=0;fontSize=12;size=10;" parent="1" vertex="1">
          <mxGeometry x="4160" y="2146" width="120" height="60" as="geometry" />
        </mxCell>
        <mxCell id="Stmk5xcoeeXSJGBWW0_Z-67" style="edgeStyle=orthogonalEdgeStyle;rounded=0;orthogonalLoop=1;jettySize=auto;html=1;entryX=0.5;entryY=0;entryDx=0;entryDy=0;strokeColor=default;fontSize=12;startSize=8;endSize=8;" parent="1" target="Stmk5xcoeeXSJGBWW0_Z-64" edge="1">
          <mxGeometry relative="1" as="geometry">
            <mxPoint x="4300" y="1981" as="sourcePoint" />
          </mxGeometry>
        </mxCell>
        <mxCell id="Stmk5xcoeeXSJGBWW0_Z-68" value="&lt;font style=&quot;font-size: 12px;&quot;&gt;Se realiza el comparativo con las horas obtenidas en el reporte y las horas registradas en epicor.&lt;/font&gt;" style="rounded=0;whiteSpace=wrap;html=1;shadow=0;glass=0;sketch=0;fontSize=16;" parent="1" vertex="1">
          <mxGeometry x="4239.5" y="1861" width="120" height="120" as="geometry" />
        </mxCell>
        <mxCell id="Stmk5xcoeeXSJGBWW0_Z-69" value="Se devuelve al supervisor para modificación.&amp;nbsp;" style="whiteSpace=wrap;html=1;rounded=0;arcSize=0;fontSize=12;" parent="1" vertex="1">
          <mxGeometry x="4160" y="2241" width="120" height="60" as="geometry" />
        </mxCell>
        <mxCell id="Stmk5xcoeeXSJGBWW0_Z-70" value="&lt;font style=&quot;font-size: 12px;&quot;&gt;Aprobado.&lt;/font&gt;" style="shape=parallelogram;perimeter=parallelogramPerimeter;whiteSpace=wrap;html=1;fixedSize=1;rounded=0;shadow=0;glass=0;fontSize=16;size=11;" parent="1" vertex="1">
          <mxGeometry x="4340" y="2141" width="120" height="60" as="geometry" />
        </mxCell>
        <mxCell id="Stmk5xcoeeXSJGBWW0_Z-73" style="edgeStyle=orthogonalEdgeStyle;rounded=0;orthogonalLoop=1;jettySize=auto;html=1;entryX=0.5;entryY=0;entryDx=0;entryDy=0;fontSize=9;startSize=8;endSize=8;" parent="1" source="Stmk5xcoeeXSJGBWW0_Z-71" target="Stmk5xcoeeXSJGBWW0_Z-3" edge="1">
          <mxGeometry relative="1" as="geometry" />
        </mxCell>
        <mxCell id="Stmk5xcoeeXSJGBWW0_Z-76" value="Si" style="edgeLabel;html=1;align=center;verticalAlign=middle;resizable=0;points=[];fontSize=9;" parent="Stmk5xcoeeXSJGBWW0_Z-73" vertex="1" connectable="0">
          <mxGeometry x="-0.3063" y="-1" relative="1" as="geometry">
            <mxPoint as="offset" />
          </mxGeometry>
        </mxCell>
        <mxCell id="Stmk5xcoeeXSJGBWW0_Z-99" style="edgeStyle=orthogonalEdgeStyle;rounded=0;orthogonalLoop=1;jettySize=auto;html=1;entryX=0.5;entryY=0;entryDx=0;entryDy=0;fontSize=9;startSize=8;endSize=8;" parent="1" source="Stmk5xcoeeXSJGBWW0_Z-71" target="Stmk5xcoeeXSJGBWW0_Z-98" edge="1">
          <mxGeometry relative="1" as="geometry" />
        </mxCell>
        <mxCell id="Stmk5xcoeeXSJGBWW0_Z-100" value="No" style="edgeLabel;html=1;align=center;verticalAlign=middle;resizable=0;points=[];fontSize=9;" parent="Stmk5xcoeeXSJGBWW0_Z-99" vertex="1" connectable="0">
          <mxGeometry x="-0.094" y="2" relative="1" as="geometry">
            <mxPoint as="offset" />
          </mxGeometry>
        </mxCell>
        <mxCell id="Stmk5xcoeeXSJGBWW0_Z-71" value="¿La solicitud es de tiempo extra ?" style="rhombus;whiteSpace=wrap;html=1;shadow=0;glass=0;sketch=0;fontSize=9;" parent="1" vertex="1">
          <mxGeometry x="4490" y="1621" width="80" height="80" as="geometry" />
        </mxCell>
        <mxCell id="Stmk5xcoeeXSJGBWW0_Z-77" value="Se envía a nominas&amp;nbsp;" style="whiteSpace=wrap;html=1;rounded=0;arcSize=0;fontSize=12;" parent="1" vertex="1">
          <mxGeometry x="4340" y="2241" width="120" height="60" as="geometry" />
        </mxCell>
        <mxCell id="Stmk5xcoeeXSJGBWW0_Z-101" style="edgeStyle=orthogonalEdgeStyle;rounded=0;orthogonalLoop=1;jettySize=auto;html=1;fontSize=9;startSize=8;endSize=8;" parent="1" source="Stmk5xcoeeXSJGBWW0_Z-98" target="Stmk5xcoeeXSJGBWW0_Z-68" edge="1">
          <mxGeometry relative="1" as="geometry" />
        </mxCell>
        <mxCell id="Stmk5xcoeeXSJGBWW0_Z-98" value="Seleccionar reporte de incidencias recibido" style="rounded=0;whiteSpace=wrap;html=1;shadow=0;glass=0;sketch=0;fontSize=9;" parent="1" vertex="1">
          <mxGeometry x="4239.5" y="1751" width="120" height="60" as="geometry" />
        </mxCell>
        <mxCell id="Stmk5xcoeeXSJGBWW0_Z-102" style="edgeStyle=none;rounded=0;orthogonalLoop=1;jettySize=auto;html=1;strokeColor=default;fontSize=12;startSize=8;endSize=8;entryX=0.5;entryY=0;entryDx=0;entryDy=0;" parent="1" source="Stmk5xcoeeXSJGBWW0_Z-103" target="Stmk5xcoeeXSJGBWW0_Z-105" edge="1">
          <mxGeometry relative="1" as="geometry">
            <mxPoint x="2920" y="1490" as="targetPoint" />
          </mxGeometry>
        </mxCell>
        <mxCell id="Stmk5xcoeeXSJGBWW0_Z-103" value="Ingresa nóminas&amp;nbsp;" style="rounded=1;whiteSpace=wrap;html=1;fontSize=16;arcSize=20;glass=0;" parent="1" vertex="1">
          <mxGeometry x="2710" y="1200" width="120" height="40" as="geometry" />
        </mxCell>
        <mxCell id="Stmk5xcoeeXSJGBWW0_Z-104" style="edgeStyle=orthogonalEdgeStyle;rounded=0;orthogonalLoop=1;jettySize=auto;html=1;entryX=0.5;entryY=0;entryDx=0;entryDy=0;strokeColor=default;fontSize=12;startSize=8;endSize=8;" parent="1" source="Stmk5xcoeeXSJGBWW0_Z-105" target="Stmk5xcoeeXSJGBWW0_Z-110" edge="1">
          <mxGeometry relative="1" as="geometry" />
        </mxCell>
        <mxCell id="Stmk5xcoeeXSJGBWW0_Z-105" value="Lista de reportes pendientes." style="rounded=0;whiteSpace=wrap;html=1;fontSize=12;" parent="1" vertex="1">
          <mxGeometry x="2710" y="1290" width="120" height="60" as="geometry" />
        </mxCell>
        <mxCell id="Stmk5xcoeeXSJGBWW0_Z-106" style="edgeStyle=orthogonalEdgeStyle;rounded=0;orthogonalLoop=1;jettySize=auto;html=1;entryX=0.5;entryY=0;entryDx=0;entryDy=0;strokeColor=default;fontSize=12;startSize=8;endSize=8;" parent="1" source="Stmk5xcoeeXSJGBWW0_Z-107" target="Stmk5xcoeeXSJGBWW0_Z-108" edge="1">
          <mxGeometry relative="1" as="geometry" />
        </mxCell>
        <mxCell id="Stmk5xcoeeXSJGBWW0_Z-107" value="&lt;div style=&quot;&quot;&gt;&lt;span style=&quot;background-color: initial;&quot;&gt;Se descarga el reporte.&amp;nbsp;&lt;/span&gt;&lt;/div&gt;" style="whiteSpace=wrap;html=1;rounded=0;fontSize=12;align=center;" parent="1" vertex="1">
          <mxGeometry x="2710" y="1560" width="120" height="60" as="geometry" />
        </mxCell>
        <mxCell id="Stmk5xcoeeXSJGBWW0_Z-108" value="Fin" style="rounded=1;whiteSpace=wrap;html=1;shadow=0;glass=0;sketch=0;fontSize=16;" parent="1" vertex="1">
          <mxGeometry x="2710" y="1680" width="120" height="30" as="geometry" />
        </mxCell>
        <mxCell id="Stmk5xcoeeXSJGBWW0_Z-109" style="edgeStyle=orthogonalEdgeStyle;rounded=0;orthogonalLoop=1;jettySize=auto;html=1;strokeColor=default;fontSize=12;startSize=8;endSize=8;" parent="1" source="Stmk5xcoeeXSJGBWW0_Z-110" target="Stmk5xcoeeXSJGBWW0_Z-107" edge="1">
          <mxGeometry relative="1" as="geometry" />
        </mxCell>
        <mxCell id="Stmk5xcoeeXSJGBWW0_Z-110" value="&lt;font style=&quot;font-size: 12px;&quot;&gt;Se realiza el comparativo con las horas obtenidas en el reporte y las horas registradas en epicor.&lt;/font&gt;" style="rounded=0;whiteSpace=wrap;html=1;shadow=0;glass=0;sketch=0;fontSize=16;" parent="1" vertex="1">
          <mxGeometry x="2710" y="1400" width="120" height="120" as="geometry" />
        </mxCell>
        <mxCell id="JBgO3HFc9VJtVvf0Wzbf-1" style="edgeStyle=orthogonalEdgeStyle;rounded=0;orthogonalLoop=1;jettySize=auto;html=1;fontSize=9;startSize=8;endSize=8;" parent="1" source="Stmk5xcoeeXSJGBWW0_Z-113" target="Stmk5xcoeeXSJGBWW0_Z-154" edge="1">
          <mxGeometry relative="1" as="geometry">
            <Array as="points">
              <mxPoint x="34" y="1910" />
              <mxPoint x="34" y="1910" />
            </Array>
          </mxGeometry>
        </mxCell>
        <mxCell id="Stmk5xcoeeXSJGBWW0_Z-113" value="Se envia reporte a gerente para su aprobación.&amp;nbsp;" style="rounded=1;whiteSpace=wrap;html=1;shadow=0;glass=0;sketch=0;fontSize=9;arcSize=0;" parent="1" vertex="1">
          <mxGeometry x="-26" y="1750" width="120" height="60" as="geometry" />
        </mxCell>
        <mxCell id="MjHyP-wAd7tn_aHZbA73-38" style="edgeStyle=orthogonalEdgeStyle;rounded=0;orthogonalLoop=1;jettySize=auto;html=1;entryX=0.539;entryY=0.029;entryDx=0;entryDy=0;entryPerimeter=0;fontSize=8;startSize=8;endSize=8;" parent="1" source="Stmk5xcoeeXSJGBWW0_Z-115" target="d-JYZsfsP2iwG3mxjxAK-31" edge="1">
          <mxGeometry relative="1" as="geometry" />
        </mxCell>
        <mxCell id="Stmk5xcoeeXSJGBWW0_Z-115" value="Solicitar tiempo extra." style="shape=parallelogram;perimeter=parallelogramPerimeter;whiteSpace=wrap;html=1;fixedSize=1;fontSize=9;" parent="1" vertex="1">
          <mxGeometry x="-395" y="1440" width="110" height="40" as="geometry" />
        </mxCell>
        <mxCell id="Stmk5xcoeeXSJGBWW0_Z-120" value="Se envia la solicitud al &lt;br&gt;director para su aprobación&amp;nbsp;" style="shape=parallelogram;perimeter=parallelogramPerimeter;whiteSpace=wrap;html=1;fixedSize=1;shadow=0;glass=0;sketch=0;fontSize=9;" parent="1" vertex="1">
          <mxGeometry x="4530" y="2061" width="140" height="60" as="geometry" />
        </mxCell>
        <mxCell id="Stmk5xcoeeXSJGBWW0_Z-125" style="edgeStyle=orthogonalEdgeStyle;rounded=0;orthogonalLoop=1;jettySize=auto;html=1;fontSize=9;startSize=8;endSize=8;exitX=1;exitY=0.5;exitDx=0;exitDy=0;entryX=0.6;entryY=0.009;entryDx=0;entryDy=0;entryPerimeter=0;" parent="1" source="Stmk5xcoeeXSJGBWW0_Z-127" target="Stmk5xcoeeXSJGBWW0_Z-130" edge="1">
          <mxGeometry relative="1" as="geometry">
            <mxPoint x="-149" y="2060" as="targetPoint" />
          </mxGeometry>
        </mxCell>
        <mxCell id="Stmk5xcoeeXSJGBWW0_Z-126" value="Si" style="edgeLabel;html=1;align=center;verticalAlign=middle;resizable=0;points=[];fontSize=9;" parent="Stmk5xcoeeXSJGBWW0_Z-125" vertex="1" connectable="0">
          <mxGeometry x="-0.5744" relative="1" as="geometry">
            <mxPoint x="2" y="-7" as="offset" />
          </mxGeometry>
        </mxCell>
        <mxCell id="MjHyP-wAd7tn_aHZbA73-26" style="edgeStyle=orthogonalEdgeStyle;rounded=0;orthogonalLoop=1;jettySize=auto;html=1;fontSize=9;startSize=8;endSize=8;exitX=0;exitY=0.5;exitDx=0;exitDy=0;" parent="1" source="Stmk5xcoeeXSJGBWW0_Z-127" edge="1">
          <mxGeometry relative="1" as="geometry">
            <mxPoint x="-350" y="2070" as="targetPoint" />
            <mxPoint x="-290" y="1980" as="sourcePoint" />
            <Array as="points">
              <mxPoint x="-350" y="1970" />
            </Array>
          </mxGeometry>
        </mxCell>
        <mxCell id="MjHyP-wAd7tn_aHZbA73-27" value="No" style="edgeLabel;html=1;align=center;verticalAlign=middle;resizable=0;points=[];fontSize=9;" parent="MjHyP-wAd7tn_aHZbA73-26" vertex="1" connectable="0">
          <mxGeometry x="-0.2578" y="-2" relative="1" as="geometry">
            <mxPoint as="offset" />
          </mxGeometry>
        </mxCell>
        <mxCell id="Stmk5xcoeeXSJGBWW0_Z-127" value="&lt;font size=&quot;1&quot;&gt;¿Es aprobada?&lt;/font&gt;" style="rhombus;whiteSpace=wrap;html=1;shadow=0;glass=0;sketch=0;fontSize=11;" parent="1" vertex="1">
          <mxGeometry x="-266" y="1930" width="95" height="80" as="geometry" />
        </mxCell>
        <mxCell id="MjHyP-wAd7tn_aHZbA73-32" style="edgeStyle=orthogonalEdgeStyle;rounded=0;orthogonalLoop=1;jettySize=auto;html=1;entryX=0.5;entryY=0;entryDx=0;entryDy=0;fontSize=9;startSize=8;endSize=8;" parent="1" source="Stmk5xcoeeXSJGBWW0_Z-129" target="MjHyP-wAd7tn_aHZbA73-31" edge="1">
          <mxGeometry relative="1" as="geometry" />
        </mxCell>
        <mxCell id="Stmk5xcoeeXSJGBWW0_Z-129" value="Se notifica al usuario de la solicitud rechazada." style="shape=parallelogram;perimeter=parallelogramPerimeter;whiteSpace=wrap;html=1;fixedSize=1;shadow=0;glass=0;sketch=0;fontSize=9;size=-4;" parent="1" vertex="1">
          <mxGeometry x="-400" y="2070" width="120" height="60" as="geometry" />
        </mxCell>
        <mxCell id="MjHyP-wAd7tn_aHZbA73-29" style="edgeStyle=orthogonalEdgeStyle;rounded=0;orthogonalLoop=1;jettySize=auto;html=1;fontSize=9;startSize=8;endSize=8;entryX=0.75;entryY=0;entryDx=0;entryDy=0;" parent="1" source="Stmk5xcoeeXSJGBWW0_Z-130" target="Stmk5xcoeeXSJGBWW0_Z-133" edge="1">
          <mxGeometry relative="1" as="geometry">
            <Array as="points">
              <mxPoint x="-166" y="2270" />
              <mxPoint x="-296" y="2270" />
            </Array>
          </mxGeometry>
        </mxCell>
        <mxCell id="Stmk5xcoeeXSJGBWW0_Z-130" value="Se registra la solicitud de tiempo extra." style="rounded=1;whiteSpace=wrap;html=1;fontSize=9;arcSize=0;shadow=0;glass=0;" parent="1" vertex="1">
          <mxGeometry x="-220" y="2090" width="120" height="60" as="geometry" />
        </mxCell>
        <mxCell id="Stmk5xcoeeXSJGBWW0_Z-133" value="Fin del proceso." style="rounded=1;whiteSpace=wrap;html=1;shadow=0;glass=0;sketch=0;fontSize=9;" parent="1" vertex="1">
          <mxGeometry x="-386" y="2310" width="120" height="40" as="geometry" />
        </mxCell>
        <mxCell id="JBgO3HFc9VJtVvf0Wzbf-3" value="Si" style="edgeStyle=orthogonalEdgeStyle;rounded=0;orthogonalLoop=1;jettySize=auto;html=1;fontSize=9;startSize=8;endSize=8;" parent="1" source="Stmk5xcoeeXSJGBWW0_Z-150" edge="1">
          <mxGeometry relative="1" as="geometry">
            <mxPoint x="-29.977777777777646" y="2020" as="targetPoint" />
            <Array as="points">
              <mxPoint x="-30" y="1965" />
            </Array>
          </mxGeometry>
        </mxCell>
        <mxCell id="JBgO3HFc9VJtVvf0Wzbf-28" value="No" style="edgeStyle=orthogonalEdgeStyle;rounded=0;orthogonalLoop=1;jettySize=auto;html=1;entryX=0.5;entryY=0;entryDx=0;entryDy=0;fontSize=9;startSize=8;endSize=8;exitX=1;exitY=0.5;exitDx=0;exitDy=0;" parent="1" source="Stmk5xcoeeXSJGBWW0_Z-150" target="JBgO3HFc9VJtVvf0Wzbf-23" edge="1">
          <mxGeometry x="0.1281" relative="1" as="geometry">
            <mxPoint as="offset" />
          </mxGeometry>
        </mxCell>
        <mxCell id="Stmk5xcoeeXSJGBWW0_Z-150" value="¿Esta correcto ?" style="rhombus;whiteSpace=wrap;html=1;rounded=0;arcSize=0;fontSize=9;" parent="1" vertex="1">
          <mxGeometry x="-5.25" y="1930" width="78.5" height="70" as="geometry" />
        </mxCell>
        <mxCell id="JBgO3HFc9VJtVvf0Wzbf-5" style="edgeStyle=orthogonalEdgeStyle;rounded=0;orthogonalLoop=1;jettySize=auto;html=1;fontSize=9;startSize=8;endSize=8;entryX=0.5;entryY=0;entryDx=0;entryDy=0;" parent="1" source="Stmk5xcoeeXSJGBWW0_Z-154" target="Stmk5xcoeeXSJGBWW0_Z-150" edge="1">
          <mxGeometry relative="1" as="geometry">
            <mxPoint x="30" y="1930" as="targetPoint" />
            <Array as="points">
              <mxPoint x="34" y="1930" />
              <mxPoint x="34" y="1930" />
            </Array>
          </mxGeometry>
        </mxCell>
        <mxCell id="Stmk5xcoeeXSJGBWW0_Z-154" value="&lt;font style=&quot;font-size: 9px;&quot;&gt;Se realiza el comparativo con las horas obtenidas en el reporte y las horas registradas en epicor.&lt;/font&gt;" style="rounded=0;whiteSpace=wrap;html=1;shadow=0;glass=0;sketch=0;fontSize=9;" parent="1" vertex="1">
          <mxGeometry x="-26" y="1840" width="120" height="70" as="geometry" />
        </mxCell>
        <mxCell id="MjHyP-wAd7tn_aHZbA73-35" value="No" style="edgeStyle=orthogonalEdgeStyle;rounded=0;orthogonalLoop=1;jettySize=auto;html=1;entryX=1;entryY=0.25;entryDx=0;entryDy=0;fontSize=8;startSize=8;endSize=8;" parent="1" source="d-JYZsfsP2iwG3mxjxAK-42" target="MjHyP-wAd7tn_aHZbA73-24" edge="1">
          <mxGeometry relative="1" as="geometry" />
        </mxCell>
        <mxCell id="d-JYZsfsP2iwG3mxjxAK-42" value="¿Excede&amp;nbsp; X horas del tiempo extra ?&lt;br&gt;(nivel gerencial)" style="rhombus;whiteSpace=wrap;html=1;fontSize=9;" parent="1" vertex="1">
          <mxGeometry x="-348.75" y="1760" width="114" height="110" as="geometry" />
        </mxCell>
        <mxCell id="JBgO3HFc9VJtVvf0Wzbf-22" style="edgeStyle=orthogonalEdgeStyle;rounded=0;orthogonalLoop=1;jettySize=auto;html=1;entryX=0.5;entryY=0;entryDx=0;entryDy=0;strokeColor=default;fontSize=9;startSize=8;endSize=8;" parent="1" source="JBgO3HFc9VJtVvf0Wzbf-23" target="JBgO3HFc9VJtVvf0Wzbf-24" edge="1">
          <mxGeometry relative="1" as="geometry" />
        </mxCell>
        <mxCell id="JBgO3HFc9VJtVvf0Wzbf-23" value="Rechazado." style="shape=parallelogram;perimeter=parallelogramPerimeter;whiteSpace=wrap;html=1;fixedSize=1;rounded=0;arcSize=0;fontSize=9;size=10;" parent="1" vertex="1">
          <mxGeometry x="57" y="2020" width="106" height="50" as="geometry" />
        </mxCell>
        <mxCell id="JBgO3HFc9VJtVvf0Wzbf-30" style="edgeStyle=orthogonalEdgeStyle;rounded=0;orthogonalLoop=1;jettySize=auto;html=1;entryX=0.997;entryY=0.441;entryDx=0;entryDy=0;entryPerimeter=0;fontSize=9;startSize=8;endSize=8;" parent="1" source="JBgO3HFc9VJtVvf0Wzbf-24" target="Stmk5xcoeeXSJGBWW0_Z-40" edge="1">
          <mxGeometry relative="1" as="geometry">
            <Array as="points">
              <mxPoint x="254" y="2140" />
              <mxPoint x="254" y="1506" />
            </Array>
          </mxGeometry>
        </mxCell>
        <mxCell id="JBgO3HFc9VJtVvf0Wzbf-24" value="Se notifica al usuario del reporte de incidencia rechazado." style="whiteSpace=wrap;html=1;rounded=0;arcSize=0;fontSize=9;" parent="1" vertex="1">
          <mxGeometry x="50" y="2110" width="120" height="60" as="geometry" />
        </mxCell>
        <mxCell id="JBgO3HFc9VJtVvf0Wzbf-25" value="" style="edgeStyle=none;curved=1;rounded=0;orthogonalLoop=1;jettySize=auto;html=1;fontSize=9;startSize=8;endSize=8;entryX=0.5;entryY=0;entryDx=0;entryDy=0;exitX=0.5;exitY=1;exitDx=0;exitDy=0;" parent="1" source="JBgO3HFc9VJtVvf0Wzbf-26" target="JBgO3HFc9VJtVvf0Wzbf-27" edge="1">
          <mxGeometry relative="1" as="geometry">
            <mxPoint x="39" y="2280" as="targetPoint" />
          </mxGeometry>
        </mxCell>
        <mxCell id="JBgO3HFc9VJtVvf0Wzbf-26" value="&lt;font style=&quot;font-size: 9px;&quot;&gt;Aprobado.&lt;/font&gt;" style="shape=parallelogram;perimeter=parallelogramPerimeter;whiteSpace=wrap;html=1;fixedSize=1;rounded=0;shadow=0;glass=0;fontSize=9;size=11;" parent="1" vertex="1">
          <mxGeometry x="-81" y="2020" width="110" height="50" as="geometry" />
        </mxCell>
        <mxCell id="MjHyP-wAd7tn_aHZbA73-14" style="edgeStyle=orthogonalEdgeStyle;rounded=0;orthogonalLoop=1;jettySize=auto;html=1;entryX=1;entryY=0.75;entryDx=0;entryDy=0;fontSize=9;startSize=8;endSize=8;" parent="1" source="JBgO3HFc9VJtVvf0Wzbf-27" target="Stmk5xcoeeXSJGBWW0_Z-133" edge="1">
          <mxGeometry relative="1" as="geometry">
            <Array as="points">
              <mxPoint x="-20" y="2340" />
            </Array>
          </mxGeometry>
        </mxCell>
        <mxCell id="JBgO3HFc9VJtVvf0Wzbf-27" value="Se envía a nominas." style="whiteSpace=wrap;html=1;rounded=0;arcSize=0;fontSize=9;" parent="1" vertex="1">
          <mxGeometry x="-86" y="2110" width="120" height="60" as="geometry" />
        </mxCell>
        <mxCell id="MjHyP-wAd7tn_aHZbA73-22" style="edgeStyle=orthogonalEdgeStyle;rounded=0;orthogonalLoop=1;jettySize=auto;html=1;fontSize=9;startSize=8;endSize=8;" parent="1" source="MjHyP-wAd7tn_aHZbA73-3" target="d-JYZsfsP2iwG3mxjxAK-42" edge="1">
          <mxGeometry relative="1" as="geometry" />
        </mxCell>
        <mxCell id="MjHyP-wAd7tn_aHZbA73-3" value="Se envia la solicitud&amp;nbsp; al gerente,&amp;nbsp; el&amp;nbsp; tiempo&lt;br&gt;extra para su aprobación." style="shape=parallelogram;perimeter=parallelogramPerimeter;whiteSpace=wrap;html=1;fixedSize=1;shadow=0;glass=0;sketch=0;fontSize=9;size=-24;" parent="1" vertex="1">
          <mxGeometry x="-300" y="1660" width="120" height="60" as="geometry" />
        </mxCell>
        <mxCell id="MjHyP-wAd7tn_aHZbA73-23" style="edgeStyle=orthogonalEdgeStyle;rounded=0;orthogonalLoop=1;jettySize=auto;html=1;entryX=0.5;entryY=0;entryDx=0;entryDy=0;fontSize=9;startSize=8;endSize=8;" parent="1" source="MjHyP-wAd7tn_aHZbA73-5" target="Stmk5xcoeeXSJGBWW0_Z-127" edge="1">
          <mxGeometry relative="1" as="geometry">
            <Array as="points">
              <mxPoint x="-136" y="1910" />
              <mxPoint x="-218" y="1910" />
            </Array>
          </mxGeometry>
        </mxCell>
        <mxCell id="MjHyP-wAd7tn_aHZbA73-5" value="Se notifica al director para aprobación." style="shape=parallelogram;perimeter=parallelogramPerimeter;whiteSpace=wrap;html=1;fixedSize=1;shadow=0;glass=0;sketch=0;fontSize=9;size=-4;" parent="1" vertex="1">
          <mxGeometry x="-196" y="1800" width="120" height="60" as="geometry" />
        </mxCell>
        <mxCell id="MjHyP-wAd7tn_aHZbA73-17" style="edgeStyle=orthogonalEdgeStyle;rounded=0;orthogonalLoop=1;jettySize=auto;html=1;fontSize=9;startSize=8;endSize=8;" parent="1" source="MjHyP-wAd7tn_aHZbA73-16" target="d-JYZsfsP2iwG3mxjxAK-28" edge="1">
          <mxGeometry relative="1" as="geometry">
            <Array as="points">
              <mxPoint x="-415" y="1640" />
              <mxPoint x="-415" y="1390" />
            </Array>
          </mxGeometry>
        </mxCell>
        <mxCell id="MjHyP-wAd7tn_aHZbA73-18" value="Si" style="edgeLabel;html=1;align=center;verticalAlign=middle;resizable=0;points=[];fontSize=9;" parent="MjHyP-wAd7tn_aHZbA73-17" vertex="1" connectable="0">
          <mxGeometry x="-0.8304" y="2" relative="1" as="geometry">
            <mxPoint as="offset" />
          </mxGeometry>
        </mxCell>
        <mxCell id="MjHyP-wAd7tn_aHZbA73-21" value="No" style="edgeStyle=orthogonalEdgeStyle;rounded=0;orthogonalLoop=1;jettySize=auto;html=1;fontSize=9;startSize=8;endSize=8;" parent="1" source="MjHyP-wAd7tn_aHZbA73-16" target="MjHyP-wAd7tn_aHZbA73-3" edge="1">
          <mxGeometry relative="1" as="geometry">
            <Array as="points">
              <mxPoint x="-235" y="1640" />
            </Array>
          </mxGeometry>
        </mxCell>
        <mxCell id="MjHyP-wAd7tn_aHZbA73-16" value="&lt;font style=&quot;font-size: 8px;&quot;&gt;¿Excede&amp;nbsp; 4 horas&lt;br&gt;&amp;nbsp;del tiempo extra?&lt;br&gt;(nivel supervisor)&lt;/font&gt;" style="rhombus;whiteSpace=wrap;html=1;shadow=0;glass=0;sketch=0;fontSize=9;" parent="1" vertex="1">
          <mxGeometry x="-390" y="1600" width="90" height="80" as="geometry" />
        </mxCell>
        <mxCell id="MjHyP-wAd7tn_aHZbA73-25" style="edgeStyle=orthogonalEdgeStyle;rounded=0;orthogonalLoop=1;jettySize=auto;html=1;entryX=0;entryY=0.75;entryDx=0;entryDy=0;fontSize=9;startSize=8;endSize=8;" parent="1" source="MjHyP-wAd7tn_aHZbA73-24" target="Stmk5xcoeeXSJGBWW0_Z-133" edge="1">
          <mxGeometry relative="1" as="geometry">
            <Array as="points">
              <mxPoint x="-460" y="2340" />
            </Array>
          </mxGeometry>
        </mxCell>
        <mxCell id="MjHyP-wAd7tn_aHZbA73-24" value="Se registra la solicitud de tiempo extra." style="rounded=1;whiteSpace=wrap;html=1;fontSize=9;arcSize=0;shadow=0;glass=0;" parent="1" vertex="1">
          <mxGeometry x="-520" y="1800" width="120" height="60" as="geometry" />
        </mxCell>
        <mxCell id="MjHyP-wAd7tn_aHZbA73-28" value="" style="strokeWidth=2;html=1;shape=mxgraph.flowchart.database;whiteSpace=wrap;shadow=0;glass=0;sketch=0;fontSize=9;" parent="1" vertex="1">
          <mxGeometry x="-353.75" y="1510" width="17.5" height="10" as="geometry" />
        </mxCell>
        <mxCell id="MjHyP-wAd7tn_aHZbA73-36" style="edgeStyle=orthogonalEdgeStyle;rounded=0;orthogonalLoop=1;jettySize=auto;html=1;entryX=0.372;entryY=-0.053;entryDx=0;entryDy=0;entryPerimeter=0;fontSize=8;startSize=8;endSize=8;" parent="1" source="MjHyP-wAd7tn_aHZbA73-31" target="Stmk5xcoeeXSJGBWW0_Z-133" edge="1">
          <mxGeometry relative="1" as="geometry">
            <Array as="points">
              <mxPoint x="-341" y="2265" />
              <mxPoint x="-341" y="2265" />
            </Array>
          </mxGeometry>
        </mxCell>
        <mxCell id="MjHyP-wAd7tn_aHZbA73-31" value="Se registra la solicitud rechazada de tiempo extra." style="rounded=1;whiteSpace=wrap;html=1;fontSize=9;arcSize=0;shadow=0;glass=0;" parent="1" vertex="1">
          <mxGeometry x="-400" y="2160" width="120" height="60" as="geometry" />
        </mxCell>
        <mxCell id="MjHyP-wAd7tn_aHZbA73-39" value="&lt;b&gt;&lt;font style=&quot;font-size: 15px;&quot;&gt;Sistema de incidencias&amp;nbsp;&lt;/font&gt;&lt;/b&gt;" style="text;html=1;align=center;verticalAlign=middle;resizable=0;points=[];autosize=1;strokeColor=none;fillColor=none;fontSize=9;" parent="1" vertex="1">
          <mxGeometry x="-190" y="1200" width="190" height="30" as="geometry" />
        </mxCell>
        <mxCell id="YKszYrYKdScUd-_070sJ-74" style="edgeStyle=none;curved=1;rounded=0;orthogonalLoop=1;jettySize=auto;html=1;entryX=0.5;entryY=0;entryDx=0;entryDy=0;fontSize=16;startSize=8;endSize=8;" parent="1" source="YKszYrYKdScUd-_070sJ-2" target="YKszYrYKdScUd-_070sJ-9" edge="1">
          <mxGeometry relative="1" as="geometry" />
        </mxCell>
        <mxCell id="YKszYrYKdScUd-_070sJ-2" value="Ingresa supervisor&amp;nbsp;" style="rounded=1;whiteSpace=wrap;html=1;fontSize=9;" parent="1" vertex="1">
          <mxGeometry x="1275" y="1225" width="85" height="25" as="geometry" />
        </mxCell>
        <mxCell id="YKszYrYKdScUd-_070sJ-76" style="edgeStyle=none;curved=1;rounded=0;orthogonalLoop=1;jettySize=auto;html=1;entryX=0.5;entryY=0;entryDx=0;entryDy=0;fontSize=16;startSize=8;endSize=8;" parent="1" source="YKszYrYKdScUd-_070sJ-9" target="YKszYrYKdScUd-_070sJ-30" edge="1">
          <mxGeometry relative="1" as="geometry" />
        </mxCell>
        <mxCell id="YKszYrYKdScUd-_070sJ-9" value="Crear nueva solicitud&amp;nbsp;" style="rounded=0;whiteSpace=wrap;html=1;fontSize=9;" parent="1" vertex="1">
          <mxGeometry x="1262.5" y="1290" width="110" height="50" as="geometry" />
        </mxCell>
        <mxCell id="YKszYrYKdScUd-_070sJ-87" style="edgeStyle=orthogonalEdgeStyle;rounded=0;orthogonalLoop=1;jettySize=auto;html=1;entryX=0.5;entryY=0;entryDx=0;entryDy=0;fontSize=9;startSize=8;endSize=8;" parent="1" source="YKszYrYKdScUd-_070sJ-11" target="YKszYrYKdScUd-_070sJ-86" edge="1">
          <mxGeometry relative="1" as="geometry" />
        </mxCell>
        <mxCell id="YKszYrYKdScUd-_070sJ-11" value="Obtener registro&amp;nbsp; semanal del empleado en BioTime. (Reloj checador)&amp;nbsp;" style="rounded=0;whiteSpace=wrap;html=1;fontSize=9;" parent="1" vertex="1">
          <mxGeometry x="1140" y="1580" width="120" height="60" as="geometry" />
        </mxCell>
        <mxCell id="YKszYrYKdScUd-_070sJ-77" style="edgeStyle=none;curved=1;rounded=0;orthogonalLoop=1;jettySize=auto;html=1;entryX=0.5;entryY=0;entryDx=0;entryDy=0;fontSize=16;startSize=8;endSize=8;" parent="1" source="YKszYrYKdScUd-_070sJ-30" target="YKszYrYKdScUd-_070sJ-73" edge="1">
          <mxGeometry relative="1" as="geometry" />
        </mxCell>
        <mxCell id="YKszYrYKdScUd-_070sJ-30" value="Agregar empleado" style="shape=parallelogram;perimeter=parallelogramPerimeter;whiteSpace=wrap;html=1;fixedSize=1;fontSize=9;" parent="1" vertex="1">
          <mxGeometry x="1262.5" y="1370" width="110" height="40" as="geometry" />
        </mxCell>
        <mxCell id="YKszYrYKdScUd-_070sJ-69" value="&lt;b&gt;&lt;font style=&quot;font-size: 16px;&quot;&gt;Solicitud de incidencias&amp;nbsp;&lt;/font&gt;&lt;/b&gt;" style="text;html=1;align=center;verticalAlign=middle;resizable=0;points=[];autosize=1;strokeColor=none;fillColor=none;fontSize=16;" parent="1" vertex="1">
          <mxGeometry x="1190" y="1180" width="210" height="30" as="geometry" />
        </mxCell>
        <mxCell id="YKszYrYKdScUd-_070sJ-79" style="edgeStyle=none;curved=1;rounded=0;orthogonalLoop=1;jettySize=auto;html=1;entryX=0.5;entryY=0;entryDx=0;entryDy=0;fontSize=9;startSize=8;endSize=8;" parent="1" source="YKszYrYKdScUd-_070sJ-73" target="YKszYrYKdScUd-_070sJ-78" edge="1">
          <mxGeometry relative="1" as="geometry" />
        </mxCell>
        <mxCell id="YKszYrYKdScUd-_070sJ-73" value="Seleccionar tipo de incidencia" style="shape=parallelogram;perimeter=parallelogramPerimeter;whiteSpace=wrap;html=1;fixedSize=1;fontSize=9;" parent="1" vertex="1">
          <mxGeometry x="1262.5" y="1430" width="110" height="40" as="geometry" />
        </mxCell>
        <mxCell id="YKszYrYKdScUd-_070sJ-81" value="Si" style="edgeStyle=orthogonalEdgeStyle;rounded=0;orthogonalLoop=1;jettySize=auto;html=1;entryX=0.5;entryY=0;entryDx=0;entryDy=0;fontSize=9;startSize=8;endSize=8;" parent="1" source="YKszYrYKdScUd-_070sJ-78" target="YKszYrYKdScUd-_070sJ-11" edge="1">
          <mxGeometry x="-0.5473" relative="1" as="geometry">
            <mxPoint as="offset" />
          </mxGeometry>
        </mxCell>
        <mxCell id="YKszYrYKdScUd-_070sJ-220" style="edgeStyle=orthogonalEdgeStyle;rounded=0;orthogonalLoop=1;jettySize=auto;html=1;entryX=0.5;entryY=0;entryDx=0;entryDy=0;fontSize=9;startSize=8;endSize=8;" parent="1" source="YKszYrYKdScUd-_070sJ-78" target="YKszYrYKdScUd-_070sJ-83" edge="1">
          <mxGeometry relative="1" as="geometry" />
        </mxCell>
        <mxCell id="YKszYrYKdScUd-_070sJ-221" value="No" style="edgeLabel;html=1;align=center;verticalAlign=middle;resizable=0;points=[];fontSize=9;" parent="YKszYrYKdScUd-_070sJ-220" vertex="1" connectable="0">
          <mxGeometry x="-0.4515" y="-3" relative="1" as="geometry">
            <mxPoint as="offset" />
          </mxGeometry>
        </mxCell>
        <mxCell id="YKszYrYKdScUd-_070sJ-78" value="¿ La incidencia es tiempo extra ?" style="rhombus;whiteSpace=wrap;html=1;fontSize=9;" parent="1" vertex="1">
          <mxGeometry x="1267.5" y="1500" width="100" height="90" as="geometry" />
        </mxCell>
        <mxCell id="YKszYrYKdScUd-_070sJ-88" style="edgeStyle=orthogonalEdgeStyle;rounded=0;orthogonalLoop=1;jettySize=auto;html=1;fontSize=9;startSize=8;endSize=8;" parent="1" source="YKszYrYKdScUd-_070sJ-83" target="YKszYrYKdScUd-_070sJ-185" edge="1">
          <mxGeometry relative="1" as="geometry">
            <mxPoint x="1427.5" y="1680" as="targetPoint" />
          </mxGeometry>
        </mxCell>
        <mxCell id="YKszYrYKdScUd-_070sJ-83" value="Ingresar la fecha&amp;nbsp;&lt;br&gt;Ingresar el tiempo&amp;nbsp;&lt;br&gt;Ingresar comentarios&amp;nbsp;" style="shape=parallelogram;perimeter=parallelogramPerimeter;whiteSpace=wrap;html=1;fixedSize=1;fontSize=9;" parent="1" vertex="1">
          <mxGeometry x="1390" y="1581" width="120" height="60" as="geometry" />
        </mxCell>
        <mxCell id="YKszYrYKdScUd-_070sJ-89" style="edgeStyle=orthogonalEdgeStyle;rounded=0;orthogonalLoop=1;jettySize=auto;html=1;fontSize=9;startSize=8;endSize=8;" parent="1" source="YKszYrYKdScUd-_070sJ-86" edge="1">
          <mxGeometry relative="1" as="geometry">
            <mxPoint x="1110" y="1780" as="targetPoint" />
          </mxGeometry>
        </mxCell>
        <mxCell id="YKszYrYKdScUd-_070sJ-91" value="Si&amp;nbsp;" style="edgeLabel;html=1;align=center;verticalAlign=middle;resizable=0;points=[];fontSize=9;" parent="YKszYrYKdScUd-_070sJ-89" vertex="1" connectable="0">
          <mxGeometry x="-0.4374" y="-1" relative="1" as="geometry">
            <mxPoint as="offset" />
          </mxGeometry>
        </mxCell>
        <mxCell id="YKszYrYKdScUd-_070sJ-90" style="edgeStyle=orthogonalEdgeStyle;rounded=0;orthogonalLoop=1;jettySize=auto;html=1;fontSize=9;startSize=8;endSize=8;" parent="1" source="YKszYrYKdScUd-_070sJ-86" edge="1">
          <mxGeometry relative="1" as="geometry">
            <mxPoint x="1290" y="1790" as="targetPoint" />
            <Array as="points">
              <mxPoint x="1290" y="1725" />
              <mxPoint x="1290" y="1780" />
            </Array>
          </mxGeometry>
        </mxCell>
        <mxCell id="YKszYrYKdScUd-_070sJ-175" value="No" style="edgeLabel;html=1;align=center;verticalAlign=middle;resizable=0;points=[];fontSize=9;" parent="YKszYrYKdScUd-_070sJ-90" vertex="1" connectable="0">
          <mxGeometry x="-0.4581" relative="1" as="geometry">
            <mxPoint as="offset" />
          </mxGeometry>
        </mxCell>
        <mxCell id="YKszYrYKdScUd-_070sJ-86" value="¿El empleado puede hacer tiempo extra?&amp;nbsp;" style="rhombus;whiteSpace=wrap;html=1;fontSize=9;" parent="1" vertex="1">
          <mxGeometry x="1150" y="1680" width="100" height="90" as="geometry" />
        </mxCell>
        <mxCell id="YKszYrYKdScUd-_070sJ-94" style="edgeStyle=orthogonalEdgeStyle;rounded=0;orthogonalLoop=1;jettySize=auto;html=1;fontSize=9;startSize=8;endSize=8;entryX=0.5;entryY=0;entryDx=0;entryDy=0;" parent="1" source="YKszYrYKdScUd-_070sJ-92" target="YKszYrYKdScUd-_070sJ-224" edge="1">
          <mxGeometry relative="1" as="geometry">
            <Array as="points">
              <mxPoint x="1110" y="1870" />
              <mxPoint x="1110" y="1870" />
            </Array>
            <mxPoint x="1195" y="2050.0000000000005" as="targetPoint" />
          </mxGeometry>
        </mxCell>
        <mxCell id="YKszYrYKdScUd-_070sJ-92" value="Ingresar fecha&lt;br&gt;Ingresar tiempo&amp;nbsp;&lt;br&gt;Ingresar comentarios&amp;nbsp;" style="shape=parallelogram;perimeter=parallelogramPerimeter;whiteSpace=wrap;html=1;fixedSize=1;fontSize=9;" parent="1" vertex="1">
          <mxGeometry x="1050" y="1780" width="120" height="60" as="geometry" />
        </mxCell>
        <mxCell id="YKszYrYKdScUd-_070sJ-98" value="&lt;b&gt;&lt;font style=&quot;font-size: 16px;&quot;&gt;Reporte de incidencias&amp;nbsp;&lt;/font&gt;&lt;/b&gt;" style="text;html=1;align=center;verticalAlign=middle;resizable=0;points=[];autosize=1;strokeColor=none;fillColor=none;fontSize=16;" parent="1" vertex="1">
          <mxGeometry x="1940" y="1180" width="200" height="30" as="geometry" />
        </mxCell>
        <mxCell id="YKszYrYKdScUd-_070sJ-99" style="edgeStyle=orthogonalEdgeStyle;rounded=0;orthogonalLoop=1;jettySize=auto;html=1;entryX=0.5;entryY=0;entryDx=0;entryDy=0;fontSize=9;startSize=8;endSize=8;" parent="1" source="YKszYrYKdScUd-_070sJ-100" edge="1">
          <mxGeometry relative="1" as="geometry">
            <mxPoint x="2021" y="1310" as="targetPoint" />
          </mxGeometry>
        </mxCell>
        <mxCell id="YKszYrYKdScUd-_070sJ-100" value="Ingresa supervisor&amp;nbsp;" style="rounded=1;whiteSpace=wrap;html=1;fontSize=9;" parent="1" vertex="1">
          <mxGeometry x="1978.5" y="1250" width="85" height="25" as="geometry" />
        </mxCell>
        <mxCell id="YKszYrYKdScUd-_070sJ-112" style="edgeStyle=orthogonalEdgeStyle;rounded=0;orthogonalLoop=1;jettySize=auto;html=1;entryX=0.5;entryY=0;entryDx=0;entryDy=0;fontSize=9;startSize=8;endSize=8;" parent="1" source="YKszYrYKdScUd-_070sJ-113" target="YKszYrYKdScUd-_070sJ-122" edge="1">
          <mxGeometry relative="1" as="geometry" />
        </mxCell>
        <mxCell id="YKszYrYKdScUd-_070sJ-113" value="Crear nuevo reporte&amp;nbsp;de incidencias." style="shape=parallelogram;perimeter=parallelogramPerimeter;whiteSpace=wrap;html=1;fixedSize=1;fontSize=9;size=10;rounded=0;" parent="1" vertex="1">
          <mxGeometry x="1792" y="1400" width="120" height="60" as="geometry" />
        </mxCell>
        <mxCell id="YKszYrYKdScUd-_070sJ-114" style="edgeStyle=orthogonalEdgeStyle;rounded=0;orthogonalLoop=1;jettySize=auto;html=1;fontSize=9;startSize=8;endSize=8;" parent="1" source="YKszYrYKdScUd-_070sJ-115" target="YKszYrYKdScUd-_070sJ-126" edge="1">
          <mxGeometry relative="1" as="geometry">
            <mxPoint x="2183.5" y="2205" as="targetPoint" />
          </mxGeometry>
        </mxCell>
        <mxCell id="YKszYrYKdScUd-_070sJ-115" value="&lt;font style=&quot;font-size: 9px;&quot;&gt;Se calculan las horas extras existentes en esa semana.&lt;/font&gt;" style="whiteSpace=wrap;html=1;fontSize=9;rounded=0;" parent="1" vertex="1">
          <mxGeometry x="1792" y="1620" width="120" height="60" as="geometry" />
        </mxCell>
        <mxCell id="YKszYrYKdScUd-_070sJ-116" style="edgeStyle=orthogonalEdgeStyle;rounded=0;orthogonalLoop=1;jettySize=auto;html=1;fontSize=11;startSize=8;endSize=8;exitX=0;exitY=0.5;exitDx=0;exitDy=0;entryX=0.5;entryY=0;entryDx=0;entryDy=0;" parent="1" target="YKszYrYKdScUd-_070sJ-113" edge="1">
          <mxGeometry relative="1" as="geometry">
            <Array as="points">
              <mxPoint x="1852" y="1350" />
            </Array>
            <mxPoint x="1990" y="1350" as="sourcePoint" />
            <mxPoint x="2156" y="1500" as="targetPoint" />
          </mxGeometry>
        </mxCell>
        <mxCell id="YKszYrYKdScUd-_070sJ-253" value="No" style="edgeLabel;html=1;align=center;verticalAlign=middle;resizable=0;points=[];fontSize=9;" parent="YKszYrYKdScUd-_070sJ-116" vertex="1" connectable="0">
          <mxGeometry x="0.1259" relative="1" as="geometry">
            <mxPoint as="offset" />
          </mxGeometry>
        </mxCell>
        <mxCell id="YKszYrYKdScUd-_070sJ-118" value="Si" style="edgeStyle=orthogonalEdgeStyle;rounded=0;orthogonalLoop=1;jettySize=auto;html=1;fontSize=11;startSize=8;endSize=8;exitX=1;exitY=0.5;exitDx=0;exitDy=0;" parent="1" source="YKszYrYKdScUd-_070sJ-120" target="YKszYrYKdScUd-_070sJ-124" edge="1">
          <mxGeometry relative="1" as="geometry">
            <Array as="points">
              <mxPoint x="2162" y="1350" />
            </Array>
          </mxGeometry>
        </mxCell>
        <mxCell id="YKszYrYKdScUd-_070sJ-120" value="&lt;font style=&quot;font-size: 9px;&quot;&gt;¿Modificar reporte de incidencias?.&lt;/font&gt;" style="rhombus;whiteSpace=wrap;html=1;fontSize=9;rounded=0;" parent="1" vertex="1">
          <mxGeometry x="1980" y="1310" width="80" height="80" as="geometry" />
        </mxCell>
        <mxCell id="YKszYrYKdScUd-_070sJ-165" style="edgeStyle=orthogonalEdgeStyle;rounded=0;orthogonalLoop=1;jettySize=auto;html=1;entryX=0.5;entryY=0;entryDx=0;entryDy=0;fontSize=9;startSize=8;endSize=8;" parent="1" source="YKszYrYKdScUd-_070sJ-122" target="YKszYrYKdScUd-_070sJ-115" edge="1">
          <mxGeometry relative="1" as="geometry" />
        </mxCell>
        <mxCell id="YKszYrYKdScUd-_070sJ-122" value="&lt;font color=&quot;#030303&quot; style=&quot;font-size: 9px;&quot;&gt;Ingresar las&lt;br style=&quot;border-color: var(--border-color); font-size: 9px;&quot;&gt;incidencias&amp;nbsp; por&lt;br style=&quot;border-color: var(--border-color); font-size: 9px;&quot;&gt;día de cada empleado.&lt;/font&gt;" style="shape=parallelogram;perimeter=parallelogramPerimeter;whiteSpace=wrap;html=1;fixedSize=1;labelBackgroundColor=#FFFFFF;fontSize=9;fontColor=#FFFFFF;rounded=0;" parent="1" vertex="1">
          <mxGeometry x="1784" y="1520" width="136" height="50" as="geometry" />
        </mxCell>
        <mxCell id="YKszYrYKdScUd-_070sJ-168" style="edgeStyle=orthogonalEdgeStyle;rounded=0;orthogonalLoop=1;jettySize=auto;html=1;entryX=1;entryY=0.5;entryDx=0;entryDy=0;fontSize=9;startSize=8;endSize=8;" parent="1" source="YKszYrYKdScUd-_070sJ-124" target="YKszYrYKdScUd-_070sJ-122" edge="1">
          <mxGeometry relative="1" as="geometry">
            <Array as="points">
              <mxPoint x="2152" y="1545" />
            </Array>
          </mxGeometry>
        </mxCell>
        <mxCell id="YKszYrYKdScUd-_070sJ-124" value="Modifica el reporte de incidencias." style="shape=parallelogram;perimeter=parallelogramPerimeter;whiteSpace=wrap;html=1;fixedSize=1;fontSize=9;size=-14;rounded=0;" parent="1" vertex="1">
          <mxGeometry x="2092" y="1400" width="120" height="60" as="geometry" />
        </mxCell>
        <mxCell id="YKszYrYKdScUd-_070sJ-166" style="edgeStyle=orthogonalEdgeStyle;rounded=0;orthogonalLoop=1;jettySize=auto;html=1;fontSize=9;startSize=8;endSize=8;" parent="1" source="YKszYrYKdScUd-_070sJ-126" target="YKszYrYKdScUd-_070sJ-143" edge="1">
          <mxGeometry relative="1" as="geometry" />
        </mxCell>
        <mxCell id="YKszYrYKdScUd-_070sJ-126" value="Se envia reporte a gerente para su aprobación.&amp;nbsp;" style="rounded=1;whiteSpace=wrap;html=1;shadow=0;glass=0;sketch=0;fontSize=9;arcSize=0;" parent="1" vertex="1">
          <mxGeometry x="1792" y="1740" width="120" height="60" as="geometry" />
        </mxCell>
        <mxCell id="YKszYrYKdScUd-_070sJ-139" value="Si" style="edgeStyle=orthogonalEdgeStyle;rounded=0;orthogonalLoop=1;jettySize=auto;html=1;fontSize=9;startSize=8;endSize=8;entryX=0.455;entryY=0;entryDx=0;entryDy=0;entryPerimeter=0;exitX=0;exitY=0.5;exitDx=0;exitDy=0;" parent="1" source="YKszYrYKdScUd-_070sJ-141" target="YKszYrYKdScUd-_070sJ-150" edge="1">
          <mxGeometry relative="1" as="geometry">
            <mxPoint x="2122.5222222222224" y="2030" as="targetPoint" />
            <Array as="points">
              <mxPoint x="1765" y="2005" />
            </Array>
            <mxPoint x="1815" y="2010" as="sourcePoint" />
          </mxGeometry>
        </mxCell>
        <mxCell id="YKszYrYKdScUd-_070sJ-140" value="No" style="edgeStyle=orthogonalEdgeStyle;rounded=0;orthogonalLoop=1;jettySize=auto;html=1;entryX=0.5;entryY=0;entryDx=0;entryDy=0;fontSize=9;startSize=8;endSize=8;exitX=1;exitY=0.5;exitDx=0;exitDy=0;" parent="1" source="YKszYrYKdScUd-_070sJ-141" target="YKszYrYKdScUd-_070sJ-147" edge="1">
          <mxGeometry x="0.1281" relative="1" as="geometry">
            <mxPoint as="offset" />
          </mxGeometry>
        </mxCell>
        <mxCell id="YKszYrYKdScUd-_070sJ-141" value="¿Esta correcto ?" style="rhombus;whiteSpace=wrap;html=1;rounded=0;arcSize=0;fontSize=9;" parent="1" vertex="1">
          <mxGeometry x="1813.5" y="1970" width="78.5" height="70" as="geometry" />
        </mxCell>
        <mxCell id="YKszYrYKdScUd-_070sJ-167" style="edgeStyle=orthogonalEdgeStyle;rounded=0;orthogonalLoop=1;jettySize=auto;html=1;entryX=0.5;entryY=0;entryDx=0;entryDy=0;fontSize=9;startSize=8;endSize=8;" parent="1" source="YKszYrYKdScUd-_070sJ-143" target="YKszYrYKdScUd-_070sJ-141" edge="1">
          <mxGeometry relative="1" as="geometry" />
        </mxCell>
        <mxCell id="YKszYrYKdScUd-_070sJ-143" value="&lt;font style=&quot;font-size: 9px;&quot;&gt;Se realiza el comparativo con las horas obtenidas en el reporte y las horas registradas en epicor.&lt;/font&gt;" style="rounded=0;whiteSpace=wrap;html=1;shadow=0;glass=0;sketch=0;fontSize=9;" parent="1" vertex="1">
          <mxGeometry x="1792" y="1860" width="120" height="70" as="geometry" />
        </mxCell>
        <mxCell id="YKszYrYKdScUd-_070sJ-146" style="edgeStyle=orthogonalEdgeStyle;rounded=0;orthogonalLoop=1;jettySize=auto;html=1;entryX=0.5;entryY=0;entryDx=0;entryDy=0;strokeColor=default;fontSize=9;startSize=8;endSize=8;" parent="1" source="YKszYrYKdScUd-_070sJ-147" target="YKszYrYKdScUd-_070sJ-148" edge="1">
          <mxGeometry relative="1" as="geometry" />
        </mxCell>
        <mxCell id="YKszYrYKdScUd-_070sJ-147" value="Rechazado." style="shape=parallelogram;perimeter=parallelogramPerimeter;whiteSpace=wrap;html=1;fixedSize=1;rounded=0;arcSize=0;fontSize=9;size=10;" parent="1" vertex="1">
          <mxGeometry x="1892" y="2075" width="106" height="50" as="geometry" />
        </mxCell>
        <mxCell id="YKszYrYKdScUd-_070sJ-170" style="edgeStyle=orthogonalEdgeStyle;rounded=0;orthogonalLoop=1;jettySize=auto;html=1;entryX=1;entryY=0.25;entryDx=0;entryDy=0;fontSize=9;startSize=8;endSize=8;" parent="1" source="YKszYrYKdScUd-_070sJ-148" target="YKszYrYKdScUd-_070sJ-100" edge="1">
          <mxGeometry relative="1" as="geometry">
            <Array as="points">
              <mxPoint x="2232" y="2185" />
              <mxPoint x="2232" y="1256" />
            </Array>
          </mxGeometry>
        </mxCell>
        <mxCell id="YKszYrYKdScUd-_070sJ-148" value="Se notifica al usuario del reporte de incidencia rechazado." style="whiteSpace=wrap;html=1;rounded=0;arcSize=0;fontSize=9;" parent="1" vertex="1">
          <mxGeometry x="1885" y="2155" width="120" height="60" as="geometry" />
        </mxCell>
        <mxCell id="YKszYrYKdScUd-_070sJ-149" value="" style="edgeStyle=none;curved=1;rounded=0;orthogonalLoop=1;jettySize=auto;html=1;fontSize=9;startSize=8;endSize=8;entryX=0.5;entryY=0;entryDx=0;entryDy=0;exitX=0.5;exitY=1;exitDx=0;exitDy=0;" parent="1" source="YKszYrYKdScUd-_070sJ-150" target="YKszYrYKdScUd-_070sJ-152" edge="1">
          <mxGeometry relative="1" as="geometry">
            <mxPoint x="2191.5" y="2290" as="targetPoint" />
          </mxGeometry>
        </mxCell>
        <mxCell id="YKszYrYKdScUd-_070sJ-150" value="&lt;font style=&quot;font-size: 9px;&quot;&gt;Aprobado.&lt;/font&gt;" style="shape=parallelogram;perimeter=parallelogramPerimeter;whiteSpace=wrap;html=1;fixedSize=1;rounded=0;shadow=0;glass=0;fontSize=9;size=11;" parent="1" vertex="1">
          <mxGeometry x="1715" y="2075" width="110" height="50" as="geometry" />
        </mxCell>
        <mxCell id="YKszYrYKdScUd-_070sJ-172" style="edgeStyle=orthogonalEdgeStyle;rounded=0;orthogonalLoop=1;jettySize=auto;html=1;entryX=0.5;entryY=0;entryDx=0;entryDy=0;fontSize=9;startSize=8;endSize=8;" parent="1" source="YKszYrYKdScUd-_070sJ-152" target="YKszYrYKdScUd-_070sJ-171" edge="1">
          <mxGeometry relative="1" as="geometry" />
        </mxCell>
        <mxCell id="YKszYrYKdScUd-_070sJ-152" value="Se envía a nominas." style="whiteSpace=wrap;html=1;rounded=0;arcSize=0;fontSize=9;" parent="1" vertex="1">
          <mxGeometry x="1710" y="2155" width="120" height="60" as="geometry" />
        </mxCell>
        <mxCell id="YKszYrYKdScUd-_070sJ-171" value="Fin del proceso&amp;nbsp;" style="rounded=1;whiteSpace=wrap;html=1;fontSize=9;" parent="1" vertex="1">
          <mxGeometry x="1710" y="2250" width="120" height="30" as="geometry" />
        </mxCell>
        <mxCell id="TCJYrEmazpIPLmRZ84_6-1" style="edgeStyle=orthogonalEdgeStyle;rounded=0;orthogonalLoop=1;jettySize=auto;html=1;entryX=1;entryY=0.5;entryDx=0;entryDy=0;fontSize=12;startSize=8;endSize=8;exitX=0.5;exitY=1;exitDx=0;exitDy=0;" parent="1" source="YKszYrYKdScUd-_070sJ-176" target="YKszYrYKdScUd-_070sJ-11" edge="1">
          <mxGeometry relative="1" as="geometry">
            <Array as="points">
              <mxPoint x="1293" y="1870" />
              <mxPoint x="1350" y="1870" />
              <mxPoint x="1350" y="1610" />
            </Array>
          </mxGeometry>
        </mxCell>
        <mxCell id="YKszYrYKdScUd-_070sJ-176" value="Seleccionar &lt;br&gt;otro empleado&amp;nbsp;" style="rounded=0;whiteSpace=wrap;html=1;fontSize=9;" parent="1" vertex="1">
          <mxGeometry x="1250" y="1790" width="85" height="50" as="geometry" />
        </mxCell>
        <mxCell id="YKszYrYKdScUd-_070sJ-263" style="edgeStyle=orthogonalEdgeStyle;rounded=0;orthogonalLoop=1;jettySize=auto;html=1;fontSize=9;startSize=8;endSize=8;entryX=0.25;entryY=1;entryDx=0;entryDy=0;" parent="1" source="YKszYrYKdScUd-_070sJ-185" target="YKszYrYKdScUd-_070sJ-245" edge="1">
          <mxGeometry relative="1" as="geometry">
            <mxPoint x="1450" y="1874.4827586206898" as="targetPoint" />
            <Array as="points">
              <mxPoint x="1460" y="2820" />
              <mxPoint x="925" y="2820" />
            </Array>
          </mxGeometry>
        </mxCell>
        <mxCell id="YKszYrYKdScUd-_070sJ-185" value="Se registra la solicitud&amp;nbsp;" style="rounded=0;whiteSpace=wrap;html=1;fontSize=9;" parent="1" vertex="1">
          <mxGeometry x="1390" y="1719" width="120" height="31" as="geometry" />
        </mxCell>
        <mxCell id="YKszYrYKdScUd-_070sJ-226" style="edgeStyle=orthogonalEdgeStyle;rounded=0;orthogonalLoop=1;jettySize=auto;html=1;fontSize=9;startSize=8;endSize=8;" parent="1" source="YKszYrYKdScUd-_070sJ-224" target="YKszYrYKdScUd-_070sJ-225" edge="1">
          <mxGeometry relative="1" as="geometry" />
        </mxCell>
        <mxCell id="YKszYrYKdScUd-_070sJ-224" value="Se registra la solicitud y se envia al gerente para su aprobación." style="shape=parallelogram;perimeter=parallelogramPerimeter;whiteSpace=wrap;html=1;fixedSize=1;shadow=0;glass=0;sketch=0;fontSize=9;size=-24;" parent="1" vertex="1">
          <mxGeometry x="1050" y="1881" width="120" height="60" as="geometry" />
        </mxCell>
        <mxCell id="YKszYrYKdScUd-_070sJ-227" style="edgeStyle=orthogonalEdgeStyle;rounded=0;orthogonalLoop=1;jettySize=auto;html=1;fontSize=9;startSize=8;endSize=8;exitX=0;exitY=0.5;exitDx=0;exitDy=0;entryX=0.5;entryY=0;entryDx=0;entryDy=0;" parent="1" source="YKszYrYKdScUd-_070sJ-225" target="YKszYrYKdScUd-_070sJ-230" edge="1">
          <mxGeometry relative="1" as="geometry">
            <mxPoint x="970" y="2400" as="targetPoint" />
            <Array as="points">
              <mxPoint x="955" y="2030" />
            </Array>
          </mxGeometry>
        </mxCell>
        <mxCell id="YKszYrYKdScUd-_070sJ-228" value="Si&amp;nbsp;" style="edgeLabel;html=1;align=center;verticalAlign=middle;resizable=0;points=[];fontSize=9;" parent="YKszYrYKdScUd-_070sJ-227" vertex="1" connectable="0">
          <mxGeometry x="-0.321" relative="1" as="geometry">
            <mxPoint as="offset" />
          </mxGeometry>
        </mxCell>
        <mxCell id="YKszYrYKdScUd-_070sJ-229" value="No" style="edgeStyle=orthogonalEdgeStyle;rounded=0;orthogonalLoop=1;jettySize=auto;html=1;fontSize=9;startSize=8;endSize=8;entryX=0.5;entryY=0;entryDx=0;entryDy=0;exitX=1;exitY=0.5;exitDx=0;exitDy=0;" parent="1" source="YKszYrYKdScUd-_070sJ-225" target="YKszYrYKdScUd-_070sJ-248" edge="1">
          <mxGeometry relative="1" as="geometry">
            <mxPoint x="1200" y="2380" as="targetPoint" />
            <Array as="points">
              <mxPoint x="1250" y="2031" />
              <mxPoint x="1250" y="2030" />
              <mxPoint x="1280" y="2030" />
              <mxPoint x="1280" y="2101" />
            </Array>
          </mxGeometry>
        </mxCell>
        <mxCell id="YKszYrYKdScUd-_070sJ-225" value="¿El tiempo ingresado excede las 9&amp;nbsp; horas ?&lt;br&gt;(Nivel gerente)" style="rhombus;whiteSpace=wrap;html=1;fontSize=9;" parent="1" vertex="1">
          <mxGeometry x="1055" y="1981" width="110" height="100" as="geometry" />
        </mxCell>
        <mxCell id="YKszYrYKdScUd-_070sJ-233" style="edgeStyle=orthogonalEdgeStyle;rounded=0;orthogonalLoop=1;jettySize=auto;html=1;fontSize=9;startSize=8;endSize=8;entryX=0.5;entryY=0;entryDx=0;entryDy=0;exitX=1;exitY=0.5;exitDx=0;exitDy=0;" parent="1" source="YKszYrYKdScUd-_070sJ-230" target="YKszYrYKdScUd-_070sJ-254" edge="1">
          <mxGeometry relative="1" as="geometry">
            <mxPoint x="1080" y="2540" as="targetPoint" />
          </mxGeometry>
        </mxCell>
        <mxCell id="YKszYrYKdScUd-_070sJ-234" value="No" style="edgeLabel;html=1;align=center;verticalAlign=middle;resizable=0;points=[];fontSize=9;" parent="YKszYrYKdScUd-_070sJ-233" vertex="1" connectable="0">
          <mxGeometry x="0.223" relative="1" as="geometry">
            <mxPoint y="-28" as="offset" />
          </mxGeometry>
        </mxCell>
        <mxCell id="HgbwoRJrxurrV_iyVZpX-3" style="edgeStyle=orthogonalEdgeStyle;rounded=0;orthogonalLoop=1;jettySize=auto;html=1;entryX=0.5;entryY=0;entryDx=0;entryDy=0;fontSize=9;exitX=0;exitY=0.5;exitDx=0;exitDy=0;" parent="1" source="YKszYrYKdScUd-_070sJ-230" target="YKszYrYKdScUd-_070sJ-232" edge="1">
          <mxGeometry relative="1" as="geometry" />
        </mxCell>
        <mxCell id="HgbwoRJrxurrV_iyVZpX-4" value="Si" style="edgeLabel;html=1;align=center;verticalAlign=middle;resizable=0;points=[];fontSize=9;" parent="HgbwoRJrxurrV_iyVZpX-3" vertex="1" connectable="0">
          <mxGeometry x="-0.009" y="-2" relative="1" as="geometry">
            <mxPoint as="offset" />
          </mxGeometry>
        </mxCell>
        <mxCell id="YKszYrYKdScUd-_070sJ-230" value="¿Es aprobado ?" style="rhombus;whiteSpace=wrap;html=1;fontSize=9;" parent="1" vertex="1">
          <mxGeometry x="900" y="2101" width="110" height="100" as="geometry" />
        </mxCell>
        <mxCell id="YKszYrYKdScUd-_070sJ-237" style="edgeStyle=orthogonalEdgeStyle;rounded=0;orthogonalLoop=1;jettySize=auto;html=1;fontSize=9;startSize=8;endSize=8;" parent="1" source="YKszYrYKdScUd-_070sJ-232" target="YKszYrYKdScUd-_070sJ-236" edge="1">
          <mxGeometry relative="1" as="geometry" />
        </mxCell>
        <mxCell id="YKszYrYKdScUd-_070sJ-259" style="edgeStyle=orthogonalEdgeStyle;rounded=0;orthogonalLoop=1;jettySize=auto;html=1;fontSize=9;startSize=8;endSize=8;exitX=0.5;exitY=1;exitDx=0;exitDy=0;entryX=0;entryY=0.5;entryDx=0;entryDy=0;" parent="1" source="YKszYrYKdScUd-_070sJ-235" target="YKszYrYKdScUd-_070sJ-245" edge="1">
          <mxGeometry relative="1" as="geometry">
            <Array as="points">
              <mxPoint x="730" y="2710" />
            </Array>
            <mxPoint x="890" y="2710" as="targetPoint" />
          </mxGeometry>
        </mxCell>
        <mxCell id="YKszYrYKdScUd-_070sJ-235" value="Se registra la solicitud" style="rounded=1;whiteSpace=wrap;html=1;fontSize=9;arcSize=0;shadow=0;glass=0;" parent="1" vertex="1">
          <mxGeometry x="670" y="2480" width="120" height="60" as="geometry" />
        </mxCell>
        <mxCell id="YKszYrYKdScUd-_070sJ-238" style="edgeStyle=orthogonalEdgeStyle;rounded=0;orthogonalLoop=1;jettySize=auto;html=1;fontSize=9;startSize=8;endSize=8;exitX=0;exitY=0.5;exitDx=0;exitDy=0;entryX=0.5;entryY=0;entryDx=0;entryDy=0;" parent="1" source="YKszYrYKdScUd-_070sJ-236" target="YKszYrYKdScUd-_070sJ-235" edge="1">
          <mxGeometry relative="1" as="geometry">
            <Array as="points">
              <mxPoint x="730" y="2410" />
            </Array>
          </mxGeometry>
        </mxCell>
        <mxCell id="YKszYrYKdScUd-_070sJ-260" value="Si" style="edgeLabel;html=1;align=center;verticalAlign=middle;resizable=0;points=[];fontSize=9;" parent="YKszYrYKdScUd-_070sJ-238" vertex="1" connectable="0">
          <mxGeometry x="-0.3309" y="-1" relative="1" as="geometry">
            <mxPoint as="offset" />
          </mxGeometry>
        </mxCell>
        <mxCell id="YKszYrYKdScUd-_070sJ-243" style="edgeStyle=orthogonalEdgeStyle;rounded=0;orthogonalLoop=1;jettySize=auto;html=1;fontSize=9;startSize=8;endSize=8;exitX=1;exitY=0.5;exitDx=0;exitDy=0;" parent="1" source="YKszYrYKdScUd-_070sJ-236" target="YKszYrYKdScUd-_070sJ-239" edge="1">
          <mxGeometry relative="1" as="geometry" />
        </mxCell>
        <mxCell id="YKszYrYKdScUd-_070sJ-261" value="No" style="edgeLabel;html=1;align=center;verticalAlign=middle;resizable=0;points=[];fontSize=9;" parent="YKszYrYKdScUd-_070sJ-243" vertex="1" connectable="0">
          <mxGeometry x="-0.411" y="-1" relative="1" as="geometry">
            <mxPoint as="offset" />
          </mxGeometry>
        </mxCell>
        <mxCell id="YKszYrYKdScUd-_070sJ-236" value="¿Es aprobado ?" style="rhombus;whiteSpace=wrap;html=1;fontSize=9;" parent="1" vertex="1">
          <mxGeometry x="790" y="2360" width="110" height="100" as="geometry" />
        </mxCell>
        <mxCell id="YKszYrYKdScUd-_070sJ-244" style="edgeStyle=orthogonalEdgeStyle;rounded=0;orthogonalLoop=1;jettySize=auto;html=1;entryX=0.5;entryY=0;entryDx=0;entryDy=0;fontSize=9;startSize=8;endSize=8;" parent="1" source="YKszYrYKdScUd-_070sJ-239" target="YKszYrYKdScUd-_070sJ-241" edge="1">
          <mxGeometry relative="1" as="geometry" />
        </mxCell>
        <mxCell id="YKszYrYKdScUd-_070sJ-239" value="Se notifica al usuario de la solicitud rechazada" style="shape=parallelogram;perimeter=parallelogramPerimeter;whiteSpace=wrap;html=1;fixedSize=1;shadow=0;glass=0;sketch=0;fontSize=9;size=-4;" parent="1" vertex="1">
          <mxGeometry x="895" y="2480" width="120" height="60" as="geometry" />
        </mxCell>
        <mxCell id="YKszYrYKdScUd-_070sJ-246" style="edgeStyle=orthogonalEdgeStyle;rounded=0;orthogonalLoop=1;jettySize=auto;html=1;entryX=0.5;entryY=0;entryDx=0;entryDy=0;fontSize=9;startSize=8;endSize=8;" parent="1" source="YKszYrYKdScUd-_070sJ-241" target="YKszYrYKdScUd-_070sJ-245" edge="1">
          <mxGeometry relative="1" as="geometry" />
        </mxCell>
        <mxCell id="YKszYrYKdScUd-_070sJ-241" value="Se registra la solicitud rechazada." style="rounded=1;whiteSpace=wrap;html=1;fontSize=9;arcSize=0;shadow=0;glass=0;" parent="1" vertex="1">
          <mxGeometry x="895" y="2580" width="120" height="60" as="geometry" />
        </mxCell>
        <mxCell id="YKszYrYKdScUd-_070sJ-245" value="Fin del proceso" style="rounded=1;whiteSpace=wrap;html=1;shadow=0;glass=0;sketch=0;fontSize=9;" parent="1" vertex="1">
          <mxGeometry x="895" y="2690" width="120" height="40" as="geometry" />
        </mxCell>
        <mxCell id="YKszYrYKdScUd-_070sJ-250" style="edgeStyle=orthogonalEdgeStyle;rounded=0;orthogonalLoop=1;jettySize=auto;html=1;fontSize=9;startSize=8;endSize=8;entryX=0.5;entryY=0;entryDx=0;entryDy=0;exitX=1;exitY=0.5;exitDx=0;exitDy=0;" parent="1" target="YKszYrYKdScUd-_070sJ-252" edge="1">
          <mxGeometry relative="1" as="geometry">
            <mxPoint x="1380.5" y="2530" as="targetPoint" />
            <mxPoint x="1320" y="2141" as="sourcePoint" />
            <Array as="points">
              <mxPoint x="1360" y="2141" />
            </Array>
          </mxGeometry>
        </mxCell>
        <mxCell id="YKszYrYKdScUd-_070sJ-251" value="No" style="edgeLabel;html=1;align=center;verticalAlign=middle;resizable=0;points=[];fontSize=9;" parent="YKszYrYKdScUd-_070sJ-250" vertex="1" connectable="0">
          <mxGeometry x="-0.1593" y="2" relative="1" as="geometry">
            <mxPoint x="-12" y="-27" as="offset" />
          </mxGeometry>
        </mxCell>
        <mxCell id="YKszYrYKdScUd-_070sJ-262" value="Si" style="edgeStyle=orthogonalEdgeStyle;rounded=0;orthogonalLoop=1;jettySize=auto;html=1;fontSize=9;startSize=8;endSize=8;exitX=0;exitY=0.5;exitDx=0;exitDy=0;" parent="1" source="YKszYrYKdScUd-_070sJ-248" target="YKszYrYKdScUd-_070sJ-255" edge="1">
          <mxGeometry x="-0.6843" relative="1" as="geometry">
            <mxPoint x="1215" y="2460" as="sourcePoint" />
            <Array as="points">
              <mxPoint x="1200" y="2141" />
            </Array>
            <mxPoint as="offset" />
          </mxGeometry>
        </mxCell>
        <mxCell id="YKszYrYKdScUd-_070sJ-248" value="¿Es aprobado?" style="rhombus;whiteSpace=wrap;html=1;fontSize=9;" parent="1" vertex="1">
          <mxGeometry x="1239.5" y="2101" width="80" height="80" as="geometry" />
        </mxCell>
        <mxCell id="HgbwoRJrxurrV_iyVZpX-5" style="edgeStyle=orthogonalEdgeStyle;rounded=0;orthogonalLoop=1;jettySize=auto;html=1;fontSize=9;" parent="1" source="YKszYrYKdScUd-_070sJ-252" target="YKszYrYKdScUd-_070sJ-245" edge="1">
          <mxGeometry relative="1" as="geometry">
            <Array as="points">
              <mxPoint x="1360" y="2810" />
              <mxPoint x="960" y="2810" />
            </Array>
          </mxGeometry>
        </mxCell>
        <mxCell id="YKszYrYKdScUd-_070sJ-252" value="Se notifica al usuario de la solicitud devuelta" style="shape=parallelogram;perimeter=parallelogramPerimeter;whiteSpace=wrap;html=1;fixedSize=1;shadow=0;glass=0;sketch=0;fontSize=9;size=-4;" parent="1" vertex="1">
          <mxGeometry x="1300" y="2260" width="120" height="60" as="geometry" />
        </mxCell>
        <mxCell id="YKszYrYKdScUd-_070sJ-257" style="edgeStyle=orthogonalEdgeStyle;rounded=0;orthogonalLoop=1;jettySize=auto;html=1;fontSize=9;startSize=8;endSize=8;" parent="1" source="YKszYrYKdScUd-_070sJ-254" target="YKszYrYKdScUd-_070sJ-245" edge="1">
          <mxGeometry relative="1" as="geometry">
            <mxPoint x="1060" y="2820" as="targetPoint" />
            <Array as="points">
              <mxPoint x="1060" y="2710" />
              <mxPoint x="1000" y="2710" />
            </Array>
          </mxGeometry>
        </mxCell>
        <mxCell id="YKszYrYKdScUd-_070sJ-254" value="Se notifica al usuario de la solicitud devuelta" style="shape=parallelogram;perimeter=parallelogramPerimeter;whiteSpace=wrap;html=1;fixedSize=1;shadow=0;glass=0;sketch=0;fontSize=9;size=-4;" parent="1" vertex="1">
          <mxGeometry x="990" y="2241" width="120" height="60" as="geometry" />
        </mxCell>
        <mxCell id="YKszYrYKdScUd-_070sJ-258" style="edgeStyle=orthogonalEdgeStyle;rounded=0;orthogonalLoop=1;jettySize=auto;html=1;entryX=0.75;entryY=1;entryDx=0;entryDy=0;fontSize=9;startSize=8;endSize=8;" parent="1" source="YKszYrYKdScUd-_070sJ-255" target="YKszYrYKdScUd-_070sJ-245" edge="1">
          <mxGeometry relative="1" as="geometry">
            <Array as="points">
              <mxPoint x="1200" y="2770" />
              <mxPoint x="985" y="2770" />
            </Array>
          </mxGeometry>
        </mxCell>
        <mxCell id="YKszYrYKdScUd-_070sJ-255" value="Se registra la solicitud" style="shape=parallelogram;perimeter=parallelogramPerimeter;whiteSpace=wrap;html=1;fixedSize=1;shadow=0;glass=0;sketch=0;fontSize=9;size=-4;" parent="1" vertex="1">
          <mxGeometry x="1142.5" y="2270" width="120" height="31" as="geometry" />
        </mxCell>
        <mxCell id="YKszYrYKdScUd-_070sJ-232" value="Se envia la solicitud&amp;nbsp; al director para su aprobación" style="shape=parallelogram;perimeter=parallelogramPerimeter;whiteSpace=wrap;html=1;fixedSize=1;shadow=0;glass=0;sketch=0;fontSize=9;size=-24;" parent="1" vertex="1">
          <mxGeometry x="785" y="2250" width="120" height="60" as="geometry" />
        </mxCell>
      </root>
    </mxGraphModel>
  </diagram>
  <diagram id="zTC4n-AA3dFqYAuJv-E_" name="Página-3">
    <mxGraphModel dx="1434" dy="788" grid="1" gridSize="10" guides="1" tooltips="1" connect="1" arrows="1" fold="1" page="1" pageScale="1" pageWidth="827" pageHeight="1169" math="0" shadow="0">
      <root>
        <mxCell id="0" />
        <mxCell id="1" parent="0" />
        <mxCell id="bBTh41O9SOiku8FwKueQ-9" value="DocumentManagenet" style="swimlane;fontStyle=0;childLayout=stackLayout;horizontal=1;startSize=26;fillColor=none;horizontalStack=0;resizeParent=1;resizeParentMax=0;resizeLast=0;collapsible=1;marginBottom=0;whiteSpace=wrap;html=1;" vertex="1" parent="1">
          <mxGeometry x="650" y="40" width="140" height="104" as="geometry" />
        </mxCell>
        <mxCell id="bBTh41O9SOiku8FwKueQ-10" value="+ field: type" style="text;strokeColor=none;fillColor=none;align=left;verticalAlign=top;spacingLeft=4;spacingRight=4;overflow=hidden;rotatable=0;points=[[0,0.5],[1,0.5]];portConstraint=eastwest;whiteSpace=wrap;html=1;" vertex="1" parent="bBTh41O9SOiku8FwKueQ-9">
          <mxGeometry y="26" width="140" height="26" as="geometry" />
        </mxCell>
        <mxCell id="bBTh41O9SOiku8FwKueQ-11" value="+ field: type" style="text;strokeColor=none;fillColor=none;align=left;verticalAlign=top;spacingLeft=4;spacingRight=4;overflow=hidden;rotatable=0;points=[[0,0.5],[1,0.5]];portConstraint=eastwest;whiteSpace=wrap;html=1;" vertex="1" parent="bBTh41O9SOiku8FwKueQ-9">
          <mxGeometry y="52" width="140" height="26" as="geometry" />
        </mxCell>
        <mxCell id="bBTh41O9SOiku8FwKueQ-12" value="+ field: type" style="text;strokeColor=none;fillColor=none;align=left;verticalAlign=top;spacingLeft=4;spacingRight=4;overflow=hidden;rotatable=0;points=[[0,0.5],[1,0.5]];portConstraint=eastwest;whiteSpace=wrap;html=1;" vertex="1" parent="bBTh41O9SOiku8FwKueQ-9">
          <mxGeometry y="78" width="140" height="26" as="geometry" />
        </mxCell>
      </root>
    </mxGraphModel>
  </diagram>
</mxfile>
